<?xml version="1.0" encoding="UTF-8"?>
<svg xmlns="http://www.w3.org/2000/svg" xmlns:xlink="http://www.w3.org/1999/xlink" viewBox="0 0 537.61 558.78">
  <defs>
    <style>
      .cls-1 {
        fill: url(#linear-gradient-13);
      }

      .cls-2 {
        fill: url(#linear-gradient-2);
      }

      .cls-3 {
        fill: url(#linear-gradient-10);
      }

      .cls-4 {
        fill: url(#linear-gradient-12);
      }

      .cls-5 {
        fill: #231f20;
      }

      .cls-6 {
        fill: #fff;
      }

      .cls-7 {
        fill: none;
      }

      .cls-8 {
        fill: url(#linear-gradient-4);
      }

      .cls-9 {
        fill: url(#radial-gradient);
      }

      .cls-10 {
        fill: url(#linear-gradient-3);
      }

      .cls-11 {
        fill: url(#linear-gradient-5);
      }

      .cls-12 {
        isolation: isolate;
      }

      .cls-13 {
        fill: url(#linear-gradient-8);
      }

      .cls-14 {
        fill: #b45745;
      }

      .cls-15 {
        fill: url(#radial-gradient-2);
      }

      .cls-15, .cls-16 {
        mix-blend-mode: multiply;
        opacity: .6;
      }

      .cls-17 {
        fill: url(#linear-gradient-14);
      }

      .cls-18 {
        fill: #d1d3d4;
      }

      .cls-19 {
        fill: #c88c85;
      }

      .cls-16 {
        fill: url(#radial-gradient-3);
      }

      .cls-20 {
        fill: #e6e7e8;
      }

      .cls-21 {
        fill: url(#linear-gradient-7);
      }

      .cls-22 {
        fill: url(#linear-gradient-9);
      }

      .cls-23 {
        fill: url(#linear-gradient-11);
      }

      .cls-24 {
        fill: url(#linear-gradient-6);
      }

      .cls-25 {
        fill: #f15961;
      }

      .cls-26 {
        fill: #e3a49a;
      }

      .cls-27 {
        fill: url(#linear-gradient);
      }
    </style>
    <linearGradient id="linear-gradient" x1="396.67" y1="47.27" x2="313.35" y2="25.28" gradientUnits="userSpaceOnUse">
      <stop offset=".09" stop-color="#c88c85"/>
      <stop offset=".16" stop-color="#ce928a"/>
      <stop offset=".34" stop-color="#dd9f95"/>
      <stop offset=".49" stop-color="#e3a49a"/>
    </linearGradient>
    <linearGradient id="linear-gradient-2" x1="426.3" y1="44.92" x2="388.57" y2="21.05" gradientUnits="userSpaceOnUse">
      <stop offset=".02" stop-color="#c88c85"/>
      <stop offset=".09" stop-color="#d4968e"/>
      <stop offset=".2" stop-color="#dfa097"/>
      <stop offset=".32" stop-color="#e3a49a"/>
    </linearGradient>
    <linearGradient id="linear-gradient-3" x1="274.01" y1="87.48" x2="328.41" y2="48.64" gradientUnits="userSpaceOnUse">
      <stop offset=".23" stop-color="#fff"/>
      <stop offset=".24" stop-color="#fdfafa"/>
      <stop offset=".28" stop-color="#f5e0dc"/>
      <stop offset=".33" stop-color="#eec9c4"/>
      <stop offset=".39" stop-color="#e9b8b1"/>
      <stop offset=".46" stop-color="#e5ada3"/>
      <stop offset=".54" stop-color="#e3a69c"/>
      <stop offset=".71" stop-color="#e3a49a"/>
    </linearGradient>
    <linearGradient id="linear-gradient-4" x1="380.88" y1="329.08" x2="513.91" y2="349.47" gradientUnits="userSpaceOnUse">
      <stop offset=".26" stop-color="#c88c85"/>
      <stop offset=".35" stop-color="#cd9088"/>
      <stop offset=".72" stop-color="#dd9e95"/>
      <stop offset="1" stop-color="#e3a49a"/>
    </linearGradient>
    <linearGradient id="linear-gradient-5" x1="327.38" y1="235.76" x2="328.06" y2="258.78" gradientUnits="userSpaceOnUse">
      <stop offset=".32" stop-color="#c88c85"/>
      <stop offset=".6" stop-color="#cf928a"/>
      <stop offset="1" stop-color="#e3a49a"/>
    </linearGradient>
    <linearGradient id="linear-gradient-6" x1="391.15" y1="174.36" x2="324.31" y2="110.11" gradientUnits="userSpaceOnUse">
      <stop offset=".11" stop-color="#c88c85"/>
      <stop offset=".33" stop-color="#d4968e"/>
      <stop offset=".65" stop-color="#dfa097"/>
      <stop offset="1" stop-color="#e3a49a"/>
    </linearGradient>
    <radialGradient id="radial-gradient" cx="395.44" cy="195.99" fx="395.44" fy="195.99" r="31.87" gradientTransform="translate(-271.3 140.41) rotate(1.94) scale(1.56 .32) skewX(-.33)" gradientUnits="userSpaceOnUse">
      <stop offset="0" stop-color="#fff"/>
      <stop offset=".1" stop-color="#faf1ef"/>
      <stop offset=".36" stop-color="#f0cfca"/>
      <stop offset=".61" stop-color="#e9b7af"/>
      <stop offset=".83" stop-color="#e4a99f"/>
      <stop offset="1" stop-color="#e3a49a"/>
    </radialGradient>
    <linearGradient id="linear-gradient-7" x1="276.55" y1="172.77" x2="332.83" y2="172.77" gradientUnits="userSpaceOnUse">
      <stop offset=".16" stop-color="#fff"/>
      <stop offset=".34" stop-color="#f8e9e7"/>
      <stop offset=".78" stop-color="#e8b7af"/>
      <stop offset="1" stop-color="#e3a49a"/>
    </linearGradient>
    <linearGradient id="linear-gradient-8" x1="298.98" y1="210.4" x2="299.01" y2="210.4" xlink:href="#linear-gradient-7"/>
    <linearGradient id="linear-gradient-9" x1="349.18" y1="31.67" x2="377.84" y2="44.93" gradientUnits="userSpaceOnUse">
      <stop offset=".35" stop-color="#fff"/>
      <stop offset=".36" stop-color="#fdfafa"/>
      <stop offset=".42" stop-color="#f5e0dc"/>
      <stop offset=".49" stop-color="#eec9c4"/>
      <stop offset=".57" stop-color="#e9b8b1"/>
      <stop offset=".66" stop-color="#e5ada3"/>
      <stop offset=".77" stop-color="#e3a69c"/>
      <stop offset="1" stop-color="#e3a49a"/>
    </linearGradient>
    <linearGradient id="linear-gradient-10" x1="398.11" y1="29.55" x2="451.62" y2="63.16" gradientUnits="userSpaceOnUse">
      <stop offset=".07" stop-color="#fff"/>
      <stop offset=".09" stop-color="#fbf3f2"/>
      <stop offset=".15" stop-color="#f3dbd7"/>
      <stop offset=".21" stop-color="#edc6c0"/>
      <stop offset=".29" stop-color="#e8b7af"/>
      <stop offset=".38" stop-color="#e5aca2"/>
      <stop offset=".51" stop-color="#e3a59b"/>
      <stop offset=".84" stop-color="#e3a49a"/>
    </linearGradient>
    <linearGradient id="linear-gradient-11" x1="368.1" y1="40.93" x2="528.38" y2="422.13" gradientUnits="userSpaceOnUse">
      <stop offset=".04" stop-color="#fff"/>
      <stop offset=".13" stop-color="#fcf5f4"/>
      <stop offset=".68" stop-color="#eabab3"/>
      <stop offset=".94" stop-color="#e3a49a"/>
    </linearGradient>
    <linearGradient id="linear-gradient-12" x1="44" y1="364.64" x2="55.09" y2="377.21" gradientUnits="userSpaceOnUse">
      <stop offset="0" stop-color="#9f0e10"/>
      <stop offset=".18" stop-color="#bc1417"/>
      <stop offset=".39" stop-color="#d71a1e"/>
      <stop offset=".57" stop-color="#e71e22"/>
      <stop offset=".71" stop-color="#ed2024"/>
    </linearGradient>
    <linearGradient id="linear-gradient-13" x1="36.54" y1="391.33" x2="26.12" y2="381.22" gradientUnits="userSpaceOnUse">
      <stop offset="0" stop-color="#fff"/>
      <stop offset=".43" stop-color="#fcfcfc"/>
      <stop offset=".64" stop-color="#f4f5f5"/>
      <stop offset=".82" stop-color="#e7e8e9"/>
      <stop offset=".96" stop-color="#d4d6d7"/>
      <stop offset=".99" stop-color="#d1d3d4"/>
    </linearGradient>
    <linearGradient id="linear-gradient-14" x1="27.32" y1="400.77" x2="18.1" y2="391.82" gradientUnits="userSpaceOnUse">
      <stop offset="0" stop-color="#fff"/>
      <stop offset=".43" stop-color="#fcfcfc"/>
      <stop offset=".64" stop-color="#f4f5f5"/>
      <stop offset=".82" stop-color="#e7e8e9"/>
      <stop offset=".96" stop-color="#d4d6d7"/>
      <stop offset=".99" stop-color="#d1d3d4"/>
    </linearGradient>
    <radialGradient id="radial-gradient-2" cx="36.92" cy="372.1" fx="36.92" fy="372.1" r="10.86" gradientUnits="userSpaceOnUse">
      <stop offset="0" stop-color="#231f20"/>
      <stop offset=".09" stop-color="#272324"/>
      <stop offset=".18" stop-color="#332f30"/>
      <stop offset=".28" stop-color="#484445"/>
      <stop offset=".38" stop-color="#656262"/>
      <stop offset=".48" stop-color="#8a8888"/>
      <stop offset=".58" stop-color="#b7b6b6"/>
      <stop offset=".68" stop-color="#ececec"/>
      <stop offset=".71" stop-color="#fff"/>
    </radialGradient>
    <radialGradient id="radial-gradient-3" cx="45.82" cy="379.87" fx="45.82" fy="379.87" r="8.79" gradientUnits="userSpaceOnUse">
      <stop offset=".04" stop-color="#231f20"/>
      <stop offset=".17" stop-color="#272324"/>
      <stop offset=".29" stop-color="#332f30"/>
      <stop offset=".42" stop-color="#484445"/>
      <stop offset=".56" stop-color="#656262"/>
      <stop offset=".69" stop-color="#8a8888"/>
      <stop offset=".82" stop-color="#b7b6b6"/>
      <stop offset=".96" stop-color="#ececec"/>
      <stop offset="1" stop-color="#fff"/>
    </radialGradient>
  </defs>
  <g class="cls-12">
    <g id="Layer_3" data-name="Layer 3">
      <path class="cls-14" d="M380.18,156.14c-1.98,2.81-3.78,5.89-5.43,9.26-.05.1-.11.21-.19.3,1.7-3.68,3.57-6.99,5.62-9.56Z"/>
      <path class="cls-19" d="M319.8,98.59c-1.48,2.74-2.6,5.6-3.5,9,.61-2.44,1.28-4.35,1.95-5.92.14-.31.28-.62.42-.91.03-.09.08-.17.12-.25.06-.16.14-.32.23-.47.25-.51.51-.98.78-1.43Z"/>
      <path class="cls-19" d="M412.79,66.87c-.11.28-.23.56-.34.81l.12-.31c.06-.17.14-.34.22-.5Z"/>
      <path class="cls-27" d="M388.95,22.24c-3.55,6.35-6.43,12.97-9.23,19.38-2.37,5.44-4.05,9.11-5.67,12.66-1.57,3.46-5.45,12.2-7.71,17.38-2.54.47-5.33.63-8.58,1.59,5.26-9.89,11.93-23.05,15.45-33.37.81-2.39,1.59-4.8,2.74-7.11,3.21-6.38,9.33-11.94,11.24-18.6.5-1.72.75-3.57,1.12-5.37,1.82.43,3.5,1.16,4.41,1.91.58,1.63-1.85,8.15-3.77,11.52Z"/>
      <path class="cls-14" d="M319.02,100.02c-.09.15-.17.31-.23.47-.05.08-.09.16-.12.25-.14.29-.28.59-.42.91-.67,1.57-1.34,3.48-1.95,5.92.9-3.4,2.02-6.26,3.5-9-.26.45-.53.93-.78,1.43Z"/>
      <path class="cls-14" d="M519.67,288.44c-4.39-39.45-17.38-101.41-40.7-157.01l-.83-1.98c-7.27-17.43-17.11-41.04-55.76-60.82-1.03-.53-2.07-1.05-3.15-1.57.39-.91.75-1.72,1.12-2.49,5.36-11.24,10.31-16.46,17.14-23.69,2.99-3.17,6.4-6.75,10.28-11.35.2-.23.67-.74,1.21-1.31,1.32-1.41,2.23-2.37,2.58-2.89,1.04-1.46,1.76-4.56-5.01-9.03-.76-.51-1.56-.97-2.34-1.38-4.06-2.13-8.19-2.9-10.59-1.87-13.08,5.61-19.04,12.09-28.45,23.05-8.19,9.58-9.97,14.48-13.53,24.28l-.44,1.21c-3.6.57-10.03,1.63-15.07,2.63,0-.01.02-.02.02-.03h0c1.45-3.27,2.63-5.88,3.78-8.42,1.63-3.56,3.3-7.25,5.7-12.76,2.76-6.3,5.59-12.81,9.05-18.99.3-.51,6.99-12.46,2.97-16.11-1.78-1.62-4.72-2.9-7.85-3.57-2.3-.51-4.73-.67-6.87-.4-5.09.64-6.01,3.52-6.77,5.84l-.14.46c-2.91,8.94-8.74,15.91-14.36,22.67-6.85,8.22-13.95,16.72-15.56,28.54-.2,1.58-.33,3.17-.44,4.71-.09,1.3-.19,2.6-.34,3.9-.06.53-.14,1.06-.22,1.58-3.92,2.09-7.21,4.22-9.69,6.27-2.23-.99-3.88-1.6-5.71-2.24-1.76-.64-3.75-1.34-6.73-2.58-5.22-2.17-12.85-6.84-21.47-13.12-3.05-2.22-8.39-9.65-12.67-15.61-2.52-3.49-4.89-6.79-6.87-9.21h-.02c-.7-.87-1.9-2.3-4.16-2.93-1.88-.51-3.74-.21-4.75-.03-5.78.98-11.32,2.94-15.99,5.64-1.2.68-4.86,2.78-5,5.93-.09,1.93,1.15,3.55,2.07,4.73,1.65,2.12,2.88,3.74,3.85,5.02.48.65.9,1.2,1.28,1.7,3.13,4.19,3.38,4.53,11.57,12.55,3.1,3.04,6.42,6.07,9.62,9.01,11.4,10.44,23.2,21.25,27.44,34.06,1.15,3.49,1.79,7.31,1.93,11.61.03.51.05,1.03.05,1.55-.65.75-1.49,1.76-2.43,3.02-.11.12-.2.23-.28.36-4.95,6.65-12.61,19.8-14.33,38.87-1.7,18.91-5.31,32.29-7.69,41.15-1.15,4.28-2.07,7.66-2.4,10.29-.19,1.45-1.15,2.38-2.99,4.06-2.66,2.44-6.31,5.79-7.8,12.91-.87,4.09-1.42,16.15,5.64,22.35.69.6,1.43,1.15,2.26,1.62,8.49,4.92,37.14,7.78,49.97,6.92,11.18-.75,41.11-6.45,48.52-13.07.73-.65,1.42-1.36,2.02-2.14,5.67-6.89,7.32-17.98,3.38-25.28-2.62-4.83-8.41-10.18-13.08-14.48-2.63-2.44-5.92-5.47-6.23-6.35-.54-2.68,3.25-23.58,10.11-38.48,0-.01.02-.02.02-.03,1.7-3.68,3.57-6.99,5.62-9.56,0-.01.02-.02.03-.03,1.32-1.67,2.72-3.02,4.17-3.97.2-.14.4-.25.61-.37,1.53-.89,2.71-1.2,3.58-1.27.73-.05,1.23.07,1.49.13,4.42,1.04,8.19,7.8,9.53,11.82.02.05.23.72.62,1.89t0,.01c2.26,6.89,10.03,31.09,13.05,46.06.05.21.08.43.12.64,3.53,17.98,5.29,35.82,7.35,56.45,1.43,14.53,3.07,30.97,5.56,49.35,3.32,24.48,6.1,76.67,1.96,116.03-1.96,18.67-8.14,38.61-13.59,56.2-6.18,19.9-11.51,37.08-10.04,48.88l.14,1.2,1.42.6c9.89,4.16,22.81,6.78,36.11,8.37,16.08,1.93,32.7,2.41,45.02,2.41,3.44,0,6.54-.03,9.2-.08,5.78-.12,9.5-.29,10.12-.32l1.7-.09.9-.05.28-1.92c.03-.24,2.85-19.49,7.68-49.69,1.21-7.61,2.55-15.91,4.02-24.79,7.22-43.9,6.65-111.39-1.54-185.15ZM515.03,473.03c-2.69,16.32-4.98,30.72-6.8,42.4-.3,1.92-.59,3.76-.86,5.53-.12.81-.25,1.61-.37,2.38-.12.82-.25,1.63-.37,2.42-.42,2.68-.79,5.15-1.14,7.38-.05.32-.09.64-.14.94-.23,1.57-.45,3.03-.65,4.35-.08.49-.14.96-.22,1.41-.37,2.52-.67,4.46-.86,5.77-1.98.07-5,.15-8.81.21-5.43.08-12.44.08-20.24-.14-10.04-.28-21.39-.94-32.34-2.29-11.63-1.43-22.81-3.67-31.52-7.08-.86-11.06,4.2-27.4,10.03-46.21,5.51-17.75,11.74-37.87,13.75-56.88,4.17-39.64,1.35-92.19-1.98-116.85-2.48-18.31-4.11-34.73-5.54-49.22-2.06-20.73-3.83-38.63-7.4-56.79-.26-1.33-.56-2.72-.9-4.18h0c-4.05-17.95-12.91-44.56-13-44.85-.12-.39-.58-1.67-1.39-3.34h0c-1.85-3.93-5.67-9.99-11.9-11.66,2.91-2.95,5.87-5.76,9.3-8.11s6.03-4.73,10.65-6.64c1.96-.82,3.47-1.3,4.76-1.65,1.42-.39,2.6-.65,3.92-1.04-.11,0-1.92,0-4.66.27-2.6.25-6.03.74-9.69,1.69-.02,0-.03,0-.05.01-1.43.37-2.88.8-4.33,1.32-9.3,3.33-18.31,9.17-26.56,20.39-.5.66-.98,1.33-1.45,2.01-11.41,15.29-16.99,47.43-15.9,50.69.61,1.84,3.1,4.2,7.44,8.2,4.39,4.06,9.87,9.11,12.15,13.3,1.23,2.29,1.78,4.93,1.78,7.6,0,.51-.02,1.01-.06,1.52-.03.4-.06.81-.12,1.21v.03c-.02.14-.03.29-.06.44-.14.93-.34,1.85-.59,2.75,0,.01-.02.03-.02.06-.14.49-.3.96-.47,1.42-.25.75-.56,1.48-.9,2.19-.11.25-.23.51-.37.75-.19.35-.37.69-.58,1.03-.39.66-.81,1.27-1.26,1.84-.55.71-1.14,1.35-1.76,1.91-5.28,4.71-31.48,10.55-44.28,11.42-12.49.83-39.1-2.21-45.59-5.96-.48-.28-.92-.6-1.32-.96-.62-.54-1.18-1.19-1.67-1.9-3.27-4.78-3.44-12.65-2.57-16.75,1.25-5.89,4.03-8.45,6.49-10.71.45-.42.9-.83,1.34-1.27.09-.09.19-.19.28-.28.62-.64,1.2-1.31,1.67-2.06.53-.86.92-1.82,1.06-2.93.05-.4.12-.83.2-1.3.09-.57.22-1.16.37-1.79.14-.64.31-1.31.48-2.02.36-1.42.78-3,1.25-4.72,2.43-8.98,6.07-22.53,7.8-41.75,1.65-18.4,9.03-30.89,13.67-37.07.02-.03.05-.07.06-.09,5.62-6.1,7.33-8,8.03-12.75.08-.5.16-1.01.25-1.53.37-2.21.89-4.57,1.46-6.9.39-1.54.81-3.06,1.25-4.56.23-.79.47-1.56.72-2.32.22-.69.45-1.38.67-2.04.23-.69.48-1.36.72-2.01.02-.03.03-.08.05-.12.98-2.63,1.96-4.81,2.82-6.21-.95.05-2.66,1.19-4.36,2.65-1.92,1.64-3.81,3.68-4.56,4.95-.02.01-.03.02-.03.03-1.48,2.74-2.6,5.6-3.5,9-.17.61-.31,1.25-.47,1.93-.09.42-.19.84-.28,1.3-.08.4-.17.82-.25,1.26-.02.08-.03.16-.05.24-.08.43-.16.88-.23,1.34-.3-1.34-.65-2.65-1.07-3.92-3.6-10.9-11.96-20.17-21.15-28.91-2.46-2.35-4.98-4.66-7.49-6.96-3.18-2.9-6.46-5.91-9.51-8.89-4.56-4.46-6.56-6.44-7.99-8.07-1.07-1.2-1.84-2.22-3.08-3.92-1.15-1.54-2.69-3.61-5.19-6.79-.59-.76-1.26-1.64-1.23-2.26.02-.45.48-1.24,2.58-2.44.39-.23.79-.45,1.2-.66,3.71-1.97,7.96-3.38,12.35-4.13.86-.14,1.15-.15,1.21-.14.28.1.83.76,1.01.99,1.9,2.31,4.22,5.55,6.7,8.99,4.95,6.88,10.07,14.02,13.81,16.74,6.37,4.64,15.49,10.8,22.78,13.84,3.16,1.31,5.23,2.05,7.07,2.71,2.34.83,4.17,1.49,7.35,3.05l2.44,1.2,1.78-1.75c2.3-2.29,6.29-4.95,11.23-7.49l1.11-.57.2-.99c.05-.23.08-.45.11-.68.12-.71.23-1.42.33-2.13.16-1.35.25-2.72.36-4.07.11-1.48.22-3.01.42-4.49,1.45-10.76,7.86-18.44,14.64-26.58,5.89-7.06,11.97-14.35,15.1-24.01l.16-.47c.73-2.23.87-2.24,1.76-2.36.44-.06.9-.08,1.39-.06.23,0,.47.01.72.03.23.01.48.05.73.08.48.07.98.16,1.48.27,1.82.43,3.5,1.16,4.41,1.91.58,1.63-1.85,8.15-3.77,11.52-3.55,6.35-6.43,12.97-9.23,19.38-2.37,5.44-4.05,9.11-5.67,12.66-1.57,3.46-3.19,7.03-5.45,12.21-.06.16-.14.34-.22.51l-2.04,4.66,6.13-1.79c.53-.15,1.23-.34,2.07-.52.3-.07.61-.14.93-.2.59-.13,1.25-.27,1.93-.39.3-.07.61-.13.93-.19,1.01-.2,2.07-.39,3.16-.59.02,0,.03,0,.05-.01,2.46-.45,5.01-.89,7.29-1.26,1.14-.2,2.2-.37,3.13-.51.93-.15,1.73-.28,2.37-.37l1.88-.28h0s.06-.2.06-.2l1.39-3.78c3.5-9.63,5.09-14.02,12.77-22.99,9.03-10.52,14.34-16.32,25.91-21.35.09,0,.2.01.33.05.03,0,.06,0,.09.01.12.01.28.05.44.08.28.07.61.15.98.28.12.03.23.07.36.12.03.01.06.02.09.03,1.03.37,2.34.98,3.78,1.95.37.25.72.49,1.03.71,2.12,1.57,2.6,2.56,2.63,2.72-.25.32-1.51,1.67-2.18,2.38-.62.65-1.17,1.23-1.39,1.5-3.81,4.49-7.16,8.03-10.12,11.15-6.85,7.24-12.25,12.97-17.91,24.81-.53,1.09-1.04,2.27-1.62,3.65-.11.22-.2.45-.3.68l-.7,1.69,2.01.94c41.03,19.36,51.01,43.33,58.31,60.82l.83,2c23.17,55.23,36.08,116.79,40.44,156,8.17,73.45,8.74,140.59,1.57,184.21Z"/>
      <path class="cls-26" d="M513.45,288.82c-4.36-39.21-17.27-100.77-40.44-156l-.83-2c-7.3-17.5-17.28-41.46-58.31-60.82l-2.01-.94c-2.3-1.12-8.1-3.1-8.1-3.1,0,0,0-.01.02-.03.26-.45,3.25-5.71,4.78-8.29.16-.28.31-.54.47-.81,1.18-1.99,2.72-3.85,4.31-5.68,5.48-6.31,11.79-13.46,18.51-19.07,3.78-3.16,9.62-9.1,11.58-11.6-.31-.22-.65-.45-1.03-.71-1.45-.97-2.76-1.58-3.78-1.95-.03-.01-.06-.02-.09-.03-.12-.05-.23-.08-.36-.12-.37-.13-.7-.21-.98-.28-.16-.03-.31-.06-.44-.08-.03-.01-.06-.01-.09-.01-.12-.02-.23-.03-.33-.05-11.57,5.03-16.88,10.83-25.91,21.35-7.68,8.98-9.26,13.36-12.77,22.99l-1.39,3.78-.06.19h0s-1.88.29-1.88.29c-.64.09-1.43.22-2.37.37-.93.15-1.99.32-3.13.51-2.27.37-4.83.81-7.29,1.26-.02.01-.03.01-.05.01-1.09.2-2.15.39-3.16.59-.31.06-.62.12-.93.19-.69.13-1.34.27-1.93.39-.33.07-.64.14-.93.2-.84.19-1.54.37-2.07.52l-6.13,1.79,2.04-4.66c.08-.17.16-.35.22-.51-2.85,1.32-5.22,3.59-8.58,3.74,5.26-9.89,9.67-20.03,13.19-30.35.81-2.39,1.59-4.8,2.74-7.11,3.21-6.38,9.33-11.94,11.24-18.6.5-1.72.75-3.57,1.12-5.37-.5-.1-1-.2-1.48-.27-.25-.03-.5-.06-.73-.08-.25-.02-.48-.03-.72-.03-.48-.02-.95,0-1.39.06-.89.12-1.03.13-1.76,2.36l-.16.47c-3.13,9.66-9.22,16.96-15.1,24.01-6.77,8.14-13.19,15.82-14.64,26.58-.2,1.48-.31,3.01-.42,4.49-.11,1.35-.2,2.72-.36,4.07-.09.71-.2,1.42-.33,2.13-.03.23-.06.45-.11.68l-.2.99-1.11.57c-4.94,2.54-8.92,5.2-11.23,7.49l-1.78,1.75-2.44-1.2c-3.18-1.56-5.01-2.22-7.35-3.05-1.84-.66-3.91-1.4-7.07-2.71-7.29-3.04-16.41-9.21-22.78-13.84-3.74-2.72-8.86-9.85-13.81-16.74-2.48-3.44-4.8-6.67-6.7-8.99-.19-.23-.73-.89-1.01-.99-.06-.01-.36,0-1.21.14-4.39.75-8.64,2.16-12.35,4.13.39.08.87.06.78-.2.09.17.19.36.28.56,2.34,4.59,6.17,8.62,10.15,12.6,0,0,0,.01.02.02,2.32,2.48,4.84,5.05,7.4,7.59,8.07,8.02,16.4,15.52,19.49,17.93.2.15.37.28.53.39,6.03,4.34,12.43,8.39,19.03,12.24.79.46,3.01,1.16,4.62,1.65,1.7-1.46,3.41-2.6,4.36-2.65-.86,1.4-1.84,3.59-2.82,6.21-.02.03-.03.08-.05.12-.23.65-.48,1.32-.72,2.01-.22.66-.45,1.34-.67,2.04-.25.76-.48,1.54-.72,2.32-.44,1.49-.86,3.02-1.25,4.56-.58,2.34-1.09,4.7-1.46,6.9-.09.52-.17,1.03-.25,1.53-.7,4.74-2.41,6.65-8.03,12.75-.02.02-.05.06-.06.09-4.64,6.18-12.02,18.67-13.67,37.07-1.73,19.22-5.37,32.78-7.8,41.75-.47,1.72-.89,3.3-1.25,4.72-.17.72-.34,1.39-.48,2.02-.16.64-.28,1.23-.37,1.79-.08.46-.16.89-.2,1.3-.14,1.11-.53,2.07-1.06,2.93-.47.75-1.04,1.42-1.67,2.06-.09.09-.19.19-.28.28-.44.44-.89.86-1.34,1.27-2.46,2.26-5.25,4.82-6.49,10.71-.87,4.09-.7,11.97,2.57,16.75.48.71,1.04,1.35,1.67,1.9.4.36.84.68,1.32.96,6.49,3.75,33.1,6.79,45.59,5.96,12.8-.87,39-6.71,44.28-11.42.62-.56,1.21-1.2,1.76-1.91.45-.57.87-1.18,1.26-1.84.2-.34.39-.68.58-1.03.14-.24.26-.5.37-.75.34-.71.65-1.43.9-2.19.17-.47.33-.95.47-1.42,0-.02.02-.05.02-.06.25-.9.45-1.83.59-2.75.03-.15.05-.3.06-.44v-.03c.06-.4.09-.81.12-1.21.05-.51.06-1.02.06-1.52,0-2.67-.54-5.31-1.78-7.6-2.27-4.19-7.75-9.24-12.15-13.3-4.34-4-6.84-6.36-7.44-8.2-1.09-3.26,4.48-35.4,15.9-50.69.48-.69.95-1.36,1.45-2.01,8.25-11.22,17.27-17.06,26.56-20.39,1.45-.52,2.9-.95,4.33-1.32.02-.01.03-.01.05-.01,3.66-.95,7.08-1.43,9.69-1.69,2.74-.27,4.55-.27,4.66-.27-1.32.39-2.51.65-3.92,1.04.03.02.05.06.06.09h0c.78-.1,1.59-.16,2.41-.14,3.1.07,5.99,1.19,8.56,2.48,11.8,5.91,18.98,15.54,24.26,25.47.7,1.27,1.34,2.56,1.96,3.83,8.64,17.72,13.9,36.24,19.06,54.68,7.52,26.98,14.85,54.05,18.51,81.47,4.58,34.44-12.1,72.74-9.9,107.32,1.45,22.73-39.38,87.55-39.8,138.26,10.95,1.35,22.3,2.01,32.34,2.29,7.8.22,14.81.22,20.24.14,3.81-.06,6.84-.14,8.81-.21.19-1.31.48-3.25.86-5.77.06-.45.14-.93.22-1.41.2-1.32.42-2.78.65-4.35.05-.31.11-.62.14-.94.34-2.23.72-4.7,1.14-7.38.12-.79.25-1.6.37-2.42.12-.77.25-1.57.37-2.38.26-1.77.56-3.61.86-5.53,1.82-11.68,4.11-26.08,6.8-42.4,7.16-43.61,6.6-110.75-1.57-184.21ZM363.29,239.49l1.17.45c1.37.53,5,2.58,7.02,4.65.25.24.48.5.67.74-.33-.1-.62-.2-.9-.29-3.89-1.27-4.24-2.01-15.43-4.44-12.24-2.65-34.82-2.83-59.98,6.04-3.41,1.21-8.11,3.83-12.39,7.09.72-2.51,1.48-3.92,5.42-6.81.65-.47,1.32-.95,2.01-1.41,15.18-10.28,40.27-18.25,72.42-6.01Z"/>
      <path class="cls-2" d="M446.08,23.19c-.25.32-1.51,1.67-2.18,2.38-.62.65-1.17,1.23-1.39,1.5-3.81,4.49-7.16,8.03-10.12,11.15-6.85,7.24-12.25,12.97-17.91,24.81-.33.66-1,2.22-1.62,3.65-.03.06-.06.12-.08.19-.08.16-.16.32-.22.5l-.12.31-.45,1.09-.12.29c-2.3-1.12-8.1-3.1-8.1-3.1,0,0,1.91-5.57,3.51-8.26.16-.28,4.73-7.76,6.31-9.59,5.48-6.31,9.31-11.47,16.04-17.08,3.78-3.16,10.74-8.73,13.81-10.56,2.12,1.57,2.6,2.56,2.63,2.72Z"/>
      <path class="cls-10" d="M324.39,93.6c-1.92,1.64-3.81,3.68-4.56,4.95-.02.01-.03.02-.03.03-.26.45-.53.93-.78,1.43-.08.15-.16.31-.23.47-.05.08-.09.16-.12.25-.14.29-.28.6-.42.91-.67,1.57-1.34,3.48-1.95,5.92-.17.61-.31,1.25-.47,1.93-.09.42-.19.84-.28,1.3-.08.4-.17.82-.25,1.26-.02.08-.03.16-.05.24-.08.43-.16.88-.23,1.34-.3-1.34-.65-2.65-1.07-3.92-3.6-10.9-11.96-20.17-21.15-28.91-2.46-2.35-4.98-4.66-7.49-6.96-3.18-2.9-6.46-5.91-9.51-8.89-4.56-4.46-6.56-6.44-7.99-8.07-1.07-1.2-1.84-2.22-3.08-3.92-1.15-1.54-2.69-3.61-5.19-6.79-.59-.76-1.26-1.64-1.23-2.26.02-.45.48-1.24,2.58-2.44.39-.23.79-.45,1.2-.66.31-.16.69-.36.69-.36,0,0,.28.52.37.71,2.34,4.59,6.17,8.62,10.15,12.6,0,0,0,.01.02.02,2.32,2.48,4.84,5.05,7.4,7.59,8.07,8.02,16.4,15.52,19.49,17.93.2.15.37.28.53.39,6.03,4.34,12.43,8.39,19.03,12.24.79.46,3.01,1.16,4.62,1.65Z"/>
      <path class="cls-8" d="M496.79,410.59c1.45,22.73-16.12,84.51-16.54,135.21-40.85,0-60.84-6.08-69.55-9.49-.86-11.06,4.2-27.4,10.03-46.21,5.51-17.75,11.74-37.87,13.75-56.88,4.17-39.64,1.35-92.19-1.98-116.85-2.48-18.31-4.11-34.73-5.54-49.22-2.06-20.73-3.83-38.63-7.4-56.79-.26-1.33-.56-2.72-.9-4.18h0c-4.05-17.95-12.91-44.56-13-44.85-.12-.39-.58-1.67-1.39-3.34h0c-1.85-3.93-5.67-9.99-11.9-11.66,2.91-2.95,5.87-5.76,9.3-8.11s6.03-4.73,10.65-6.64c1.96-.82,3.47-1.3,4.76-1.65.03.02.05.06.06.09h0c.78-.1,1.59-.16,2.41-.14,3.1.07,5.99,1.19,8.56,2.48,13.33,6.67,20.76,18.09,26.22,29.3,8.64,17.72,13.9,36.24,19.06,54.68,7.52,26.98,14.85,54.05,18.51,81.47,4.58,34.44,2.67,78.2,4.87,112.78Z"/>
      <path class="cls-11" d="M289.19,248.37c12.01-5.78,31.5-10.37,48.15-11.66,12.69-1.34,25.94,1.79,34.6,8.56-16.26,10.65-46.99,11.98-69.07,12.1-4.14.08-14.23-1.56-19.24-3.53.63-1.76,3.18-4.33,5.55-5.47Z"/>
      <path class="cls-14" d="M372.15,245.34c-.33-.1-.62-.2-.9-.29-3.89-1.27-4.24-2.01-15.43-4.44-12.24-2.65-34.82-2.83-59.98,6.04-3.41,1.21-8.11,3.83-12.39,7.09.72-2.51,1.48-3.92,5.42-6.81.65-.47,1.32-.95,2.01-1.41,15.18-10.28,40.27-18.25,72.42-6.01l1.17.45c1.37.53,5,2.58,7.02,4.65.25.24.48.5.67.74Z"/>
      <path class="cls-24" d="M452.38,157.83c-5.28-9.92-12.46-19.56-24.26-25.47-2.57-1.28-5.47-2.41-8.56-2.48-.83-.02-1.63.03-2.41.15h0s-.03-.08-.06-.1c1.42-.39,2.6-.65,3.92-1.04-.11,0-1.92,0-4.66.27-2.6.25-6.03.74-9.69,1.69-.02,0-.03,0-.05.01-1.43.37-2.88.8-4.33,1.32-9.3,3.33-18.31,9.17-26.56,20.39-.5.65-.97,1.32-1.45,2.01-11.41,15.29-16.99,47.43-15.9,50.69.61,1.84,3.1,4.2,7.44,8.2,4.39,4.06,9.87,9.11,12.15,13.3,3.08,5.73,1.85,13.6-1.4,19,1.98-12.47,2.1-21.52-19.21-35.8-13.01-8.72-22.43-5.51-24.86-9.47-1.54-2.53-1.4-5.44-1.09-8.2,2.48-21.78,14.89-42.78,34.24-59.25,4.28-3.64,9-7.14,14.84-9.28,5.11-1.87,10.84-2.63,16.51-2.91,9.73-.51,19.78.34,28.51,3.54,4.61,1.68,16.51,13.01,17.98,15.39,1.67,2.72,7.89,13.46,8.89,18.03Z"/>
      <path class="cls-9" d="M310.42,228.72c7.33-2.12,12.93-2.4,20.79-2.44,8.07-.03,13.91.41,21.67,2.05,2.89.61,7.14,2.79,10.11,3.14.62.07,1.28.12,1.86-.06.96-.3,1.42-1.16,1.29-1.93s-.73-1.44-1.38-2.04c-4.33-3.95-11.44-5.52-18.2-6.36-11.01-1.36-22.33-1.33-33.32.08-1.06.14-2.12.28-3.12.56-4.1,1.1-9.05,2.83-10.81,5.8-.83,1.39-.5,3.73,1.29,4.94,2.19-.49,7.21-2.99,9.82-3.75Z"/>
      <path class="cls-21" d="M332.32,101.71c-.14-1.73-.53-3.77-2.6-4.58-1.2-.46-2.62-.32-3.83.15-.23.65-.48,1.32-.72,2.01-.22.66-.45,1.34-.67,2.04-.25.76-.48,1.54-.72,2.32-.44,1.49-.86,3.02-1.25,4.56-.58,2.34-1.09,4.7-1.46,6.9-.09.52-.17,1.03-.25,1.53-.7,4.74-2.41,6.65-8.03,12.75-.02.02-.05.06-.06.09-4.64,6.18-12.02,18.67-13.67,37.07-1.73,19.22-5.37,32.78-7.8,41.75-.47,1.72-.89,3.3-1.25,4.72-.19.71-.34,1.39-.48,2.02-.16.64-.28,1.23-.37,1.79-.08.46-.16.89-.2,1.3-.14,1.11-.53,2.07-1.06,2.93-.47.75-1.04,1.42-1.67,2.06-.09.09-.19.19-.28.28-.44.44-.89.86-1.34,1.27-2.46,2.26-6.23,4.76-7.48,10.65-.87,4.09-1.11,7.98,2.01,13.39.56-.02,1.1-2.4,2.52-3.77,1.98-1.91,5.39-2.74,5.19-3.58-.99-4.16-1.45-4.72-1.37-7.71s.93-5.41,4.12-9.31c2.35-2.87,4.41-6.37,5.74-9.58,2.24-5.45,3.07-11.96,4.48-18.29,5.26-23.48,8.18-38.43,22.57-59.69,2.66-3.94,5.82-7.73,7.77-11.89,3.44-7.37,2.82-15.39,2.16-23.17Z"/>
      <path class="cls-13" d="M299.01,210.36l-.03.08v-.02s.03-.03.03-.06Z"/>
      <path class="cls-22" d="M385.38,8.43c-2.65,9.03-7.82,17.55-12.95,25.97-1.14,1.87-2.27,3.74-3.58,5.53-1.53,2.12-3.3,4.14-4.78,6.28-4.31,6.26-5.95,13.31-7.46,20.26-.28,1.31-.59,2.67-1.6,3.77-.9.98-2.29,1.65-3.63,2.29-.05.02-.09.05-.14.07.12-.71.23-1.42.33-2.13.16-1.35.25-2.72.36-4.07.11-1.48.22-3.01.42-4.49,1.45-10.76,7.86-18.44,14.64-26.58,5.89-7.06,11.97-14.35,15.1-24.01l.16-.47c.73-2.23.87-2.24,1.76-2.36.44-.06.9-.08,1.39-.06Z"/>
      <path class="cls-3" d="M438.63,17.81c-4.81,4.12-15.31,11.31-23.92,20.68-10.79,11.73-14.68,25.44-15.4,26.08-.58.52-1.78.87-3.1.98l1.45-3.97c3.5-9.63,5.09-14.02,12.77-22.99,9.03-10.52,14.34-16.32,25.91-21.35.4.03,1.2.17,2.29.57Z"/>
      <path class="cls-23" d="M515.03,473.03c-2.69,16.32-4.98,30.72-6.8,42.4-.58,3.72-1.12,7.18-1.6,10.33-2.68-3.56-4.62-8.1-5.25-11.7-8.8-51.1,9.56-177.5,2.13-227.91-8.31-56.48-21.36-126.3-58.87-175.81-12.02-15.86-24.51-28.79-62.64-31.38-12.51-.85-27.39,8.99-32.54,7.69-8.08-2.05,18.29-14.47,32.53-16.4s56.65-2.56,90.21,60.58l.83,2c23.17,55.23,36.08,116.79,40.44,156,8.17,73.45,8.74,140.59,1.57,184.21Z"/>
    </g>
    <g id="Layer_2" data-name="Layer 2">
      <g>
        <ellipse class="cls-6" cx="330.76" cy="129.79" rx="9.19" ry="10.37" transform="translate(-11.1 226.62) rotate(-37.24)"/>
        <path class="cls-5" d="M331.89,139.99c-3.16,0-6.43-1.57-8.64-4.49-1.71-2.25-2.54-4.97-2.34-7.64.2-2.68,1.42-5,3.43-6.53,2.01-1.53,4.57-2.08,7.21-1.56,2.63.52,5.02,2.05,6.73,4.3s2.54,4.96,2.34,7.64c-.2,2.68-1.42,5-3.43,6.53-1.55,1.18-3.4,1.75-5.3,1.75ZM329.63,120.08c-1.83,0-3.56.56-4.99,1.65-1.9,1.44-3.05,3.63-3.24,6.17-.19,2.55.6,5.14,2.24,7.3,3.38,4.44,9.32,5.63,13.24,2.64,1.9-1.44,3.05-3.63,3.24-6.17.19-2.55-.6-5.14-2.24-7.29h0c-1.64-2.16-3.92-3.62-6.43-4.11-.61-.12-1.22-.18-1.82-.18Z"/>
      </g>
      <g>
        <polygon class="cls-18" points="70.35 359.92 70.02 360.45 70.34 359.92 70.35 359.92"/>
        <path class="cls-5" d="M70.34,359.92l-.32.53.33-.53h-.01ZM70.34,359.92l-.32.53.33-.53h-.01ZM70.34,359.92l-.32.53.33-.53h-.01ZM70.34,359.92l-.32.53.33-.53h-.01Z"/>
      </g>
      <g>
        <path class="cls-4" d="M70.18,363.32c-.49.54-11.12,12.13-12.45,13.59-1.22,1.33-1.27,2.12-1.34,3.21-.01.18-.02.38-.04.59-.12,1.28-1.65,2.36-1.68,2.38l-10.63,7.98c-.39.03-2.81.11-6.48-2.1l.02.11c.01.07.02.13.03.2-.09-.05-.18-.1-.28-.16-.25-.16-.51-.32-.78-.5-.07-.04-.14-.09-.21-.14-.07-.05-.14-.09-.21-.15l-.54-.39c-.19-.14-.37-.28-.56-.42-1.13-.87-2.35-1.95-3.63-3.28-.86-.88-1.58-1.75-2.17-2.61-.05-.07-.09-.14-.14-.21-.05-.07-.09-.14-.14-.21-.3-.46-.56-.91-.8-1.35-.05-.08-.09-.17-.13-.25h.28c-2.27-4.29-1.72-7.83-1.62-8.34l8.33-8.54c1.15-1.26,2.53-1.43,3.87-1.6l.25-.03c1.52-.19,3.18-1.79,3.25-1.85l4.38-4.06c3.22-3.07,8.47-7.58,9.92-7.58.02,0,.04.01.06.01.71.06,1.2.25,1.4.52.07.09.09.18.09.24-.12.11-.23.21-.33.3-.04.04-.08.08-.12.12-.02.01-.04.03-.05.05,0-.02.02-.03.04-.05-.02-.03-.04-.05-.07-.07-.19-.14-.5-.04-.71,0-.53.11-1.08.36-1.33.87-.17.34-.17.74-.13,1.12.16,1.6,1.04,3.04,1.99,4.34,1.52,2.09,3.27,4,5.21,5.71.41.35.82.7,1.3.97.74.41,1.6.6,2.44.76.41.07.83.15,1.23.06.41-.09.8-.37.89-.77.01-.07.02-.14.02-.21.09-.04.19-.07.28-.11.1-.04.19-.08.28-.12.55-.23,1.01-.43,1.12-.48l.07-.03.09-.14c.52,1.17-.18,2.45-.27,2.62Z"/>
        <path class="cls-5" d="M34.55,386.81c-.2-.16-.4-.33-.59-.5-.79-.68-1.59-1.43-2.38-2.24-.4-.41-.79-.84-1.14-1.27-.19-.22-.37-.45-.54-.68-.17-.22-.33-.44-.48-.67l-.19.18-.18.17c.62.9,1.35,1.78,2.17,2.61,1.04,1.07,2.09,2.04,3.12,2.88.21.17.42.33.62.49.33.26.66.5.99.73l.18-.18.18-.17c-.58-.41-1.17-.85-1.76-1.35ZM57.77,348.8s-.03.03-.04.05c0-.02.03-.04.05-.05h-.01ZM37.61,389.28c-.01-.07-.02-.13-.03-.2l-.02-.11-.1-.06c-.15-.1-.31-.2-.48-.31-.08-.05-.16-.1-.25-.16-.08-.05-.16-.1-.25-.16-.06-.04-.11-.08-.17-.12-.58-.41-1.17-.85-1.76-1.35-.2-.16-.4-.33-.59-.5-.79-.68-1.59-1.43-2.38-2.24-.4-.41-.79-.84-1.14-1.27-.19-.22-.37-.45-.54-.68-.17-.22-.33-.44-.48-.67l-.12-.17c-.06-.08-.11-.16-.16-.25-.14-.2-.27-.41-.39-.62-.13-.21-.26-.43-.38-.66l-.07-.13h-.14s-.14-.01-.14-.01c-.09,0-.18.01-.27.03.04.08.08.16.13.24.01.03.03.07.05.1.02.04.05.09.07.13.13.23.25.44.38.65.13.22.25.42.39.62.03.06.07.12.11.18.01.01.01.02.02.03h0c.05.08.1.14.15.21.62.9,1.35,1.78,2.17,2.61,1.04,1.07,2.09,2.04,3.12,2.88.21.17.42.33.62.49.33.26.66.5.99.73.07.06.14.1.21.15.01.01.03.02.04.03.06.04.12.08.17.11.25.17.49.32.73.47h0s.07.05.1.07c.05.03.11.07.16.09.09.06.18.11.27.16,0-.1-.01-.2-.02-.31ZM57.77,348.8s-.03.03-.04.05c0-.02.03-.04.05-.05h-.01ZM34.55,386.81c-.2-.16-.4-.33-.59-.5-.79-.68-1.59-1.43-2.38-2.24-.4-.41-.79-.84-1.14-1.27-.19-.22-.37-.45-.54-.68-.17-.22-.33-.44-.48-.67l-.19.18-.18.17c.62.9,1.35,1.78,2.17,2.61,1.04,1.07,2.09,2.04,3.12,2.88.21.17.42.33.62.49.33.26.66.5.99.73l.18-.18.18-.17c-.58-.41-1.17-.85-1.76-1.35Z"/>
      </g>
      <path class="cls-5" d="M37.21,391.31s-.04.04-.05.07l.07-.07h-.02Z"/>
      <g>
        <path class="cls-18" d="M36.34,388.48l-1.04,1.01c-1.24-.53-2.78-1.4-4.22-2.76-.17-.16-.33-.33-.49-.5-1.09-1.22-1.85-2.73-2.35-4.01l.86-.8c.62.93,1.38,1.87,2.3,2.82,1.8,1.85,3.45,3.22,4.94,4.24Z"/>
        <path class="cls-5" d="M35.36,389.79l-.15-.07c-1.1-.47-2.73-1.34-4.29-2.81-.18-.16-.34-.34-.5-.52-.93-1.05-1.74-2.42-2.4-4.08l-.06-.16,1.19-1.12.16.25c.64.96,1.41,1.9,2.27,2.79,1.64,1.69,3.29,3.1,4.91,4.21l.25.17-1.38,1.34ZM28.54,382.29c.62,1.54,1.38,2.8,2.24,3.77.15.17.31.33.47.49,1.44,1.35,2.94,2.18,4,2.65l.7-.68c-1.56-1.1-3.15-2.48-4.73-4.1-.81-.83-1.54-1.71-2.17-2.61l-.52.49Z"/>
      </g>
      <g>
        <path class="cls-5" d="M37.61,389.28c-.01-.07-.02-.13-.03-.2l-.02-.11-.1-.06c-.15-.1-.31-.2-.48-.31-.08-.05-.16-.1-.25-.16-.08-.06-.16-.12-.25-.17l-.17-.11-.18.17-.18.18-.7.68c-1.06-.46-2.56-1.29-4-2.64-.17-.16-.32-.32-.47-.49-.87-.97-1.62-2.24-2.25-3.77l.52-.49.18-.17.19-.18-.12-.17c-.06-.08-.11-.16-.16-.25-.14-.2-.27-.41-.39-.62-.13-.21-.26-.43-.38-.66l-.07-.13h-.14s-.14-.01-.14-.01c-.09,0-.18.01-.27.03-.5.04-.93.22-1.25.51l-.1.09c-.14.13-.3.25-.42.45,0,.01-.01.01-.01.02l-17.22,16.76-.08.08v.12c.02.16.31,4.07,3.66,7.27,3.35,3.18,6.88,3.67,7.03,3.68l.12.02,17.17-16.77.06-.05.09-.08.08-.08.05-.04c.08-.07.14-.14.21-.22,0,0,0-.01.01-.01,0,0,0-.01.01-.01.01-.03.03-.04.05-.07.32-.44.46-1.02.42-1.72,0-.1-.01-.2-.02-.31ZM19.31,408.11c-.64-.11-3.75-.78-6.64-3.54-2.89-2.76-3.41-6.17-3.48-6.83l16.76-16.31c.06.29.16.74.34,1.3l.1.31c.07.18.13.37.2.56l.05.11c.61,1.55,1.43,2.9,2.46,4.01.16.18.33.35.5.52,1.57,1.47,3.19,2.33,4.27,2.8.11.05.22.09.33.14.09.03.19.07.28.1.21.08.41.15.61.22.27.08.53.16.74.22.08.02.15.04.22.05l-16.74,16.34ZM36.61,391.24s-.07.06-.14.12h-.02s-.12-.03-.19-.05c-.05-.01-.1-.03-.16-.04-.12-.03-.26-.07-.41-.11-.15-.05-.31-.1-.49-.15-.11-.04-.24-.08-.36-.13-.25-.08-.51-.18-.77-.3-1.05-.45-2.61-1.28-4.12-2.71-.17-.15-.33-.32-.48-.49-.99-1.06-1.78-2.36-2.36-3.85l-.05-.11c-.07-.19-.13-.37-.19-.54l-.1-.3c-.17-.59-.25-1.06-.3-1.38-.02-.11-.04-.2-.05-.27h0c.08-.12.18-.21.3-.31l.11-.1c.29-.25.69-.39,1.17-.41.13.23.25.44.38.65.13.22.25.42.39.62l-.83.78.06.15c.66,1.67,1.47,3.04,2.4,4.08.16.18.33.36.51.52,1.56,1.47,3.19,2.34,4.29,2.81l.15.06,1.02-.98c.25.17.49.32.73.47h0c.09.65.07,1.47-.49,1.97Z"/>
        <path class="cls-1" d="M36.61,391.24s-.07.06-.14.12h-.02s-.12-.03-.19-.05c-.05-.01-.1-.03-.16-.04-.12-.03-.26-.07-.41-.11-.15-.05-.31-.1-.49-.15-.11-.04-.24-.08-.36-.13-.25-.08-.51-.18-.77-.3-1.05-.45-2.61-1.28-4.12-2.71-.17-.15-.33-.32-.48-.49-.99-1.06-1.78-2.36-2.36-3.85l-.05-.11c-.07-.19-.13-.37-.19-.54l-.1-.3c-.17-.59-.25-1.06-.3-1.38-.02-.11-.04-.2-.05-.27h0c.08-.12.18-.21.3-.31l.11-.1c.29-.25.69-.39,1.17-.41.13.23.25.44.38.65.13.22.25.42.39.62l-.83.78.06.15c.66,1.67,1.47,3.04,2.4,4.08.16.18.33.36.51.52,1.56,1.47,3.19,2.34,4.29,2.81l.15.06,1.02-.98c.25.17.49.32.73.47h0c.09.65.07,1.47-.49,1.97Z"/>
        <path class="cls-17" d="M36.05,391.77l-16.74,16.34c-.64-.11-3.75-.78-6.64-3.54-2.89-2.76-3.41-6.17-3.48-6.83l16.76-16.31c.06.29.16.74.34,1.3l.1.31c.07.18.13.37.2.56l.05.11c.61,1.55,1.43,2.9,2.46,4.01.16.18.33.35.5.52,1.57,1.47,3.19,2.33,4.27,2.8.11.05.22.09.33.14.09.03.19.07.28.1.21.08.41.15.61.22.27.08.53.16.74.22.08.02.15.04.22.05Z"/>
      </g>
      <g>
        <path class="cls-5" d="M334.56,127.74c-1.22-2.39-3.55-3.84-5.82-3.61l-.08.03c-.75.35-1.6.76-2.51,1.21-7.08,3.48-18.55,9.48-24.54,12.67-9.02,4.81-30.23,19.22-44.71,29.82-10.52,7.69-31.48,26.75-42.75,37-3.7,3.36-6.38,5.8-7.32,6.58-3.87,3.23-20.77,14.94-24.79,17.52-3.94,2.52-5.18,4.24-5.36,4.51,0,.01-.02.03-.02.03l-1.91,1.8-111.9,105.83c-1.02-.07-1.86.18-2.48.71-1.15,1-1.4,2.87-.69,5.29l-.04.04c-.34.29-.69.59-.96.82,0,.01-.02.02-.03.03-.02-.05-.05-.11-.09-.16-.28-.41-.88-.66-1.77-.74-2.03-.19-9.53,6.9-10.38,7.71l-4.37,4.06s-1.62,1.54-2.97,1.71l-.25.04c-1.36.16-2.9.36-4.18,1.75l-8.42,8.63-.02.07c-.03.16-.86,3.85,1.55,8.55.09-.02.18-.03.27-.03h.28c-2.27-4.29-1.72-7.83-1.62-8.34l8.33-8.54c1.15-1.26,2.53-1.43,3.87-1.6l.25-.03c1.52-.19,3.18-1.79,3.25-1.85l4.38-4.06c3.22-3.07,8.47-7.58,9.92-7.58.02,0,.04.01.06.01.71.06,1.2.25,1.4.52.07.09.09.18.09.24-.12.11-.23.21-.33.3-.04.04-.08.08-.12.12-.02.01-.04.03-.05.05-.06.05-.11.11-.16.16-.29.31-.46.56-.57.76-.02.05-.04.09-.05.13-.07.19-.07.32-.06.43.13,1.02,3.14,5.53,4.26,6.82,1,1.16,5.04,4.91,5.96,4.91h.04s.09-.01.14-.03c.05-.01.11-.02.17-.04.31-.09.73-.24,1.15-.41.09-.04.19-.07.28-.11.1-.04.19-.08.28-.12.55-.23,1.01-.43,1.12-.48l.07-.03.09-.14c.52,1.17-.18,2.45-.27,2.62-.49.54-11.12,12.13-12.45,13.59-1.22,1.33-1.27,2.12-1.34,3.21-.01.18-.02.38-.04.59-.12,1.28-1.65,2.36-1.68,2.38l-10.63,7.98c-.39.03-2.81.11-6.48-2.1l.02.11c.01.07.02.13.03.2,0,.11.02.21.02.31,3.06,1.77,5.22,1.99,6.1,1.99.27,0,.42-.02.45-.02l10.79-8.07c.07-.04,1.73-1.22,1.88-2.73.02-.22.03-.42.04-.61.07-1.03.11-1.71,1.21-2.9,1.36-1.49,12.46-13.61,12.46-13.61l.03-.04c.05-.08,1.12-1.84.16-3.39l.04-.07c1.27.6,2.41.91,3.39.91.86,0,1.59-.24,2.15-.73,1.02-.87,1.33-2.42.91-4.46l113.52-107.35.12-.12s.1-.12.26-.31c2.24-2.71,18.62-22.53,22.73-28.06,4.05-5.47,30.79-27.98,45.16-40.07l3.52-2.96c13.24-11.17,36.73-25.01,46.77-30.92,7.03-4.14,15.52-7.77,21.4-10.08,1.16-.45,2.19-.84,3.03-1.16l.09-.05c1.69-1.64,1.99-4.53.72-7.04ZM70.02,360.45c-.36.15-.97.42-1.56.65-.58.23-1.13.43-1.37.46-.57-.03-4.28-3.25-5.56-4.74-1.24-1.42-4.05-5.77-4.15-6.56,0-.05,0-.16.14-.38.03-.05.07-.12.13-.19.09-.13.22-.28.4-.46.15-.16.35-.34.58-.54l.06-.05c.07-.06.15-.12.23-.19.26-.22.59-.51.93-.79,0,.03.02.06.04.1.07.24.16.48.26.72.1.25.21.51.33.77.07.17.15.34.24.5.08.18.17.35.26.53.02.03.04.07.06.1.15.28.3.56.47.83.52.88,1.14,1.77,1.82,2.63.24.31.49.62.75.92.4.46.81.91,1.23,1.33h.01c.43.43.85.83,1.29,1.21.22.21.45.4.68.58.35.29.7.56,1.06.81.2.14.4.28.6.41.47.31.93.58,1.39.82h.01l-.33.53ZM76.79,355.59l-.1.1.03.13c.42,1.9.16,3.37-.72,4.13-1,.86-2.79.78-4.94-.23-.08-.04-.17-.08-.25-.12-.82-.4-1.66-.92-2.49-1.56-.01-.01-.03-.01-.04-.02-1.31-.97-2.61-2.19-3.82-3.58-2.04-2.37-3.55-4.96-4.25-7.29-.71-2.3-.53-4.05.48-4.93.47-.4,1.1-.6,1.86-.6.12,0,.24,0,.37.01h.11s111.89-105.81,111.89-105.81l1.75-1.65c.02.18.05.42.09.69.03.13.05.27.08.43.03.15.07.31.11.48.03.16.08.34.13.52.04.18.1.37.16.56.06.19.12.38.2.59.07.2.15.41.23.62,0,.01,0,.02,0,.04.09.2.17.4.26.6.1.22.21.46.34.69.1.21.22.42.34.63.13.22.27.45.42.67.15.23.3.45.47.67.11.15.23.31.36.47.08.1.17.2.26.3.16.2.34.39.52.58.2.2.4.4.62.6.66.6,1.34,1.14,2,1.62.02.01.04.03.06.04.15.1.29.2.43.3l.02.02c.27.18.54.36.81.52.26.16.51.31.76.46.67.38,1.31.7,1.89.97.6.28,1.14.5,1.61.67.26.1.5.18.71.25.25.09.46.15.63.2l-113.4,107.23ZM333.53,134.38c-.84.32-1.85.7-2.99,1.14-5.9,2.32-14.42,5.96-21.48,10.12-10.04,5.92-33.56,19.77-46.84,30.96l-3.51,2.97c-14.39,12.1-41.16,34.64-45.25,40.15-4.21,5.68-21.39,26.45-22.87,28.23-.02-.01-.05-.01-.08-.02-.32-.09-.96-.28-1.82-.61-.26-.1-.54-.22-.84-.35-.07-.03-.14-.07-.22-.1-.08-.04-.17-.08-.26-.12-.12-.05-.24-.11-.37-.17s-.26-.13-.39-.2c-.24-.12-.49-.25-.74-.39-.2-.12-.41-.23-.62-.36-1.17-.7-2.42-1.58-3.64-2.69-.14-.12-.27-.25-.39-.37-.15-.15-.29-.29-.42-.44-.11-.11-.2-.21-.29-.32-.45-.52-.84-1.05-1.17-1.57-.17-.26-.33-.52-.47-.78-.07-.14-.14-.27-.2-.4-.08-.13-.14-.26-.19-.39-.08-.15-.14-.29-.2-.43-.1-.24-.2-.47-.28-.69-.04-.12-.08-.23-.12-.34-.04-.11-.07-.22-.11-.33,0-.01-.01-.02-.01-.04-.04-.11-.07-.23-.1-.34-.03-.08-.06-.16-.07-.24-.03-.1-.06-.2-.08-.3-.13-.48-.21-.91-.26-1.26-.02-.11-.03-.2-.04-.29-.02-.1-.03-.2-.04-.28-.01-.05-.01-.1-.01-.15-.02-.12-.03-.21-.03-.27h0c.25-.36,1.55-2,5.18-4.33,4.03-2.59,20.96-14.31,24.84-17.56.95-.79,3.63-3.22,7.34-6.59,11.25-10.24,32.21-29.29,42.71-36.97,14.46-10.58,35.64-24.98,44.65-29.78,5.98-3.19,17.44-9.19,24.52-12.66.9-.44,1.73-.84,2.47-1.19,2.03-.2,4.16,1.15,5.28,3.34,1.16,2.3.91,4.92-.59,6.41Z"/>
        <path class="cls-20" d="M74.23,354.26c.42,1.9.16,3.37-.72,4.13-1,.86-2.79.78-4.94-.23-.08-.04-.17-.08-.25-.12-.01-.01-.03-.01-.04-.02-1.31-.97-2.61-2.19-3.82-3.58-2.04-2.37-3.55-4.96-4.25-7.29-.71-2.3-.53-4.05.48-4.93.47-.4,1.1-.6,1.86-.6.12,0,.24,0,.37.01h.11s111.89-105.81,111.89-105.81l1.75-1.65c.02.18.05.42.09.69.03.13.05.27.08.43.03.15.07.31.11.48.03.16.08.34.13.52.04.18.1.37.16.56.06.19.12.38.2.59.07.2.15.41.23.62,0,.01,0,.02,0,.04.09.2.17.4.26.6.1.22.21.46.34.69.1.21.22.42.34.63.13.22.27.45.42.67.15.23.3.45.47.67.11.15.23.31.36.47.08.1.17.2.26.3.16.2.34.39.52.58.2.2.4.4.62.6.66.6,1.34,1.14,2,1.62.02.01.04.03.06.04.15.1.29.2.43.3l.02.02c.27.18.54.36.81.52.26.17.51.32.76.46.67.38,1.31.7,1.89.97l-112.94,106.79-.1.1.03.13Z"/>
        <polygon class="cls-5" points="70.35 359.92 70.02 360.45 70.34 359.92 70.35 359.92"/>
        <path class="cls-6" d="M76.72,355.82c.42,1.9.16,3.37-.72,4.13-1,.86-2.79.78-4.94-.23-.08-.04-.17-.08-.25-.12-.82-.4-1.66-.92-2.49-1.56.08.04.17.08.25.12,2.15,1.01,3.94,1.09,4.94.23.88-.76,1.14-2.23.72-4.13l-.03-.13.1-.1,112.94-106.79c.6.28,1.14.5,1.61.67.26.1.5.18.71.25.25.09.46.15.63.2l-113.4,107.23-.1.1.03.13Z"/>
        <path class="cls-20" d="M70.34,359.92l-.32.53c-.36.15-.97.42-1.56.65-.58.23-1.13.43-1.37.46-.57-.03-4.28-3.25-5.56-4.74-1.24-1.42-4.05-5.77-4.15-6.56,0-.05,0-.16.14-.38.03-.06.08-.12.13-.19.09-.13.22-.28.4-.46.15-.16.35-.34.58-.54l.06-.05c.07-.06.15-.12.23-.19.26-.22.59-.51.93-.79,0,.03.02.06.04.1.07.24.16.48.26.72.1.25.21.51.33.77.07.17.15.34.24.5.08.18.17.35.26.53.02.03.04.07.06.1.15.28.3.56.47.83.52.88,1.14,1.77,1.82,2.63.24.31.49.62.75.92.4.46.81.91,1.23,1.33h.01c.43.43.85.83,1.29,1.21.22.21.45.4.68.58.35.29.7.56,1.06.81.2.14.4.28.6.41.47.31.93.58,1.39.82Z"/>
      </g>
      <path class="cls-18" d="M333.53,134.38c-.84.32-1.85.7-2.99,1.14-5.9,2.32-14.42,5.96-21.48,10.12-10.04,5.92-33.56,19.77-46.84,30.96l-3.51,2.97c-14.39,12.1-41.16,34.64-45.25,40.15-4.21,5.68-21.39,26.45-22.87,28.23-.02-.01-.05-.01-.08-.02-.32-.09-.96-.28-1.82-.61-.26-.11-.54-.22-.84-.35-.07-.03-.14-.07-.22-.1-.08-.04-.17-.08-.26-.12-.12-.05-.24-.11-.37-.17s-.26-.13-.39-.2c-.24-.12-.49-.25-.74-.39-.2-.12-.41-.23-.62-.36-1.17-.7-2.42-1.58-3.64-2.69-.14-.12-.27-.25-.39-.37-.15-.15-.29-.29-.42-.44-.11-.11-.2-.21-.29-.32-.45-.52-.84-1.05-1.17-1.57-.17-.26-.32-.52-.47-.78-.07-.14-.14-.27-.2-.4-.07-.13-.13-.26-.19-.39-.08-.15-.14-.29-.2-.43-.1-.24-.19-.47-.28-.69-.04-.12-.08-.23-.12-.34-.04-.11-.07-.22-.11-.33,0-.01-.01-.02-.01-.04-.04-.11-.07-.23-.1-.34-.03-.08-.06-.16-.07-.24-.03-.1-.06-.2-.08-.3-.13-.48-.21-.91-.26-1.26-.02-.11-.03-.2-.04-.29-.02-.1-.03-.2-.04-.28-.01-.05-.01-.1-.01-.15-.02-.12-.03-.21-.03-.27h0c.25-.36,1.55-2,5.18-4.33,4.03-2.59,20.96-14.31,24.84-17.56.95-.79,3.63-3.22,7.34-6.59,11.25-10.24,32.21-29.29,42.71-36.97,14.46-10.58,35.64-24.98,44.65-29.78,5.98-3.19,17.44-9.19,24.52-12.66.9-.44,1.73-.84,2.47-1.19,2.03-.2,4.16,1.15,5.28,3.34,1.16,2.3.91,4.92-.59,6.41Z"/>
      <path class="cls-6" d="M333.53,134.42c-.85.32-1.86.65-3.03,1.11-5.57,2.19-14.26,5.98-21.41,10.2-11.48,6.76-33.86,19.98-46.85,30.93-12.99,10.95-44.29,37.03-48.72,43.01-4.43,5.98-22.9,28.25-22.9,28.25,0,0-3.6-.72-2.8-1.7,4.14-5.04,22.01-26.26,26.32-31.79,4.98-6.39,39.65-33.89,54.04-45.42,14.39-11.53,38.94-25.17,51.55-32.14,4.84-2.68,10.13-5.1,15.03-7.09.35,1.88-.05,3.51-1.24,4.65Z"/>
      <path class="cls-25" d="M41.97,366.83c2.43,3.56,5.41,6.93,9.33,8.71.37.17.75.32,1.07.56,1.03.76,1.29,2.18,1.26,3.45-.42,0-.83-.14-1.23-.28-6.33-2.26-11.67-7.18-14.44-13.3-.29-.64-.55-1.29-.71-1.98-.07-.31-.09-.69.17-.87.08-.05.17-.08.26-.1.87-.22,2.14-.31,2.59.57.57,1.11.97,2.2,1.69,3.25Z"/>
      <g>
        <path class="cls-25" d="M68.61,361.58c0,.07-.01.14-.02.21-.09.4-.48.68-.89.77-.4.09-.82.01-1.23-.06-.84-.16-1.7-.35-2.44-.76-.48-.27-.89-.62-1.3-.97-1.94-1.71-3.69-3.62-5.21-5.71-.95-1.3-1.83-2.74-1.99-4.34-.04-.38-.04-.78.13-1.12.25-.51.8-.76,1.33-.87.21-.04.52-.14.71,0,.03.02.05.04.07.07-.02.02-.03.03-.04.05-.06.05-.11.11-.16.16-.29.31-.46.56-.57.76-.02.05-.04.09-.05.13-.07.19-.07.32-.06.43.13,1.02,3.14,5.53,4.26,6.82,1,1.16,5.04,4.91,5.96,4.91h.04s.09-.01.14-.03c.05-.01.11-.02.17-.04.31-.09.73-.24,1.15-.41Z"/>
        <path class="cls-7" d="M57.78,348.8s-.04.03-.05.05c0-.02.02-.03.04-.05h.01Z"/>
      </g>
      <path class="cls-15" d="M31.98,368.76c.45-.39.79-.89,1.17-1.35.39-.47.82-.91,1.29-1.3.17-.14.36-.29.58-.3.31-.01.57.24.75.49.99,1.35,1.18,3.24,2.44,4.35.06.05.12.1.14.17.04.12-.05.24-.13.33-2.24,2.59-4.9,4.76-7.58,6.89-.15.12-.34.25-.52.19-.15-.04-.37-.96-.42-1.12-.13-.39-.25-.78-.36-1.18-.21-.81-.37-1.63-.46-2.45-.08-.67-.28-1.64-.09-2.3.16-.55.8-.97,1.26-1.24.65-.39,1.36-.69,1.94-1.19Z"/>
      <path class="cls-16" d="M36.89,385.26c.34-.65.93-1.13,1.47-1.63,1.89-1.72,3.43-3.8,5.27-5.58.3-.29.65-.58,1.06-.57.31.01.58.2.84.36.46.29.94.53,1.43.77,1.33.66,2.66,1.32,4.09,1.73.25.07.51.14.73.29s.38.41.34.67c-.02.15-.11.28-.2.41-.68.97-1.53,1.85-2.55,2.46-.53.32-1.1.56-1.62.88-1.24.77-2.16,1.96-3.28,2.9-.24.2-.49.39-.78.49-.34.12-.72.12-1.08.08-1.24-.11-2.44-.5-3.63-.88-.85-.28-1.72-.56-2.45-1.08-.21-.15-.42-.35-.43-.6,0-.26.21-.46.4-.62.39-.33.77-.67,1.16-1"/>
    </g>
  </g>
</svg>