<?xml version="1.0" encoding="UTF-8"?>
<svg id="Layer_1" data-name="Layer 1" xmlns="http://www.w3.org/2000/svg" viewBox="0 0 1242.87 630" transform="translate(-10 -10)">
  <defs>
    <style>
      text {
        font-family: serif;
        font-size: 30px;
      }
      #pressure text {
        font-size: 24px;
      }
      .heading {
        font-size: 50px;
      }

      .bold {
        font-weight: bold;
      }
      .fill-red {
        fill: red;
      }

      .fill-blue {
        fill: #5475a8;
      }

    </style>
  </defs>
  <rect x="247.24" y="213.51" width="535.05" height="5"/>
  <path d="M353.57,589.72v3.74s112.51,1.05,112.51,1.05v-3.69l-112.51-1.1ZM311.1,445.52l-3.48-1.69c0,13.3.32,42.14.68,70.95l3.65-.07c-.45-27.99-.85-56.17-.85-69.19ZM1045.68,349.6l-2.09-.1-32.02,4.77c-.6.2-1.79.8-1.69,1.29l.59,2.59,23.27-3.18c1.5-.6,1.89-.3.6,1.09l-86.03,65.34-38.68,29.44-48.54,34.01c-37.69,25.46-76.28,47.34-117.35,65.94-12.53,5.57-24.27,10.74-37.69,14.92,22.17-14.72,39.08-33.92,45.15-59.97,6.56-27.85,2.68-56.69-9.55-82.85,13.23-4.07,13.82-19.09,18.3-17.4,3.48,1.39,4.57,10.84,12.53,7.95,2.98-.99,5.07-4.87,4.48-8.75l-1.3-9.15c-.39-2.38,3.09-5.07,5.18-5.17,5.86-.1,5.86,12.23,16.11,10.84,4.07-.49,8.45-3.88,8.65-8.65l.3-9.75c.2-4.67,2.28-9.34,7.46-10.34,5.27-1.09,5.96,8.16,11.14,9.45,2.68.69,5.96.1,8.15-1.29,4.48-2.99,5.57-8.56,4.48-13.63-1.2-5.27,1.09-8.75,6.26-10.64l24.76-9.05c3.49,2.29,8.06,3.88,12.74,2.39,12.72-4.28,34.41-16.71,32.32-29.94,5.67-4.08,9.84-9.45,10.94-16.61l5.87-36.7c12.03,1.49,23.86-3.18,31.42-10.64,9.45-9.35,13.43-21.68,11.54-34.01-1.99-12.63-10.05-22.88-19.69-27.95-12.53-6.66-25.96-6.06-37.6.4-14.52,8.06-21.68,24.17-18.69,40.78,2.48,14.42,13.82,26.85,29.24,30.73l-6.07,38.19c-.9,5.47-4.58,10.54-9.55,12.33-3.18-2.98-7.46-4.68-11.93-3.18-11.24,3.78-21.29,10.24-29.64,18.79-3.18,3.29-3.88,7.46-2.98,12.14l-25.46,9.54c-13.93,5.28-2.29,18.7-10.05,24.07-1.09.7-3.38,1.39-4.47,1.2-3.58-1-4.88-12.34-14.62-9.75-5.47,1.49-8.75,6.66-8.95,12.23l-.5,10.74c-.1,2.79-3.58,5.37-6.07,5.57-7.16.6-6.66-11.83-15.91-10.64-3.38.4-7.06,3.08-8.06,7.16-1.49,6.86,4.88,14.62-1.79,16.21-4.27,1-4.07-9.15-11.13-8.55-8.06.6-6.47,14.72-19.4,17.8-10.44-20.19-24.76-37.19-42.07-52.11-35.5-30.53-78.96-49.43-125.51-55.9-48.03-6.66-95.93-.57-122.93,4s-69.63,16.36-78.13,21.68l.51,4.26c7.16-6.06,38.59-14.14,72.96-21.32,35.29-7.38,93.98-12.49,143.61-2.15,36.3,7.66,69.91,22.67,98.95,45.45,42.27,33.12,70.91,79.66,62.06,134.66-6.07,37.89-36.4,64.54-71.31,76.88-29.93,10.64-61.06,15.41-92.99,16.31l.04,3.48c27.15.1,52.28-3.98,78.33-11.14,71.01-19.49,139.04-54.7,199.9-95.87l48.64-33.92,40.47-30.73,86.03-65.34-9.45,22.97,3.58,1.2,12.93-31.03c.3-.6.7-1.39.4-1.39ZM923.75,261.18c-19-6.66-28.05-26.55-21.98-44.65,5.97-17.9,25.56-28.25,44.16-21.98,18.69,6.26,27.94,25.96,22.18,44.06-5.87,18.1-25.37,29.14-44.36,22.57ZM899.68,316.48c3.18-1.49,7.06.4,8.85,2.98,4.28,6.47-5.57,14.22-13.62,19.49l-9.55-15.81,14.32-6.66ZM882.38,325.43l9.54,15.22c-7.65,4.77-18.2,8.95-21.88,2.88-3.68-5.97,4.88-13.13,12.34-18.1Z"/>
  <path class="fill-red" d="M220.11,184.51c.29,1.14-.62,3.61-1.72,5.65l-10.31-5.6,1.19,11.54-6,.39-.03-12.16-9.62,6.83-3.28-5.44,10.87-5.09-10.15-4.97c-1.47-.72,1.27-6.17,2.64-5.33l9.36,5.71-1.34-11.53,6.46-.89-.49,12.44,9.91-7.08,2.65,5.88-10.26,5.27,10.13,4.38Z"/>
  <path class="fill-red" d="M832.1,184.51c.29,1.14-.62,3.61-1.72,5.65l-10.31-5.6,1.19,11.54-6,.39-.03-12.16-9.62,6.83-3.28-5.44,10.87-5.09-10.15-4.97c-1.47-.72,1.27-6.17,2.64-5.33l9.36,5.71-1.34-11.53,6.46-.89-.49,12.44,9.91-7.08,2.65,5.88-10.26,5.27,10.13,4.38Z"/>
  <rect  x="307.38" y="216.01" width="4" height="122.85"/>
  <path d="M309.38,450.49l-65.6-113.63h131.21l-65.6,113.63ZM250.71,340.85l58.68,101.63,58.68-101.63h-117.35Z"/>
  <path d="M358.14,593.51h-96.48l48.24-83.55,48.24,83.55ZM268.59,589.51h82.62l-41.31-71.55-41.31,71.55Z"/>

  <text class="heading" transform="translate(244.01 198.43)">CENTRIFUGAL PUMPS</text>

  
  <text class="fill-blue bold" transform="translate(377.49 560.14)">3</text>
  

  <g id="pressure">
    <text transform="translate(891.92 213.14) rotate(-65.89)">P</text>
    <text transform="translate(897.56 199.47) rotate(-45.77)">R</text>
    <text transform="translate(908.64 187.79) rotate(-25.68)">E</text>
    <text transform="translate(921.85 181.1) rotate(-6.25)">S</text>
    <text transform="translate(936.52 179.19) rotate(12.95)">S</text>
    <text transform="translate(951.02 182.06) rotate(33.18)">U</text>
    <text transform="translate(964.68 190.59) rotate(54.07)">R</text>
    <text transform="translate(974.3 203.51) rotate(74.28)">E</text>
    <path d="M938.79,226.19c.68,7.74,5.89,9.41,4.4,10.43l-2.84,1.94c-.63.43-1.84-1.61-2.23-2.47-2.72-6.03-9.02-3.19-7.31-10.1l-10.44-18.12,13.47,15.2c1.9.13,4.83,1.67,4.95,3.12Z"/>
  </g>

  <g id="autoclamp-grp">
    <rect class="fill-blue" id="autoclamp" x="852.64" y="448.51" width="67.92" height="44.48" transform="translate(-112.49 568.12) rotate(-33.53)"/>
    <text class="fill-blue" transform="translate(896.28 522.39)">AUTO CLAMP</text>
    <text class="fill-blue bold" transform="translate(931.79 493.7)">2</text>
  </g>

  <g id="clamp-1">
    <text class="fill-blue bold" transform="translate(982.95 429.27)">1</text>
    <rect class="fill-blue" x="925.02" y="419.62" width="45.79" height="7"/>
    <rect class="fill-blue" x="945.06" y="399.42" width="7" height="45.79"/>
  </g>
    
  <g>
    <rect class="fill-blue" x="362.89" y="587.63" width="45.79" height="7" transform="translate(-304.15 446.5) rotate(-45.08)"/>    
    <rect class="fill-blue" x="382.68" y="566.74" width="7" height="45.79" transform="translate(-304.47 445.71) rotate(-45.08)"/>
  </g>
  
  <g>
    <rect class="fill-blue" x="396.34" y="320.56" width="45.79" height="7" transform="translate(-58.41 549.85) rotate(-63.02)"/>
    <rect class="fill-blue" x="416.19" y="300.01" width="7" height="45.79" transform="translate(-59.27 549.15) rotate(-63.03)"/>
  </g>

  <text transform="translate(1038.94 331.62)">PATIENT</text>
  <text transform="translate(468.87 298.12)">RECIR.</text>

  <g id="oxy">
    <text transform="translate(494.69 601.19)">OXY</text>
    <path d="M586.85,625.67h-122.2v-69.58h122.2v69.58ZM468.65,621.67h114.2v-61.58h-114.2v61.58Z"/>
  </g>
    
  <g>
    <rect class="fill-blue" x="287.07" y="267.65" width="45.79" height="7" transform="translate(-99.84 298.75) rotate(-45.08)"/>
    <rect class="fill-blue" x="306.86" y="246.76" width="7" height="45.79" transform="translate(-100.17 297.97) rotate(-45.08)"/>
  </g>
</svg>