<?xml version="1.0" encoding="UTF-8"?>
<svg xmlns="http://www.w3.org/2000/svg" xmlns:xlink="http://www.w3.org/1999/xlink" viewBox="0 0 1893.31 693.36">
  <defs>
    <style>
      .cls-1, .cls-2, .cls-3, .cls-4, .cls-5, .cls-6, .cls-7, .cls-8, .cls-9, .cls-10, .cls-11, .cls-12, .cls-13, .cls-14, .cls-15, .cls-16, .cls-17, .cls-18, .cls-19, .cls-20, .cls-21, .cls-22, .cls-23, .cls-24, .cls-25, .cls-26, .cls-27, .cls-28, .cls-29, .cls-30, .cls-31, .cls-32, .cls-33, .cls-34, .cls-35 {
        stroke-miterlimit: 10;
      }

      .cls-1, .cls-5, .cls-6, .cls-12, .cls-15, .cls-16, .cls-18, .cls-20, .cls-23, .cls-24, .cls-29, .cls-31, .cls-32, .cls-34 {
        stroke: #231f20;
      }

      .cls-1, .cls-36 {
        fill: #9b9b9b;
      }

      .cls-2, .cls-3, .cls-4, .cls-7, .cls-8, .cls-9, .cls-10, .cls-11, .cls-14, .cls-19, .cls-21, .cls-22, .cls-25, .cls-26, .cls-27, .cls-28, .cls-33, .cls-35 {
        stroke: #000;
      }

      .cls-2, .cls-4, .cls-37, .cls-13, .cls-17, .cls-19, .cls-30, .cls-34 {
        fill: none;
      }

      .cls-3 {
        fill: #fafbfb;
      }

      .cls-4 {
        stroke-linecap: round;
      }

      .cls-4, .cls-19 {
        stroke-width: 6px;
      }

      .cls-5 {
        fill: url(#linear-gradient);
      }

      .cls-6 {
        fill: #fff;
      }

      .cls-7 {
        fill: #e4e4e4;
      }

      .cls-38 {
        fill: #917095;
      }

      .cls-38, .cls-12, .cls-29 {
        mix-blend-mode: multiply;
      }

      .cls-38, .cls-39 {
        opacity: .5;
      }

      .cls-8 {
        fill: #e1e1e1;
      }

      .cls-9 {
        fill: #020202;
      }

      .cls-40 {
        fill: #e3a49a;
      }

      .cls-10 {
        fill: #e9e9e8;
      }

      .cls-11 {
        fill: #d6d6d6;
      }

      .cls-12 {
        fill: url(#radial-gradient-2);
      }

      .cls-12, .cls-29 {
        opacity: .6;
      }

      .cls-13 {
        stroke: #febc12;
      }

      .cls-13, .cls-17, .cls-30 {
        stroke-width: 5px;
      }

      .cls-41 {
        isolation: isolate;
      }

      .cls-14 {
        fill: #ed1f24;
      }

      .cls-39 {
        mix-blend-mode: overlay;
      }

      .cls-39, .cls-16 {
        fill: #e5b7a3;
      }

      .cls-15 {
        fill: #c6c4c4;
      }

      .cls-42 {
        fill: #83332b;
      }

      .cls-17 {
        stroke: #85b556;
      }

      .cls-43 {
        fill: #666;
      }

      .cls-18 {
        fill: #e6e7e8;
      }

      .cls-20 {
        fill: #d0d2d3;
      }

      .cls-21 {
        fill: #040504;
      }

      .cls-22 {
        fill: #f1eff0;
      }

      .cls-23 {
        fill: url(#linear-gradient-3);
      }

      .cls-24 {
        fill: #f05960;
      }

      .cls-25 {
        fill: #b3b3b3;
      }

      .cls-26 {
        fill: #c7c7c6;
      }

      .cls-44 {
        fill: #644642;
      }

      .cls-27 {
        fill: #f8f8f8;
      }

      .cls-28 {
        fill: #fbfcfd;
      }

      .cls-29 {
        fill: url(#radial-gradient);
      }

      .cls-30 {
        stroke: #aaa88d;
      }

      .cls-31 {
        fill: #231f20;
      }

      .cls-32 {
        fill: url(#linear-gradient-2);
      }

      .cls-33 {
        fill: #83332b;
      }

      .cls-45 {
        fill: #b27d77;
      }

      .cls-35 {
        fill: #3c65af;
      }
    </style>
    <linearGradient id="linear-gradient" x1="717.14" y1="176.06" x2="728.23" y2="188.63" gradientTransform="translate(432.53 -555.49) rotate(51.86)" gradientUnits="userSpaceOnUse">
      <stop offset="0" stop-color="#9f0d10"/>
      <stop offset=".18" stop-color="#bb1317"/>
      <stop offset=".39" stop-color="#d6191e"/>
      <stop offset=".57" stop-color="#e61c22"/>
      <stop offset=".71" stop-color="#ec1e24"/>
    </linearGradient>
    <linearGradient id="linear-gradient-2" x1="709.68" y1="202.75" x2="699.26" y2="192.64" gradientTransform="translate(432.53 -555.49) rotate(51.86)" gradientUnits="userSpaceOnUse">
      <stop offset="0" stop-color="#fff"/>
      <stop offset=".42" stop-color="#fcfcfc"/>
      <stop offset=".64" stop-color="#f4f5f5"/>
      <stop offset=".81" stop-color="#e7e8e9"/>
      <stop offset=".96" stop-color="#d4d6d7"/>
      <stop offset=".99" stop-color="#d0d2d3"/>
    </linearGradient>
    <linearGradient id="linear-gradient-3" x1="700.46" y1="212.19" x2="691.24" y2="203.24" xlink:href="#linear-gradient-2"/>
    <radialGradient id="radial-gradient" cx="710.06" cy="183.52" fx="710.06" fy="183.52" r="10.86" gradientTransform="translate(432.53 -555.49) rotate(51.86)" gradientUnits="userSpaceOnUse">
      <stop offset="0" stop-color="#231f20"/>
      <stop offset=".09" stop-color="#272324"/>
      <stop offset=".18" stop-color="#332f30"/>
      <stop offset=".28" stop-color="#484445"/>
      <stop offset=".38" stop-color="#656262"/>
      <stop offset=".48" stop-color="#8a8888"/>
      <stop offset=".58" stop-color="#b7b6b6"/>
      <stop offset=".68" stop-color="#ececec"/>
      <stop offset=".71" stop-color="#fff"/>
    </radialGradient>
    <radialGradient id="radial-gradient-2" cx="718.96" cy="191.29" fx="718.96" fy="191.29" r="8.79" gradientTransform="translate(432.53 -555.49) rotate(51.86)" gradientUnits="userSpaceOnUse">
      <stop offset=".04" stop-color="#231f20"/>
      <stop offset=".17" stop-color="#272324"/>
      <stop offset=".29" stop-color="#332f30"/>
      <stop offset=".42" stop-color="#484445"/>
      <stop offset=".56" stop-color="#656262"/>
      <stop offset=".69" stop-color="#8a8888"/>
      <stop offset=".82" stop-color="#b7b6b6"/>
      <stop offset=".96" stop-color="#ececec"/>
      <stop offset="1" stop-color="#fff"/>
    </radialGradient>
  </defs>
  <g class="cls-41">
    <g id="Heart_Color" data-name="Heart Color">
      <path class="cls-40" d="M1285.84,537.7c-.04,16.18-1.68,38.46-6.81,53.82-5.03,15.01-16.29,31.65-33.04,35.86-9.05,2.28-22.31.25-31.51-1.21-16.04-2.6-31.97-5.13-47.65-8.27.11.43.18.82.25,1.25,3.96,23.52,6.17,43.41,7.91,65.01-25.13-11.37-37.6-13.79-60.49-19.21.39-12.47-5.99-62.05-5.99-62.05l.11-1.07c-4.53-1.68-8.98-3.53-13.4-5.52v.68s5.88,49.08,2.49,63.94c-22.88-6.52-51.08-15.83-51.08-15.83l1.46-76.42c-4.95-3.71-9.2-8.02-12.94-14.9-4.06-7.48-5.38-16.29-8.48-25.59-8.77-9.34-21.81-22.81-26.02-34.25-12.83-35-14.36-82.23-2.82-120.9,11.55-38.64,17.5-47.26,27.62-73.32,2.53-41.56,11.37-96.56-6.2-157.22-11.65-40.17-39.6-83.8-55.57-106.04,8.59-4.6,27.41-13.44,32.61-18,6.67,12.44,15.4,36.39,18.11,32.19,6.27-9.91,10.55-22.7,14.08-37.42h16.86c1.18,0,2.32.04,3.49.11,3.92.25,7.91,1,12.08,2.07,2.64.68,5.35,1.46,8.16,2.35-1.57,8.09-5.35,27.69-6.88,40.2-1.43,11.76,7.31,31.97,13.94,39.88,13.29-12.37,21.03-19.89,34.89-31.15,5.85-4.78,14.08-14.56,20.24-18.3,2.6-9.69,9.8-28.75,14.4-35.98,8.27-1.68,12.12-1.18,16,.07-3.46,5.42-8.35,20.14-9.46,26.52,7.79-2.68,13.48-3.65,17.44-4.54,1.53-4.21,5.64-12,6.7-15.14,8.8.96,16.89,3.42,23.81,10.27-1.07,1.43-3.44,4.19-5.33,6.15,16.36-1.43,31.56,5.28,45.42,9.02-1.53,3.92-1.67,12.31-3.95,18.69-13.47-6.42-38.49-10.91-56.96-5.56-3.64,6.74-7.38,9.23-10.34,23.88-4.03,19.67-2.42,28.19,9.27,44.55,10.3,14.44,16.57,34,20.78,51.22,2.67,10.84,5.6,21.85,8.2,34.54,7.27,0,35.86-.25,41.42.93,3.96,10.8,7.7,42.7,3.81,42.09-5.6-.89-28.23,5.1-34.61,9.48.89,10.37,0,18.46-.75,30.87,11.44,7.02,22.28,20.78,28.44,33.68,5.17,10.87,5.38,16.79,3.1,28.37-.71,3.6-8.38,10.76-8.45,14.4-.07,2.42,9.02,15.18,9.69,17.46,9.98,34.29,19.6,53.5,29.58,87.79,5.81,19.89,6.38,39.85,6.31,60.56Z"/>
      <path class="cls-45" d="M1287.83,535.57c-.65,95.55-36.01,100.34-119.01,80.2.11.43-58.31-15.01-58.31-15.01l-13.29-5.92c-24.63-15.82-64.94-30.3-67.47-65.44,24.41,23.47,99.78,44.44,127.23,44.9,39.64.66,78.56,3.58,97.68-35.22s-.71-106.49-16.31-167.95c-.6-2.36,1.98-3.72,4.03-.71,24.25,53.05,44.7,106.01,45.47,165.15Z"/>
      <line class="cls-40" x1="1421.71" y1="587.85" x2="1420" y2="586.82"/>
      <polygon class="cls-45" points="1173.85 681.41 1153.07 675.03 1132.4 668.65 1114.51 663.16 1108.52 601.11 1167.93 617.36 1173.85 681.41"/>
      <path class="cls-45" d="M1097.97,659.21c-3.1-.89-13.65-4.1-24.52-7.38-4.81-1.46-9.73-2.92-14.04-4.21-8.13-2.46-14.26-4.31-14.26-4.31l3.14-75.7s43.84,27.55,47.08,28.8c2.25,23.49,4.38,41.13,2.6,62.8Z"/>
      <path class="cls-38" d="M1249.94,351.36c-.67,7.17-1.7,15.61-11.6,19.78-8.73,3.71-17.85,5.48-26.55,1.74-9.12-3.96-13.94-15.77-14.06-26.39-.11-9.96,1.12-17.98,2.68-28.29,1.19-7.79,2.96-20.26,4.84-28.68,6.18,1.6,13.71,5.19,23.34,11.2,8.84,8.07,13.22,18.53,16.21,25.77,2.99,7.27,5.87,17.08,5.14,24.88Z"/>
      <path class="cls-38" d="M1102.7,332.23c-4.24,9.48-20.02,15.38-31.14,20.71-28.17,13.53-42.04,27.35-47.38,58.18-5.52,31.79-6.94,40.07-5,72.3.78,13.03,3.25,25.02,6.08,42.97-14.91-12.69-39-47.09-34.42-104.75,3.6-45.28,2.32-38.22,17.18-81.15,4.9-14.16,9.33-19.36,13.75-31.69,13.11-15.76,21.59-23.49,34.89-27.84,10.05-3.24,14.55-1.31,23.13,4.8,7.39,5.26,14.83,16.95,16.97,19.58,3.92,4.88,8.47,21.14,5.94,26.88Z"/>
      <path class="cls-45" d="M1189.63,212.46c-.19,1.71-5.46,1.57-13.06,5.53-11.9,6.2-19.67,18.11-25.81,30.05-.71,1.43-1.82,3.1-3.39,2.99.31-6.94-4.08-13.79-2.22-20.48,1.33-4.79,8.67-9.47,10.24-14.17,2.42-7.24,6.5-14.72,13.22-21.78,4.05-4.26,6.01-6.4,11.75-7.64,5.77-1.21,7.23,3.36,8.6,9.1,1.77,7.44,1.32,10.31.66,16.4Z"/>
      <path class="cls-37" d="M1244.67,137.47c-.29.25-.57.5-.86.78"/>
      <path class="cls-45" d="M1102.96,132.45c-2.37,6.38-4.73,10.98-8.97,16.76-3.07,4.21-8.17,9.8-12.52,13.5-.24.21-.25.53-.39.82-.78-2.03-1.6-4.03-2.42-6.06-.5-1.25-1-2.53-1.07-3.88-.04-1.32.36-2.6.75-3.85,3.07-9.37,7.09-18.46,12.05-26.98,3.35-5.85,5.2.11,7.45,3.39,1.53,2.21,3.24,4.31,5.13,6.31Z"/>
      <path class="cls-44" d="M1117.39,89.36c-1.78,1.55-3.37,3.3-4.95,5.05-6.66,7.34-13.38,14.77-18.17,23.44-.16.29-.32.6-.29.92.03.27.18.5.34.72,2.4,3.51,4.83,7.06,7.96,9.95.3.28.65.57,1.06.54.45-.03.78-.41,1.05-.77,4.83-6.44,8.17-13.85,11.47-21.19,1.58-3.5,3.15-7.02,4.35-10.68.99-3.02,2.86-8.09,1.86-11.22-1.68.54-3.35,2.08-4.68,3.23Z"/>
      <path class="cls-44" d="M1146.19,67.39c-.57.18-1.16.39-1.56.83-.34.39-.49.91-.62,1.41-2.78,10.58-5.59,21.4-4.84,32.32.06.83.14,1.68.54,2.4s1.19,1.29,2.01,1.18c.83-.12,1.41-.85,1.87-1.55,3.65-5.45,5.78-11.75,7.79-17.99,1.98-6.14,4.18-12.33,5.75-18.59.72-2.89.04-3.27-2.6-2.5-2.79.81-5.59,1.6-8.35,2.49Z"/>
      <path class="cls-39" d="M1094.48,87.22c4-1.09-4.42,8.73-7.13,12.8-3.99,6.09-8.02,12.15-12.05,18.25-6.17,9.34-14.79,24.29-20.28,26.73s-.96-6.24.57-9.16c3.99-7.59,8.66-14.79,13.94-21.56.43-.96,20.95-25.97,24.95-27.05Z"/>
      <path class="cls-39" d="M1039.76,302.52c-.81.81-1.65,1.86-1.38,2.98.3,1.24,1.74,1.75,2.96,2.1,7.93,2.27,15.41,6.13,21.84,11.29,1.95,1.57,3.83,3.26,6.05,4.42s4.89,1.72,7.24.85c2.45-.9,4.17-3.24,4.88-5.75s.53-5.19.11-7.76c-.94-5.75-3.21-11.5-7.55-15.38-10.69-9.52-25.81-1.14-34.16,7.25Z"/>
      <path class="cls-39" d="M1216.39,361.88c-.99.67-2.09,1.69-1.77,2.84.18.64.76,1.08,1.33,1.41,4.08,2.33,9.3,1.29,13.5-.83,4.71-2.38,8.77-6.14,11.41-10.71,1.17-2.03,5.59-11.17,1.56-12.01-3.68-.77-8.65,7.62-10.85,9.49-4.61,3.91-10.18,6.45-15.18,9.81Z"/>
      <path class="cls-39" d="M1017.45,57.65c-.29,1.54-.2,3.64,1.31,4.02,1.23.31,2.29-.85,3-1.9,5.51-8.1,9.73-17.08,12.47-26.49.76-2.63,2.55-7.5.81-10.03-2.3-3.35-5.09.97-5.58,3.07-1.59,6.82-3.57,11.41-5.81,18.19-1.28,3.9-5.45,9.1-6.21,13.14Z"/>
      <path class="cls-39" d="M1040.48,469.08c-.47,11.4.62,23.23,6.06,33.25s16,17.86,27.4,17.45c.97-.04,1.96-.13,2.85-.52,2.9-1.25,3.76-4.88,4.17-8.01,3.42-25.56,2.58-52,10.88-76.41,3.73-10.96,9.26-21.3,16.31-30.49,2.95-3.84,6.2-7.55,8.14-11.98s2.36-9.89-.33-13.92c-4.12-6.19-16.75-9.58-23.76-8.24-6.76,1.29-11.64,8.35-16.08,13.13-13.64,14.69-23.8,32.62-29.73,51.75-3.41,11.01-5.43,22.46-5.91,33.99Z"/>
      <path class="cls-39" d="M1184.52,224.45c21.87-9.14,37.62-6.69,34.52-3.78s-17.31,9-26.58,15.01c-8.08,5.23-11.67,11.28-15.6,19.7-2.21,4.73-8.24,16.76-14.41,11-13.47-12.57,11.1-37.34,22.08-41.93Z"/>
      <path class="cls-45" d="M1057.63,12.83c-2.17,12.55-4.39,24.8-7.71,37.09-3.64,13.51-7.19,23.17-16.63,33.47-1.46-4.31-2.03-6.15-3.15-10.22,5.21-9.78,10.8-23.77,13.19-35.29,1.39-6.67,2.78-13.37,4.31-20,.46-2,.64-4.31,1.21-6.34,3.92.25,4.6.22,8.77,1.28Z"/>
      <path class="cls-40" d="M1084.87,631.09c.61,10.17-.66,14.84-3.48,23.22-4.81-1.46-17.67-5.4-21.98-6.68,1.71-7.56,5.56-19.71,5.99-22.17,1-5.92.93-12.05,1.53-18.04.21-2.25.57-4.7,2.28-6.2,1.75-1.46,4.49-1.39,6.45-.25,2,1.14,3.31,3.17,4.17,5.31,3.17,7.77,4.43,14.64,5.04,24.81Z"/>
      <path class="cls-40" d="M1153.07,675.03l-20.67-6.38c-2.1-16.79.18-37.57,1.96-41.81,1.71-4.06,6.34-7.27,10.55-5.85,1.92.68,3.42,2.17,4.56,3.89,2.96,4.35,3.67,9.84,3.81,15.08.18,4.38,0,8.77-.46,13.15-.21,1.96.82,12.47.25,21.92Z"/>
      <path class="cls-45" d="M1132.92,70.86c-2.27,2.07-4.03,4.62-6.14,6.85-.75.79-1.55,1.56-2.1,2.5-.49.84-.76,1.78-1.02,2.71-.79,2.77-1.58,5.55-2.37,8.32-.65,2.28-1.3,4.57-1.5,6.93,5.53-1.57,9.72-6.38,15.29-7.79,1.22-.31,2.52-.46,3.57-1.15,2.21-1.45,2.42-4.55,2.54-7.19.29-6.1,1.38-12.16,3.24-17.97l-11.5,6.77Z"/>
      <path class="cls-45" d="M1153.72,76.36c-.37,1.49-.57,3.01-1,4.48-.23.77-.52,1.52-.81,2.28-.49,1.27-.97,2.53-1.46,3.8,1.2.02,2.18-.89,3.17-1.58,1.5-1.04,3.26-1.65,4.99-2.24,2.4-.82,4.8-1.64,7.2-2.47.75-.26,1.5-.52,2.16-.96,1.46-.98,2.22-2.7,2.9-4.32,2.21-5.26,4.42-10.52,6.63-15.78.33-.78.6-1.81-.04-2.36-.24-.21-.57-.29-.89-.33-1.45-.22-2.91.09-4.34.4-3.77.8-7.54,1.61-11.31,2.41-1.85.39-1.84,1.47-2.19,3.05s-.92,3.12-1.53,4.62c-1.22,2.98-2.7,5.87-3.47,9.01Z"/>
      <path class="cls-39" d="M1070.09,235.06c-2.97,2.26-4.59,4.72-4.88,6.44s.35,5.26,1.01,5.88,2.2,1.85,3.72,1,1.67-3.07,4.29-6.86c2.62-3.78,8.49-8.52,5.3-9.36s-9.45,2.89-9.45,2.89Z"/>
      <path class="cls-39" d="M1082.87,201.85c-1.56-3.83-4.02-4.35-5.29-4.58s-4.62-.16-5.57,3.55-.88,5.21.78,9.47,4.53,5.27,5.94,5.98c3.18,1.6,7.27,1.01,5.62-1.15-1.92-2.52.09-9.44-1.47-13.27Z"/>
      <path class="cls-39" d="M1118.11,246.34c.71,1.96,1.1,4.12.37,6.08s-2.86,3.59-5.11,3.33c-1.48-.17-2.74-1.09-3.58-2.21s-1.31-2.43-1.78-3.72c-1.01-2.8-7.77-14.93-1.7-15.04,5.6-.11,10.32,7.49,11.8,11.56Z"/>
      <path class="cls-39" d="M1135.89,246.63c.05.88-.09,1.87-.77,2.41-.89.71-2.27.28-3.04-.55s-1.1-1.96-1.55-3.01c-.87-2.03-2.23-3.82-3.57-5.58-.67-.88-1.55-2.1-1.12-3.26,5.01-.1,9.8,5.21,10.05,9.99Z"/>
      <path class="cls-39" d="M1112.28,215.16c-2.12.86-4.46,1.31-6.19,2.97-.19.19-.39.43-.37.72.03.43.49.62.86.68,4.03.73,8.24.35,12.01-1.44s7.07-5.02,8.94-9.2c.72-1.6,1.23-3.47.8-5.21-.35-1.4-1.26-2.53-2.24-3.44-1.87-1.73-2.82.42-3.29,2.32s-.89,3.47-1.99,5.21c-2.13,3.36-5.12,5.99-8.53,7.38Z"/>
      <path class="cls-39" d="M1138.06,219.34c-1.85,1.2-3.95,2.1-6.16,2.24-.42.03-.96.11-1.07.52-.09.33.18.65.47.82.62.36,1.38.34,2.1.3,2.9-.16,5.88-.49,8.44-1.86s4.65-3.98,4.62-6.88c0-.11,0-.22-.06-.32-.86-1.38-3.25.66-3.83,1.32-1.3,1.49-2.84,2.77-4.5,3.85Z"/>
      <path class="cls-43" d="M1063.43,227.32c-.67-.01-1.38.02-1.97.34-.63.34-1.06.97-1.3,1.64s-.32,1.39-.39,2.1c-.06.58-.09,1.25.31,1.67.29.31.74.4,1.16.44,2.85.28,5.61-1.31,7.54-3.42.62-.68.76-.94.07-1.4-.41-.27-.98-.52-1.43-.74-1.19-.6-2.67-.6-3.98-.63Z"/>
      <path class="cls-43" d="M1148.4,236.62c-.67-.02-1.38.03-1.97.57-.63.57-1.06,1.64-1.3,2.77s-.32,2.35-.39,3.55c-.06.98-.09,2.11.31,2.83.29.52.74.68,1.16.75,2.85.47,5.61-2.21,7.54-5.78.62-1.15.76-1.59.07-2.36-.41-.45-.98-.88-1.43-1.26-1.19-1.02-2.67-1.02-3.98-1.07Z"/>
      <path class="cls-45" d="M1065.06,207.84c-3.59,4.17-3.99,9.19-3.96,13.98,0,.52.02,1.05.32,1.53s.98.89,1.77.89c.44,0,.85-.13,1.25-.25.8-.25,1.6-.5,2.4-.75,1.61-.5,3.31-1.05,4.29-2.04.96-.97,1.05-2.2,1.1-3.35.07-1.56.09-3.16-.69-4.63-.34-.64-.83-1.25-1.36-1.84-.8-.9-1.68-1.76-2.64-2.59-.55-.48-1.64-1.94-2.49-.96Z"/>
      <path d="M1119.21,222.87c.23-1.12,1.04-1.86,1.88-2.49,8.73-5.53,20.58-9.02,21.73-21,0,0,.26-.01.26-.01,1.34,6.15-2.31,12.28-7.11,15.87-4.23,3.51-9.42,5.21-14.03,7.93-.23.15-.25.26-.29.17l-2.45-.46h0Z"/>
      <path d="M1119.92,234.77c2.17,7.87,5.95,16.55,13.34,20.84,0,0-.07.25-.07.25-7.16-.94-11.94-7.77-14.33-14.06-.83-2.33-1.48-4.42-1.43-7.02,0,0,2.49,0,2.49,0h0Z"/>
      <path d="M1075,229.64c-7.63,2.91-15.92,7.49-19.48,15.26,0,0-.25-.05-.25-.05.25-7.21,6.6-12.62,12.64-15.6,2.24-1.04,4.26-1.9,6.86-2.09,0,0,.24,2.48.24,2.48h0Z"/>
      <path d="M1076.83,222.17c-7.37-4.11-14.5-15.28-11.33-23.77,0,0,.25.05.25.05.05,2.26.52,4.34,1.25,6.32,2.27,5.8,6.41,11.05,10.98,15.19,0,0-1.16,2.2-1.16,2.2h0Z"/>
    </g>
    <g id="Heart_Line" data-name="Heart Line">
      <path d="M1180.85,57.16c-8.12,14.33-14.97,31.16-11.79,47.82.73,3.7,2.59,6.73,4.42,10.07,3.4,5.37,7.88,10.26,11.01,15.87,2.54,4.55,4.63,9.42,6.67,14.21,8.29,20,13.49,41.07,18.57,62.05.51,1.72.04,3.72-.17,5.42,0,0-3.5.67-3.5.67l-1.43-2.48c-.77-1.3-.92-3.52-1.21-4.98-.78-4.73-1.69-10.45-2.82-15.11-3.42-14.93-7.54-29.8-13.18-44.05-1.91-4.66-3.87-9.4-6.27-13.83-2.33-4.2-5.72-8.63-8.59-12.59-2.1-2.93-3.68-5.91-5.3-9.25-4.8-11.73-2.31-24.98,1.69-36.54,2.46-7.09,5.79-14.09,9.55-20.49,0,0,3.25,1.62,3.25,1.62l-.9,1.57h0Z"/>
      <path d="M1200.45,30.46c-1.31,1.09-2.12,2.65-2.83,4.18-.12.22-.08.22-.01.45.02.13.05.25.03.37,0,.04-.07.02-.29-.12l-2.34-1.53c-.07-.13-2.1-2.11-1.98-2.19.48-.13.56.11.86-.13,1.47-.96,2.95-2,3.91-3.49,0,0,.98-1.56.98-1.56l3.1,2.87-1.42,1.15h0Z"/>
      <path class="cls-4" d="M1217.45,263.43c1.1,11.66.09,23.13-1.04,30.23"/>
      <path class="cls-19" d="M1162.02,10.05c-3.56,8.66-6.74,17.46-9.52,26.41"/>
      <path class="cls-19" d="M1144.62,66.33c-.25,1.14-.5,2.25-.71,3.39-1.92,9.34-3.42,18.78-4.49,28.26-.36,3.07-.21,9.27,1.71,8.8s9.69-18.36,12.26-28.51c1.32-5.2,2.78-10.34,4.46-15.43.21-.64.46-1.35.75-2.14"/>
      <path class="cls-19" d="M1176.38,17.61c-1.57,3.28-4.1,9.09-6.81,15.54"/>
      <path class="cls-19" d="M1101.32,131.88c.25-.29.46-.53.68-.82,11.05-12.97,16.82-29.37,20.92-46.12.29-1.14.57-2.25.78-3.39"/>
      <path class="cls-19" d="M1131.47,46.66c3.28-12.76,7.63-25.13,14.9-36.03"/>
      <path d="M1117.46,146.82c-9.9-7.31-18.91-15.76-27.17-24.88,0,0,0-1.15,0-1.15v-.04h6c.02.16-.64-1.85-.64-1.82,6.5,9.76,14.2,18.71,22.76,26.72,0,0-.95,1.17-.95,1.17h0Z"/>
      <path d="M1068.32,24.25c-3.77,18.2-7.69,38.19.45,55.68,2.57,5.61,6.09,10.81,9.85,15.92l-4.93,3.42c-12.8-18.76-15.8-34.3-11.46-56.54,1.21-6.38,2.84-12.63,4.5-18.85l1.59.38h0Z"/>
      <path class="cls-19" d="M1056.87,121.9c-11.26-15.33-22.81-30.47-26.91-48.51"/>
      <path class="cls-19" d="M1063.94,203.34c1.94-8.83,14.58-23.3,16.14-40.28,0,0-2.07-6.45-3-8.62"/>
      <path class="cls-19" d="M1236.33,61.66c-10.62-4.53-33.54-8.2-57.1-5.31-6.91.82-13.9,2.25-20.64,4.35-4.81,1.5-9.52,3.35-13.97,5.63-4.35,2.21-8.48,4.81-12.3,7.84-3.03,2.39-5.88,4.88-8.63,7.38-26.34,24.31-38.28,52.18-41.13,58.45-2,4.42-3.85,8.91-5.52,13.44-6.17,16.5-12.46,46.03-12.46,46.07-1.6,9.27-3.8,23.86-4.79,33.2-1.68,15.58-2.35,31.86.07,47.37"/>
      <path class="cls-19" d="M1240.29,43.38c-17.54-5.28-32.33-8.38-45.02-9.77-9.69-1.1-18.18-1.18-25.7-.46-6.31.57-11.94,1.71-17.07,3.31-8.06,2.49-14.83,6.02-21.03,10.19-7.7,5.17-14.47,11.3-21.53,17.46-11.8,10.34-23.35,21.67-33.79,33.43-6.88,7.73-13.29,15.86-19.28,24.34-1.6,2.25-3.17,4.56-4.74,6.88-2.21-7.98-5.95-15.43-9.69-22.81-4.99-9.91-10.19-20.07-16.15-29.58"/>
      <path d="M1047.99,16.68c.8.14.79,4.85-.31,12.33-1.09,7.47-3.34,17.69-6.96,28.65-1.79,5.48-3.94,10.86-7.02,15.25-.77,1.1-1.52,2.11-2.52,3.15-.98,1.02-2.25,2.01-3.74,2.53-1.46.53-2.94.61-4.24.44-1.31-.16-2.46-.57-3.48-1.07-1.01-.51-1.9-1.12-2.64-1.8-.72-.66-1.31-1.34-1.8-2-.98-1.33-1.58-2.55-2.01-3.55-.84-2.02-1.02-3.21-.67-3.42.37-.22,1.26.64,2.64,2.17.69.75,1.52,1.67,2.53,2.55.51.44,1.06.87,1.67,1.25.58.37,1.24.67,1.95.9,1.4.46,3.04.53,4.19-.08.57-.28,1.11-.75,1.7-1.47.57-.7,1.21-1.67,1.8-2.63,2.39-3.88,4.2-8.74,5.94-14.1,7.11-21.43,11.28-39.38,12.97-39.1Z"/>
      <path d="M1029.22,15.19c-.68,7.39-2.58,14.53-4.99,21.51-2.4,6.88-5.75,15.18-13.03,18.33,0,0-1.05-1.34-1.05-1.34,2.04-3,3.46-5.94,4.72-9.15,3.83-9.98,7.65-20.34,12.87-29.81,0,0,1.46.45,1.46.45h0Z"/>
      <path d="M1023.26,528.64c-32.72-28.67-38.09-72.57-35.06-113.6.55-10.19,2.23-20.39,4.51-30.3,7-29.64,17.71-58.12,29.95-85.96,0,0-.27,1.14-.27,1.14.48-10.04,1.25-19.99,1.97-29.94,1.44-19.85,2.91-39.71,3.17-59.59.81-47.73-15.75-100.72-41.85-140.54-.21-.32-.13-.75.19-.96.32-.21.74-.13.95.18,22.93,32.98,36.59,71.72,43.27,111.18,3.97,29.96,1.12,60.1-.24,90.1-.57,10.15-1.19,20.29-1.49,30.37-4.16,9.26-8.06,18.75-11.73,28.28-7.14,18.64-13.58,37.66-18.08,57.09-4.62,19.37-5.54,39.39-4.77,59.16.93,19.6,5.03,39.39,15.02,56.39,4.91,8.43,11.19,16.02,18.46,22.54,2.79,2.49-.79,7.12-4.01,4.46h0Z"/>
      <path d="M1141.03,267.76c.19-11,3.61-25.3-2.93-34.5,0,0-2.77-3.55-2.77-3.55l4.15-1.73c4.01-1.67,7.4-4.83,10.22-8.68,7.44-10.19,11.04-25.02,23.25-31.21,2.5-1.24,5.3-1.96,8-1.82l.13.99c-19.76,7.24-17.79,38.39-38.99,47.05,0,0,1.38-5.28,1.38-5.28,2.38,3.03,3.68,6.58,4.36,10,1.31,6.67.76,13.26.01,19.81-.36,3.16-.82,6.27-1.13,9.3,0,0-5.7-.38-5.7-.38h0Z"/>
      <path d="M1115.63,322.62c17.43-17.96,20.78-43.72,28.67-66.46,5.5-16.11,14.61-31.91,30.02-40.46,7.54-4.33,16.4-5.16,24.83-6.13,8.3-.97,16.67-1.19,25-1,8.25.23,16.4.8,24.61.89,0,0-.14,5.6-.14,5.6-8.27-.26-16.51-.86-24.61-1.08-12.11-.48-24.29.65-36.11,3.15-19.86,3.87-31.39,23.3-37.49,41.18-8.02,22.79-12.8,50.45-34.45,64.71,0,0-.33-.41-.33-.41h0Z"/>
      <path d="M1202.57,288.86c2.6-15.11,8.59-29.25,24.48-34.05,8.17-2.52,16.74-3.61,25.16-3.57,0,0,.59,4.14.59,4.14-5.4,1.67-10.92,2.36-16.23,3.28-19.68,3.12-25.43,12.77-29.79,31.1,0,0-4.22-.9-4.22-.9h0Z"/>
      <path d="M1215.56,296.32c-3.74-1.9-7.64-3.53-11.62-4.9l2.93-1.64c-1.73,8.48-3.05,17.08-4.12,25.7-1.04,8.62-1.9,17.3-2.31,25.92-.33,6.19.03,12.46,2.34,18.21,2.2,5.41,6.57,9.75,12.18,11.47,7.38,2.3,16.76,1.39,23.14-3.13,16.35-17.2,7.02-37.83-4.56-54.86,0,0-1.8-2.75-1.8-2.75-3.67-6.29-9.9-10.38-16.15-14.08,0,0,1.9-3.73,1.9-3.73,7.28,3.33,14.42,7.78,18.91,14.66,0,0,1.88,2.68,1.88,2.68,7.63,10.75,14.97,23.9,14.63,37.76-.16,9.28-4.32,18.56-11.09,24.89-7.97,5.79-19.38,6.9-28.65,3.89-10.92-3.46-16.94-14.1-17.77-25.04-.88-12.24,1.18-24.44,2.56-36.51,1.3-9.55,2.94-19.09,5.06-28.52,4.95,1.73,9.86,3.68,14.51,6.15,0,0-1.99,3.83-1.99,3.83h0Z"/>
      <path d="M1243.23,369.87c28.82,60.18,53.28,126.73,44.33,194.56-1.94,15.02-4.6,30.46-12.85,43.61-6.12,9.92-15.99,18.31-27.64,20.92-11.27,2.69-23.22.99-34.27-.73-39.7-5.81-79.01-15.03-116.68-28.99-4.51-1.53-8.87-4.04-12.89-6.31-6.52-3.74-12.86-7.73-19.08-11.92-9.32-6.45-18.75-12.9-26.47-21.43-2.7-2.96-4.29-6.77-5.77-10.41-16.51-42.34-14.96-89.82-2.49-132.98,6.08-22.39,16.99-42.11,35.57-56.37,0,0,1.13,1.31,1.13,1.31-17.49,16.11-26.51,33.67-32.72,56.22-12.25,42.16-13.17,88.79,3.09,129.96,1.37,3.21,2.61,6.43,4.97,9.01,7.31,8.01,16.53,14.32,25.51,20.49,6.13,4.1,12.4,8.03,18.78,11.68,4.08,2.25,7.81,4.48,12.12,5.92,37.39,13.77,76.31,22.81,115.72,28.5,10.86,1.63,21.59,3.24,32.2.75,17.79-4.15,28.29-21.47,32.38-38.33,10.15-43.06,5.58-88.55-7.27-130.58-8.54-28.27-20.35-55.53-33.09-82.31l5.42-2.58h0Z"/>
      <path class="cls-19" d="M1047.64,566.18c1.35,19.92-.46,52.57-2.49,77.13"/>
      <path class="cls-19" d="M1095.22,596.41c3.39,20.71,4.24,41.81,2.49,62.73"/>
      <path class="cls-19" d="M1114.51,664.16c-.36-21.1-2.39-42.24-5.99-63.05"/>
      <path class="cls-19" d="M1174.99,682.38c-1.32-21.81-3.96-43.52-7.91-65.01"/>
      <path d="M1347.32,448.12c.39,0,.39-.6,0-.6s-.39.6,0,.6h0Z"/>
      <g>
        <path class="cls-42" d="M1250.87,399.91c-.07-.04-.11-.07-.11-.14-.04-.07-.07-.18-.11-.28.04.14.11.28.21.43Z"/>
        <path class="cls-42" d="M1253.94,401.73c-.25,0-.46-.04-.71-.11.07.04.18.04.25.04.18.04.32.07.46.07Z"/>
        <path class="cls-42" d="M1254.65,401.62c-.25.07-.46.11-.71.11.14,0,.29-.04.46-.07.07,0,.18,0,.25-.04Z"/>
      </g>
      <path d="M1047.13,286.69c4.84-6.76,13.87-10.04,22.08-8.51,4.24.76,8.02,2.74,11.34,5.01,9.9,6.86,17.63,16.61,22.12,27.81,3.16,7.65,5.05,17.19.12,24.86-.94,1.49-2.15,2.87-3.54,3.98-.98.8-5.22,3.36-6.33,4.08-9.81,6.03-19.78,11.89-30.01,17.19-6.63,3.44-12.99,7.35-18.68,12.07-5.66,4.73-10.57,10.38-13.9,17.2l-1.17-.42c.9-3.81,2.52-7.46,4.58-10.85,10.42-17.16,29.9-24.35,46.09-34.63,3.22-1.98,11.48-7.06,14.58-8.99,7.37-4.93,5.48-15.02,2.68-22.31-3.82-10.18-10.68-19.35-19.46-25.82-8.54-6.85-20.5-6.57-28.97.71,0,0-1.52-1.36-1.52-1.36h0Z"/>
      <g>
        <path class="cls-42" d="M1253.94,401.73c-.25,0-.46-.04-.71-.11.07.04.18.04.25.04.18.04.32.07.46.07Z"/>
        <path class="cls-42" d="M1254.65,401.62c-.25.07-.46.11-.71.11.14,0,.29-.04.46-.07.07,0,.18,0,.25-.04Z"/>
      </g>
      <g>
        <path class="cls-42" d="M1250.87,399.91c-.07-.04-.11-.07-.11-.14-.04-.07-.07-.18-.11-.28.04.14.11.28.21.43Z"/>
        <path class="cls-42" d="M1253.94,401.73c-.25,0-.46-.04-.71-.11.07.04.18.04.25.04.18.04.32.07.46.07Z"/>
        <path class="cls-42" d="M1254.65,401.62c-.25.07-.46.11-.71.11.14,0,.29-.04.46-.07.07,0,.18,0,.25-.04Z"/>
      </g>
      <path class="cls-33" d="M1068.35,441.28c-1.46-.99-3.43-1.34-5.14-.93-1.72.35-3.24.87-4.77.62-2.97-.38-5.76-2.71-6.43-5.62-.17-.7-.22-1.55-.47-2.5-.72-3.33-4.62-4.32-7.53-3.92-2.46.21-4.39.92-6.26-.24-.97-.67-1.61-1.68-1.83-2.78,2.68-2.54,5.71-5.68,9.61-4.8,2.88.51,5.99,1.14,9.07.54,1.5-.25,2.75-1.32,4.11-1.75,1.27-.38,2.68.05,3.83.9,1.16.84,2.14,1.96,3.04,3.11l.17-.12c-.82-1.23-1.7-2.44-2.86-3.44-1.17-1.04-2.8-1.71-4.4-1.38-.81.16-1.52.51-2.18.8-1.99.95-3.97.62-6.16.33-2.09-.34-4.31-1.3-6.6-1.44-2.79.09-5.15,1.44-7.32,3.04.83-6.43,2.05-15.17-2.87-19.48.47-1.25.98-2.5,1.5-3.73,8.42-17.86,23.44-31.15,38.51-43.51l-.29-.65c-8.35,1.26-15.81,5.89-22.05,11.36-9.35,8.39-17.52,18.06-23.43,29.25-5.32,11.25-8.85,23.34-11.44,35.47-2.52,12.08-3.83,24.39-4.1,36.73-.23,8.23.07,16.78,1.83,24.82,2.52,12.03,6.05,24,12.24,34.68l1.11-.47c-3.51-15.46-6.26-31.21-7.13-46.97-.05-4.72.08-9.45.39-14.17.48,1.06.96,2.13,1.5,3.13,1.12,2.43,2.81,5.04,5.34,6.19,4.09,2.07,1.42,7.6,3.48,11.09.87,1.71,2.05,2.97,2.5,4.29.54,1.53-.03,3.11.21,4.86.28,2.08,1.5,3.71,2.67,5.02,2.46,2.6,4.86,5.24,8.26,6.7,1.53.76,3.78.83,5.31.84.7.07,1.05.25,1.47.79,2.86,5.1,5.6,10.48,8.88,15.38-1.76-4.83-3.82-9.51-6.01-14.15-1.61-3.85-2.74-4.11-6.64-4.2-4-.66-6.89-4.05-9.61-6.84-1.08-1.2-1.97-2.48-2.13-3.83-.18-1.62.34-3.56-.35-5.3-.71-1.92-1.98-3.19-2.64-4.53-.79-1.78-.71-3.78-.8-5.7.24.08.48.18.66.25,1.6.62,2.92,1.53,4.62,2.15,2.15.76,5.06.68,6.34,2.59,1.2,2.08,2.15,5,4.77,5.82,2.44.87,5.08-.02,7.5.46,3.29.63,5.59,3.5,7.65,5.89-3.67-4.99-6.2-6.94-12.55-6.66-1.62-.07-3.15-.59-4.06-1.84-1.07-1.32-1.3-2.88-2.16-4.41-.92-1.65-2.88-2.42-4.55-2.88-2.49-.51-4.29-1.95-6.35-3.39-.86-.51-1.41-.98-2.44-1.26-.46-1.18-1.29-2.24-2.84-3.08-2.32-1.11-3.31-3.03-4.28-5.31-1.24-2.68-2.01-5.56-3.28-8.27.82-8.94,2.19-17.85,3.95-26.62,1.49-6.99,3.15-13.96,5.26-20.79.3.79.51,1.68.73,2.62.77,3.6.66,7.43.64,11.13.24,3.86,3.64,7.49,7.56,7.48,2.07.02,3.79-.58,5.29-.85,2.09-.33,4.23-.36,4.98,1.71.85,4.69,3.95,8.41,8.93,8.79,2.58.29,4.92-1.4,7.43-1.12,2.46.35,4.25,2.25,6,3.92,2.41,2.33,4.82,4.67,7.19,7.05l.28-.29c-3.72-3.45-6.73-7.57-10.86-10.58Z"/>
      <path class="cls-33" d="M1267.51,547.03h-.16c.02-4.06-.07-8.71-3.01-11.78-2.09-2.27-5.28-4.23-6.35-7.46-.08-.21-.15-.43-.21-.65-1.62,2.37.16,9.84-.31,12.34-.03.43-.16.98-.3,1.36-1.48,4.28-.91,8.81-.86,13.33.06,3.28-.2,6.76-1.71,9.71,3.03-7.13-.47-14.79,1.06-22.18.16-.66.49-1.66.5-2.32.33-3.76-2.87-12.17,1.15-14.57-.32-2.2-.38-4.47-1.07-6.4-2-6.13-5.76-11.11-7.99-17.37-1.4-3.28-1.15-7.22-3-10.21-3.66-5.26-11.4-7.31-13.76-13.89-.98-2.56-.75-5.76-1.5-8.13-.28-.72-.41-.8-.62-.96-1.24-1.06-2.01-2.42-2.82-3.75-5.38,19.64-16.95,36.98-23.61,56.01-3.3,9.12-5.23,18.59-4.15,28.3,1.09,9.74,2.69,19.8,2.5,29.71-.02,9.96-1.02,19.91-3.06,29.65.77-9.54,1.64-19.82.96-29.6-.43-9.97-2.32-19.47-3.87-29.37-.64-4.76-.65-9.42-.17-14-3.02.62-6.27,2.3-8.16,4.57-2.4,5.54-2.94,10.12-10.19,10.6-1.65.01-3.26.05-4.84.19-2.14,4.38-4.79,8.33-6.48,12.61-1.47,3.35-.8,7.16-2.4,10.51-1.54,3.35-4.46,5.85-6.45,8.79-1.34,1.96-2.12,4.43-3.97,6.06-3.71,3.36-8.88,3.89-13.62,4.34,2.38-.32,4.76-.69,7.05-1.39,2.26-.7,4.48-1.74,6.11-3.42,1.75-1.7,2.31-4.07,3.6-6.12,2.47-3.98,6.41-7.25,6.7-12.13-.14-6.78,3.57-12.95,6.32-18.84-2.51.48-4.93,1.33-7.26,2.86-2.99,1.85-5.52,4.41-7.32,7.47-1.85,3.07-3.42,6.6-6.41,8.83-2.95,2.2-6.43,3.4-9.79,4.79-3.36,1.31-6.95,2.37-10.59,2.04,3.65.22,7.17-.95,10.47-2.34,3.24-1.47,6.71-2.77,9.49-5.02,2.79-2.24,4.15-5.66,5.91-8.84,1.75-3.24,4.34-6.08,7.44-8.16,3.09-2.08,6.69-3.46,10.44-3.89,5.58-.51,10.35.38,12.06-6.23.47-1.37.77-2.67,1.5-4.06,2.01-3,5.22-4.62,8.37-6.02.77-.3,1.54-.59,2.48-.75,3.69-23.44,19.2-44.84,25.24-67.51,1.18-4.11,1.99-10.05,2.64-14.29.33-2.21.65-4.43.96-6.65-2.37,1.92-5.14,3.4-7.85,4.48-7.06,2.98-11.26,9.59-13.93,16.56-2.35,6.14-7.22,5.87-12.57,7.25-5.88,1.63-11.32,5.05-15.53,9.75h-.02c3.53-5.26,8.85-9.37,14.93-11.66,3.03-1.2,6.46-1.43,8.36-3.11,1.88-1.57,2.36-4.81,3.72-7.86.32-.76.67-1.51,1.05-2.26-3.27.75-6.8.21-9.8-1.36-4.16-1.97-9.14-1.67-13.04.84l-.1-.14c2.79-2.22,6.53-3.31,10.12-2.97,2.35.16,4.61,1.28,6.84,1.66,3.09.53,6.49-.48,8.74-2.55l.02.03c1.46-1.95,3.15-3.74,5.09-5.22,2.51-2.02,5.76-3.23,8.41-4.74,2.87-1.69,5.52-4.12,6.71-7.24,1.83-14.43,3.23-28.95,3.15-43.44-.09-4.81-.36-9.65-1.28-13.99l6.23-1.28.03-.21c7.6-3.68,14.63,3.35,18.5,9.21,3.76,5.85,6.12,12.4,6.43,19.33-.01,0-.66.2-.66.2-5.78-7.76-10.49-15.41-17.87-21-1.63-1.31-2.92-2.47-4.29-3.86.99,9.02.28,17.73-.41,26.71-1.59,17.14-4.22,34.17-7.25,51.09,2.23,1.28,3.92,3.41,5.15,5.39.04.06.19.23.18.22,3.91,3.09,2.44,7.57,2.5,11.59.49,3.79,3.73,5.86,6.61,8.27,2.58,2.03,5.56,4.67,6.86,7.97,1.19,3.15,1.05,6.48,2.08,9.49,1.78,5.86,5.39,11.64,6.93,17.82.91,3.29.3,6.39,1.13,9.49.88,3.06,3.57,4.77,5.56,7.27,2.92,3.5,2.67,8.28,2.33,12.5Z"/>
    </g>
    <g id="Layer_5" data-name="Layer 5">
      <g id="uuid-c07ab7b2-53aa-48a0-bad4-9e4149c9fae8">
        <g id="uuid-e85c186f-a43c-4260-846a-b8a2e95c69d1">
          <path class="cls-25" d="M696.92,582.14l-5.34-2.57c.83-3.21,2.3-6.02,3.84-9.01l5.23,2.4-3.74,9.18h0Z"/>
          <path class="cls-25" d="M701.96,583.19c-.38.82-2.44.02-3.1-.7l3.45-8.82c1.29.39,2.21.71,3.36,1.51l-3.72,8h0Z"/>
          <polygon class="cls-25" points="725.31 584.58 721.55 592.92 705.73 584.64 709.41 577.17 722.54 583.79 725.31 584.58"/>
          <path class="cls-25" d="M708.98,574.89l-5.7,11.82c-.28-.22-.53-.37-.68-.43l5.4-11.88c.31-.05.77-.04.98.49h0Z"/>
        </g>
        <rect id="uuid-7930be53-6a5d-45c6-b5d7-495071909d08" class="cls-25" x="634.73" y="496.75" width="4.32" height="114.68" transform="translate(-100.28 965.45) rotate(-70.19)"/>
        <path class="cls-14" d="M581.57,529.7c-.93,3.77-3.62,6.38-5.98,9.15l-8.05,9.44c-.67.78-1.46,1.52-2.4,1.48-.87-.03-1.7-.71-2.37-1.55-4.81-6.01-9.48-12.05-15.57-16.84-3.39-2.67-5.68-5.82-6.03-9.94-.37-4.25,1.13-8.18,4.24-11.26,5.15-5.1,12.65-4.95,17.83.2,1.6,1.59,3.1,3.6,5.18,4.7l5.8,1.64c5.64,1.59,8.86,6.91,7.36,12.97h0Z"/>
        <path class="cls-9" d="M571.36,535.6c-1.77,2.32.99,5.61-5.02,10.5-.99-.44-1.47-1.18-1.77-2.17l-3.45-11.4c-.91-3-2.86-3.79-5.8-3.88-4.63-.15-8.09-4.86-7.7-9.25.27-3.05,2.16-5.24,4.85-5.98,2.37-.65,5.73.71,6.95,3.18,4.08,8.28,11.4,2.66,15.86,9,1.63,2.31,2.33,5.97.48,8.36-1.27.51-3.44.41-4.39,1.64h0Z"/>
        <path class="cls-28" d="M573.71,530.7c-1.72.89-3.6-.32-5.18-1.2l-16.75-9.23c-.81-.45-1.35-1.19-1.21-1.79,1.01-4.24,7,1.77,10.24,4.23,2.13,1.61,5.29,1.36,7.71,2.18,2.75.75,5.01,2.18,5.18,5.81h0Z"/>
        <path class="cls-27" d="M569.49,533.35c-2.57,3.88-1.48,7.23-2.99,7.76l-3.7-11.3,6.69,3.55Z"/>
        <path class="cls-7" d="M556.56,526.16c-2.74.39-4.65-1.31-5.69-3.63,2.29.84,3.67,2.3,5.69,3.63Z"/>
        <path id="uuid-938adbdd-e60b-4fcb-b253-0dfa392a64c0" class="cls-25" d="M495.98,473.59l-22.1-19.95c-12.35-9.96-25.8-17.36-41.35-20.48-.18-.82-.14-1.66.3-2.2,24.52,4.38,41.6,17.47,59.13,34.13l27.16,25.8,22.23,18.65-1.71,2.71s-29.74-24.83-43.66-38.66Z"/>
        <path class="cls-17" d="M724.68,589.38c415.84,193.89,299.53-265.65,451.75-257.15,25.25,1.41,56.74,35.22,69.95,50.98"/>
      </g>
      <g id="uuid-b3dd6575-29fe-42b3-90ae-0f93549ace6b">
        <path id="uuid-61c1891b-6548-4784-aefa-768cb81047f2" class="cls-25" d="M552.74,474.72c-17.36-6.02-33.95-13.15-50.89-20.55l-33.39-14.57-22.56-7.48c-4.3-1.42-8.34-2.91-13.1-3.04-.59-.02-.57-1.55.02-1.59l11.57-.91c1.57-.12,2.74.2,3.55,1.54l-3.15.38c-.86.1-1.32.73-1.26,1.33.24,2.11,5.7.59,11.17,2.05,9.71,2.6,18.65,6.08,27.93,10.09l51.24,22.18,20.09,7.55s-.69,1.96-1.21,3.03Z"/>
        <path id="uuid-d83cc57b-9d04-42ea-98c0-a38bc1c370cc" class="cls-25" d="M701.7,528.5l-30.15-12.56c-18.33-7.64-36.84-13.5-55.7-19.68l-17.06-5.59c.04-1.37.14-2.2.63-3.75l12.9,4.34,32.79,10.73,58.2,23.23-1.6,3.29h0Z"/>
        <g id="uuid-8f2da38f-3b72-499b-b207-1c039c8fccc3">
          <polygon class="cls-25" points="741.47 540.65 737.7 548.98 721.89 540.71 725.57 533.23 738.7 539.85 741.47 540.65"/>
          <path class="cls-25" d="M709.85,536.07l-6.46-3.26,4.47-9.44,6.98,3.42c-2.38,2.59-3.74,5.45-4.98,9.28Z"/>
          <path class="cls-25" d="M715.33,538.47c-1.28-.11-2.32-.71-3.44-1.53l4.16-9.5,3.91,1.46-4.62,9.56h0Z"/>
          <path class="cls-25" d="M718.47,541.96c-.81.07-1.48-.41-2.01-1,2.99-3.56,5.31-11.46,6.27-11.62.48-.08,1.15.09,1.42.34.53.48.06,1.35-.27,1.97l-5.42,10.31h0Z"/>
        </g>
        <g id="uuid-01ef3496-1abf-4609-acd3-96c08718ea6a">
          <path class="cls-14" d="M586.98,501l-5.94,7.27c-1.03,1.26-2.64,1.08-3.66-.13l-7.33-8.65c-2.88-3.4-5.87-6.35-9.33-9.18-2.28-1.86-4.29-3.99-5.01-7-1.6-6.65,1.67-13.98,8.11-16.7,4.92-2.08,10.42-.07,13.92,3.64,2.36,2.5,4.77,3.83,8.18,4.43,3.83.67,7.55,3.08,9.22,6.67,2.25,4.83.36,10.13-3.06,13.96l-5.1,5.69h0Z"/>
          <path class="cls-9" d="M588.63,492.93c-5.17.42-.99,6.07-6.47,10.54-.93.76-1.72,2.01-3.29,1.69-1.33-5.54-2.7-10.79-5.2-15.78-1.77-3.52-4.26-.07-8.39-3.12-2.52-1.86-4.03-4.2-3.56-7.35.4-2.68,2.01-5.49,5.3-6.16,2.79-.57,5.7,1.21,7.02,3.69,1.66,3.11,4.33,4.36,7.8,4.21,5.49-.23,9.46,3.66,9.34,9.01-.04,1.66-.56,3.1-2.56,3.27h0Z"/>
          <path class="cls-3" d="M581.91,483.4c3.14-.03,5.85,1.69,6.08,4.79l-23.27-8.35c-.37-.96.19-3.13,1.1-3.3,6.76,1.43,9.1,6.94,16.09,6.86h0Z"/>
          <path class="cls-28" d="M582.27,496.88c-.08,1.45-.23,2.85-1.43,3.57-1.33-5.16-2.82-9.49-5.53-13.81l10.74,3.76c-2.43,1.67-3.46,3.59-3.77,6.49h0Z"/>
          <path class="cls-26" d="M569.93,484.91c-1.28.63-3.12-.06-3.6-1.65,1.26.39,2.12.49,3.6,1.65Z"/>
        </g>
        <path class="cls-13" d="M740.55,545.54c364.16,117.07,316.35-234.61,457.7-192.47,32.9,9.81,33.13,31.09,32.92,55.63"/>
      </g>
      <g id="uuid-2b4df381-08c7-4350-a698-21b7d99dff10">
        <path class="cls-25" d="M712.25,499.19l-20.73-10.12-32.83-16.65-15.1-7.27c-14.69-7.07-29.03-13.39-44.06-19.05.19-1.25.47-2.26,1-3.48,19.89,7.33,38.89,15.99,57.86,25.47l25.05,12.51,30.08,15.43-1.27,3.18h0Z"/>
        <path class="cls-25" d="M511.65,428.28l-26.15,1.42-.14-3.91,26.05-1.03c14.48-.57,28.51.4,42.8,3.14-.1,1.15-.44,2.1-.96,3.47-13.75-2.22-27.25-3.87-41.61-3.09h0Z"/>
        <g id="uuid-af27e4b9-a089-484e-a9a7-67bddd5d1445">
          <path class="cls-14" d="M585.37,460.15c-.75,1.19-2.63,2.89-3.76,1.83l-8.81-8.24c-3.42-3.2-6.52-6.42-10.38-9.12-5.83-4.08-7.66-11.35-4.22-17.7,2.31-4.27,6.6-7.45,11.68-7.18,3.54.19,6.98,2.01,9.52,4.38,2.39,2.23,4.6,3.53,7.93,4.18,3.67.72,7.5,2.67,9.15,6.24,2.3,4.95.68,10.85-2.92,14.72-3.14,3.37-8.18,10.89-8.18,10.89Z"/>
          <path class="cls-9" d="M590.12,446.97c-5.46,1.43.13,8.29-7.99,11.64-1.7-5.4-3.45-10.24-6.3-14.9-2-3.28-4.44-.02-8.7-2.78-2.77-1.8-4.51-4.24-4.19-7.51.27-2.81,1.77-5.89,5.06-6.71,3.12-.78,6.27,1.23,7.89,3.91,1.58,2.61,3.86,3.9,6.99,3.55,5.42-.61,9.58,3.15,10.01,8.52.16,2.03-.56,3.71-2.78,4.29h0Z"/>
          <path class="cls-28" d="M583.69,437.19c3.44-.19,6.13,2.23,6.18,5.38l-23.85-7.97c-.51-.58-.2-2.68.52-3.05,2.38.45,5.49.92,7.61,2.32,2.94,1.94,5.48,3.54,9.54,3.32h0Z"/>
          <path class="cls-27" d="M587.51,444.71c-3.88,2.17-2.61,5.76-3.82,9.15-1.6-4.22-3.2-8.08-5.68-12.14l9.49,2.99h0Z"/>
        </g>
        <g id="uuid-ca40e857-b25b-44fd-b229-66df553c8a11">
          <polygon class="cls-25" points="750.52 512.21 746.76 520.54 730.94 512.27 734.62 504.79 747.75 511.41 750.52 512.21"/>
          <path class="cls-25" d="M718.9,507.63l-6.46-3.26,4.47-9.44,6.98,3.42c-2.38,2.58-3.74,5.45-4.98,9.28h0Z"/>
          <path class="cls-25" d="M724.38,510.03c-1.28-.11-2.32-.71-3.44-1.53l4.16-9.5,3.91,1.46-4.62,9.56h0Z"/>
          <path class="cls-25" d="M727.53,513.53c-.81.07-1.48-.41-2.01-1,2.99-3.56,5.31-11.46,6.27-11.62.48-.08,1.15.09,1.42.33.53.48.06,1.35-.27,1.97l-5.42,10.31h0Z"/>
        </g>
        <path class="cls-30" d="M750,517.19c138.61,55.28,160.21-127.78,224.84-119.28,21.51,2.83,43.12,21.96,43.1,48.68"/>
      </g>
    </g>
    <g id="Clamp">
      <path class="cls-36" d="M1020.49,236.63s-.11.02-.07-.01h.07Z"/>
      <path class="cls-15" d="M1179.3,238.22l-.35.65s-1.39-5.77-3.02-3.81c-1.81,2.18.42,6,.42,6l-.96,1.69s-75.62-10.67-112.39-13.2c.37-3.55.85-7.1,1.31-10.12l111.14,13.72s1.43-.13,2.14.76c.49.6,1.26,2.89,1.71,4.31Z"/>
      <path class="cls-1" d="M780.91,334.4s-.01,0-.02.01c-.18.11-.38.22-.58.32-.2.11-.41.21-.63.31-.43.2-.88.4-1.33.6-2.61,1.16-40.45,14.5-52.36,20.26-11.91,5.75-21.67,14.14-25.08,19.57-.13.2-.25.41-.36.62-.12.21-.23.42-.34.64-.11.21-.21.43-.31.66-.07.16-.14.32-.21.48-.06.15-.12.3-.17.46-.1.27-.2.54-.28.81-.06.18-.12.36-.17.55-.05.16-.1.32-.13.48.11-.24.25-.46.39-.68,3.41-5.44,13.17-13.82,25.08-19.58,11.91-5.76,49.75-19.09,52.36-20.26.81-.37,1.63-.71,2.33-1.11,1.46-.83,2.42-1.92,1.81-4.14ZM799.39,390.68c-.13.17-.27.33-.41.5-.2.25-.42.49-.65.73-.15.16-.31.33-.48.49-.2.2-.41.39-.63.59-.87.78-1.85,1.53-2.89,2.24-.27.18-.53.36-.8.53-1.46.95-3.03,1.83-4.62,2.63-.28.15-.57.29-.85.42-2.84,1.39-5.67,2.52-7.95,3.35-.45.16-.87.31-1.27.44-.43.15-.83.28-1.19.4-5.86,1.88-21.71,6.61-38.58,6.32-16.87-.29-26.91-9.37-30.04-13.59,0,0-3.41-3.42-3.14-10.34.02-.43.04-.86.09-1.28.03-.41.08-.81.15-1.22.12-.77.27-1.52.48-2.25.07-.26.14-.52.23-.77.02-.11.05-.21.09-.31.07-.23.15-.46.24-.68.01-.06.03-.12.06-.17.1-.27.2-.53.31-.79.06-.15.13-.3.2-.45-.49.7-.86,1.38-1.1,2.03-1.72,4.77-2.82,8.39-2.43,12.41.39,4.02,3.24,7.84,3.24,7.84,3.14,4.22,13.18,13.29,30.04,13.58,16.87.3,32.72-4.43,38.58-6.32,5.84-1.89,19.87-7.34,22.97-14.38.49-1.12.9-2.22,1.23-3.3-.25.45-.55.91-.88,1.35ZM800.26,369.97c-3.21-5.29-8.25-12.64-18.77-15.26-2.75-.69-5.8-1.02-8.97-1.11,3.19.14,6.23.51,8.97,1.2,10.52,2.62,15.56,9.97,18.77,15.26,1.29,2.1,2.1,4.37,2.42,6.78-.29-2.44-1.12-4.73-2.42-6.87ZM813.06,365.84c-2.46-6.88-9.49-15.71-12.71-19.33-3.23-3.64-5.68-6.43-5.54-10.09.01-.34.01-.65.01-.92-2.13,1.92-1.48,2.14-1.59,4.93-.14,3.66,2.31,6.46,5.54,10.09,3.22,3.62,10.25,12.46,12.71,19.34,2,5.57,5.1,12.49,3.46,19.39-.13.23-.26.46-.4.69-.33.54-.75,1.12-1.25,1.74-7.29,9.01-32.16,25.68-58.02,27.81-27.63,2.29-40.29-5.84-40.29-5.84,0,0-.38-.22-1.02-.61.64.45,1.02.7,1.02.7,0,0,12.66,8.13,40.29,5.84,27.63-2.28,54.14-21.15,59.27-29.55.56-.91,1-1.83,1.35-2.75.15-.37.27-.74.38-1.11.04-.13.08-.26.11-.39.05-.17.09-.34.13-.51.05-.2.09-.39.13-.58.03-.15.06-.3.08-.45,1.14-6.56-1.76-13.1-3.66-18.4ZM980.01,242.03l-33.42,4.09s-1.79,2.55-2.29,3.32c-.52.78-3.17-1.07-3.17-1.07l-135.17,60.3s-12.58,6.52-17.93-4.35c-5.34-10.87-12.86-32.18-12.86-32.18,0,0-4.95-.34-8.48,0-3.54.34-4.66,4.27-4.66,4.27,0,0,0,.01,0,.02,0,.01.01.02.02.05.03.08.08.21.16.41.02.08.06.16.09.26.59,1.52,2.03,5.27,3.88,10.11.22.57.44,1.15.67,1.75.42,1.11.86,2.26,1.32,3.44.57,1.49,1.16,3.05,1.77,4.63.04.12.09.23.13.35.25.64.49,1.28.73,1.93.18.46.35.91.53,1.37.28.73.56,1.47.84,2.2.02.06.05.13.07.19.27.69.53,1.38.79,2.07.71,1.86,1.41,3.7,2.09,5.49.41,1.07.81,2.12,1.2,3.14,0,.01.01.02.01.03.26.69.52,1.38.77,2.04,1.26,3.33,2.4,6.32,3.29,8.71.18.48.35.93.51,1.36.53,1.43.95,2.56,1.21,3.3.05.13.09.24.12.33.07.2.12.36.16.47.1.32.18.63.23.91-.04-.31-.12-.64-.23-1-.95-2.97-14.6-38.58-19-50.09-.42-1.08-.75-1.94-.98-2.55.68-.6,1.56-1.07,2.69-1.18,3.53-.34,8.48.01,8.48.01,0,0,7.52,21.3,12.86,32.17,5.35,10.88,17.93,4.35,17.93,4.35l70.13-31.28,57.63-25.68c12.49-1.21,25.75-2.39,26.23-2.42,1.21-.08,3.52,3.14,5.42,5.58l17.84-9.08-1.62-7.77Z"/>
      <path class="cls-1" d="M1027.43,213.29c-.01,1.16-.03,2.34-.05,3.54l-.68,19.43s-.1.03-.15.05c.25-5.59.57-11.78.64-17.49-1.91-.23-3.56-.15-3.56-.15,0,0-67.64,15.13-132.76,27.04-55.09,10.07-109.26,11.42-114.35,7.15-11.07-9.28-.8-20.03-10.06-41.14-3.27-7.44-10.51-19.83-40.44-22.57-29.95-2.74-51.28,17.33-51.28,17.33,0,0-12.16,11.6-14.44,26.66,1.44-16.01,14.68-28.65,14.68-28.65,0,0,21.33-20.06,51.28-17.32,29.93,2.74,37.17,15.13,40.44,22.57,3.65,8.33,4.27,15.05,4.35,20.71v.52c.01.74.01,1.47.01,2.18v.5c.11,5.33.89,9.65,5.7,13.68,5.09,4.27,59.26,2.92,114.35-7.15,65.12-11.91,132.76-27.04,132.76-27.04,0,0,1.65-.08,3.56.15Z"/>
      <path class="cls-36" d="M1020.42,236.62s.07.01.07.01h-.07Z"/>
      <path class="cls-1" d="M720.78,258.12c-19,3.01-33.92.13-45.32-8.36-5.97-4.44-8.61-11.23-8.06-18.32v-.07c-1.26,7.82,1.27,15.51,7.82,20.38,11.4,8.48,26.32,11.36,45.32,8.35,17.11-2.72,39.6-10.18,41.16-30.09-2.84,18.43-24.38,25.49-40.92,28.11ZM720.78,258.12c-19,3.01-33.92.13-45.32-8.36-5.97-4.44-8.61-11.23-8.06-18.32v-.07c-1.26,7.82,1.27,15.51,7.82,20.38,11.4,8.48,26.32,11.36,45.32,8.35,17.11-2.72,39.6-10.18,41.16-30.09-2.84,18.43-24.38,25.49-40.92,28.11Z"/>
      <path class="cls-1" d="M698.93,380.18s-.01.03-.01.05c.01-.02.01-.04.02-.06t-.01.01ZM780.91,334.4s-.01,0-.02.01c-.18.11-.38.22-.58.32-.2.11-.41.21-.63.31-.43.2-.88.4-1.33.6-2.61,1.16-40.45,14.5-52.36,20.26-11.91,5.75-21.67,14.14-25.08,19.57-.13.2-.25.41-.36.62-.12.21-.23.42-.34.64-.11.21-.21.43-.31.66-.07.16-.14.32-.21.48-.06.15-.12.3-.17.46-.1.27-.2.54-.28.81-.06.18-.12.36-.17.55-.05.16-.1.32-.13.48.11-.24.25-.46.39-.68,3.41-5.44,13.17-13.82,25.08-19.58,11.91-5.76,49.75-19.09,52.36-20.26.81-.37,1.63-.71,2.33-1.11,1.46-.83,2.42-1.92,1.81-4.14ZM799.39,390.68c-.13.17-.27.33-.41.5-.2.25-.42.49-.65.73-.15.16-.31.33-.48.49-.2.2-.41.39-.63.59-.87.78-1.85,1.53-2.89,2.24-.27.18-.53.36-.8.53-1.46.95-3.03,1.83-4.62,2.63-.28.15-.57.29-.85.42-2.84,1.39-5.67,2.52-7.95,3.35-.45.16-.87.31-1.27.44-.43.15-.83.28-1.19.4-5.86,1.88-21.71,6.61-38.58,6.32-16.87-.29-26.91-9.37-30.04-13.59,0,0-3.41-3.42-3.14-10.34.02-.43.04-.86.09-1.28.04-.41.09-.82.15-1.22.12-.77.27-1.52.48-2.25.06-.26.14-.52.23-.77.02-.11.05-.21.09-.31.07-.23.15-.46.24-.68.01-.06.03-.12.06-.17.09-.27.2-.53.31-.79.06-.15.13-.3.2-.45-.49.7-.86,1.38-1.1,2.03-1.72,4.77-2.82,8.39-2.43,12.41.39,4.02,3.24,7.84,3.24,7.84,3.14,4.22,13.18,13.29,30.04,13.58,16.87.3,32.72-4.43,38.58-6.32,5.84-1.89,19.87-7.34,22.97-14.38.49-1.12.9-2.22,1.23-3.3-.25.45-.55.91-.88,1.35ZM800.26,369.97c-3.21-5.29-8.25-12.64-18.77-15.26-2.75-.69-5.8-1.02-8.97-1.11,3.19.14,6.23.51,8.97,1.2,10.52,2.62,15.56,9.97,18.77,15.26,1.29,2.1,2.1,4.37,2.42,6.78-.29-2.44-1.12-4.73-2.42-6.87ZM813.06,365.84c-2.46-6.88-9.49-15.71-12.71-19.33-3.23-3.64-5.68-6.43-5.54-10.09.01-.34.01-.65.01-.92-2.13,1.92-1.48,2.14-1.59,4.93-.14,3.66,2.31,6.46,5.54,10.09,3.22,3.62,10.25,12.46,12.71,19.34,2,5.57,5.1,12.49,3.46,19.39-.13.23-.26.46-.4.69-.33.54-.75,1.12-1.25,1.74-7.29,9.01-32.16,25.68-58.02,27.81-27.63,2.29-40.29-5.84-40.29-5.84,0,0-.38-.22-1.02-.61.64.45,1.02.7,1.02.7,0,0,12.66,8.13,40.29,5.84,27.63-2.28,54.14-21.15,59.27-29.55.56-.91,1-1.83,1.35-2.75.15-.37.27-.74.38-1.11.04-.13.08-.26.11-.39.05-.17.09-.34.13-.51.05-.2.09-.39.13-.58.03-.15.06-.3.08-.45,1.14-6.56-1.76-13.1-3.66-18.4ZM794.81,333.86v.05c.02-.17.04-.32.08-.48-.03.07-.04.15-.06.22-.01.07-.02.14-.02.21ZM980.01,242.03l-33.42,4.09s-1.79,2.55-2.29,3.32c-.52.78-3.17-1.07-3.17-1.07l-135.17,60.3s-12.58,6.52-17.93-4.35c-5.34-10.87-12.86-32.18-12.86-32.18,0,0-4.95-.34-8.48,0-3.54.34-4.66,4.27-4.66,4.27,0,0,0,.01,0,.02,0,.01.01.02.02.05.03.08.08.21.16.41.02.08.06.16.09.26.59,1.52,2.03,5.27,3.88,10.11.22.57.44,1.15.67,1.75.42,1.11.86,2.26,1.32,3.44.57,1.49,1.16,3.05,1.77,4.63.04.12.09.23.13.35.25.64.49,1.28.73,1.93.18.46.35.91.53,1.37.28.73.56,1.47.84,2.2.02.06.05.13.07.19.27.69.53,1.38.79,2.07.71,1.86,1.41,3.7,2.09,5.49.41,1.07.81,2.12,1.2,3.14,0,.01.01.02.01.03.26.69.52,1.38.77,2.04,1.26,3.33,2.4,6.32,3.29,8.71.18.48.35.93.51,1.36.53,1.43.95,2.56,1.21,3.3.05.13.09.24.12.33.07.2.12.36.16.47.1.32.18.63.23.91-.04-.31-.12-.64-.23-1-.95-2.97-14.6-38.58-19-50.09-.42-1.08-.75-1.94-.98-2.55.68-.6,1.56-1.07,2.69-1.18,3.53-.34,8.48.01,8.48.01,0,0,7.52,21.3,12.86,32.17,5.35,10.88,17.93,4.35,17.93,4.35l70.13-31.28,57.63-25.68c12.49-1.21,25.75-2.39,26.23-2.42,1.21-.08,3.52,3.14,5.42,5.58l17.84-9.08-1.62-7.77Z"/>
      <path class="cls-36" d="M792.92,305.22c-1.32.74-2.78.76-2.78.76,1.22-.16,2.32-.92,3.29-2.29.65-.92-10.27-34.17-9.8-34.28.58-.13,1.15-.25,1.7-.36,2.35,8.69,8.53,31.55,8.91,33.26.48,2.13-.12,2.25-1.32,2.91Z"/>
      <path class="cls-37" d="M780.91,334.4l.36-.24c.12-.09.24-.18.35-.27.11-.1.21-.2.3-.3s.17-.2.25-.31l.02-.02c.07-.11.14-.22.2-.34.05-.1.09-.2.13-.31.02-.05.04-.11.05-.17.04-.12.06-.24.08-.36.02-.14.03-.29.03-.45M698.93,380.18s-.01.03-.01.05c.01-.02.01-.04.02-.06t-.01.01ZM800.62,388.53c-.09.2-.19.41-.29.61-.02.06-.04.13-.06.19.13-.24.25-.47.35-.71,1.31-2.97,2.02-5.8,2.17-8.47-.16,2.65-.88,5.44-2.17,8.38ZM963.79,258.88l-2.88,1.46,2.91-1.42s-.02-.03-.03-.04Z"/>
      <path class="cls-15" d="M958.37,253.3c-.48.03-13.74,1.21-26.23,2.42l-57.63,25.68-70.13,31.28s-12.58,6.53-17.93-4.35c-5.34-10.87-12.86-32.17-12.86-32.17,0,0-4.95-.35-8.48-.01-1.13.11-2.01.58-2.69,1.18.23.61.56,1.47.98,2.55,4.4,11.51,18.05,47.12,19,50.09.11.36.19.69.23,1,.02.1.02.2.03.3.02.11.02.21.02.31v.05c0,.16-.01.31-.03.45-.02.12-.04.24-.08.36-.01.06-.03.12-.05.17-.04.11-.08.21-.13.31-.06.12-.13.23-.2.34,0,0-.01.01-.02.02-.07.11-.15.21-.25.31-.09.1-.19.2-.3.3-.11.09-.23.18-.35.27-.12.08-.24.16-.36.24.61,2.22-.35,3.31-1.81,4.14-.7.4-1.52.74-2.33,1.11-2.61,1.17-40.45,14.5-52.36,20.26-11.91,5.76-21.67,14.14-25.08,19.58-.14.22-.28.44-.39.68-.01.02-.01.04-.02.06,0-.02,0-.03.01-.05-.01.02-.03.05-.04.08-.11.43-.21.86-.29,1.31-.93,4.7-2.04,9.65.68,17.17,2.25,6.24,11.57,13.07,14.68,14.99.64.39,13.68,8.74,41.31,6.45,25.86-2.13,50.73-19.49,58.02-28.5.5-.62.92-1.2,1.25-1.74.14-.23.27-.46.4-.69,1.64-6.9-1.46-13.82-3.46-19.39-2.46-6.88-9.49-15.72-12.71-19.34-3.23-3.63-5.68-6.43-5.54-10.09.11-2.79-.54-3.01,1.59-4.93,0-.24-.01-.45-.01-.65h0c0-.1-.01-.19-.01-.27-.01-.16-.01-.3,0-.43,0-.08,0-.16.01-.24v-.05c0-.07.01-.14.02-.21.15-1.1.93-1.8,4.42-4.63,5.46-4.41,35.11-18.43,60.37-30.2,25.27-11.77,95.58-33.28,95.58-33.28l.91-2.84,4.8-2.35h0s2.88-1.47,2.88-1.47c-1.9-2.44-4.21-5.66-5.42-5.58ZM800.26,369.97c1.3,2.14,2.13,4.43,2.42,6.87.05.35.08.71.1,1.06.05.74.05,1.49,0,2.25-.15,2.67-.86,5.5-2.17,8.47-.1.24-.22.47-.35.71-.33,1.08-.74,2.18-1.23,3.3-3.1,7.04-17.13,12.49-22.97,14.38-5.86,1.89-21.71,6.62-38.58,6.32-16.86-.29-26.9-9.36-30.04-13.58,0,0-2.85-3.82-3.24-7.84-.39-4.02.71-7.64,2.43-12.41.24-.65.61-1.33,1.1-2.03,3.03-4.36,10.46-9.33,15.91-12.44,6.54-3.74,17.04-8.05,24.14-9.14,5.77-.88,15.26-2.47,24.05-2.31.23,0,.46,0,.68.02,3.17.09,6.22.42,8.97,1.11,10.52,2.62,15.56,9.97,18.77,15.26Z"/>
      <path class="cls-15" d="M1023.63,218.67s-67.64,15.13-132.76,27.04c-55.09,10.07-109.26,11.42-114.35,7.15-11.07-9.28-.8-20.03-10.06-41.14-3.27-7.44-10.51-19.83-40.44-22.57-29.95-2.74-51.28,17.33-51.28,17.33,0,0-12.16,11.6-14.44,26.66-1.01,6.66-.09,13.99,4.68,21.29,13.01,19.93,53.26,15.11,53.26,15.11,0,0,44.36-6.99,49.52-5.08,5.16,1.89,16.42,35.39,20.13,41.22.79.29,1.54.4,2.25.3,1.22-.16,2.32-.92,3.29-2.29.65-.92-10.27-34.17-9.8-34.28.58-.13,1.15-.25,1.7-.36,3.37-.67,6.07-.95,6.07-.95,0,0,100.76-10.09,145.78-14.56,12.5-1.24,20.71-2.05,21.26-2.08,1.55-.1,4.6,3.7,6.76,6.7,1.41,1.95,2.44,3.56,2.44,3.56,11.81-3.95,51.42-17.39,58.69-19.82.06-1.76.14-3.64.22-5.59.25-5.59.57-11.78.64-17.49-1.91-.23-3.56-.15-3.56-.15ZM761.7,230.01c-1.56,19.91-24.05,27.37-41.16,30.09-19,3.01-33.92.13-45.32-8.35-6.55-4.87-9.08-12.56-7.82-20.38.64-3.99,2.27-8.02,4.86-11.72,8.75-12.5,29.06-20.47,35.76-21.93,21.84-4.75,45.09-1.43,51.53,17.65,1.86,5.51,2.49,10.37,2.15,14.64Z"/>
      <path class="cls-1" d="M1180.02,236.87l-.72,1.35c-.45-1.42-1.22-3.71-1.71-4.31-.71-.89-2.14-.76-2.14-.76l-111.14-13.72c.23-1.54.46-2.94.66-4.13,37.25,3.95,111.46,14.92,112.5,15.46,1.83.94,2.55,6.11,2.55,6.11Z"/>
      <circle class="cls-1" cx="974.48" cy="244.47" r="4.11"/>
    </g>
    <g id="cardioplegia_cannula" data-name="cardioplegia cannula">
      <g id="uuid-41d69be9-7048-4950-9c51-5ea703b7c547">
        <g id="uuid-e2318ce7-6a06-4da2-bd19-6d9e1c8ab7a9">
          <g id="uuid-6ffc68e0-6b8d-4926-b751-38a5e03d343d">
            <path id="uuid-04489ffa-0eab-4855-b4e7-23b68aa701b5" class="cls-25" d="M483.68,410.77c-.84-1.04-1.05-1.99-1.24-3.18l16.33-9.73c1.07.85,1.66,1.68,2.14,2.74-5.48,3.9-11.01,7.06-17.23,10.17h0Z"/>
            <path class="cls-35" d="M481.01,431.61c-3.59.78-8.42-1.9-18.15-1.94-2.84-.01-5.96.12-8.68-.86-5.72-2.07-8.57-8.55-6.9-14.21,1.06-3.6,3.95-5.96,7.59-6.45,2.65-.36,4.4-1.46,6.04-3.49,1.93-2.39,4.89-3.76,7.86-3.77,8.04-.04,13.24,10.39,12.57,16.68-.33,3.09-.9,5.27.47,8.27.76,1.65,2.79,5.01-.8,5.79Z"/>
            <path class="cls-9" d="M467.68,421.41c-4.88-1.55-4.96,4.6-8.62,4.01-2.08-.33-4.31-.61-6.05-1.96-2.11-1.64-2.71-4.91-1.6-7.29,1-2.15,3.45-3.06,5.64-2.76,2.85.4,4.82-.96,6.25-3.41,1.57-2.7,4.66-5.27,7.95-4.26,5.78,1.76,7.94,8.06,6.23,13.41-.81,2.54,3.05,6.08,1.36,7.71-1.62,1.55-4.29-3.28-11.16-5.46h0Z"/>
            <path id="uuid-24dfa5cd-1ca2-4ec1-8fe0-d181baf25245" class="cls-25" d="M454.91,420.83c-.95.23-1.54-2.64-.72-2.83,6.89-1.54,13.15-3.91,19.85-6.35.78-.29,1.99,1.91,1.52,2.68-6.56,2.78-13.65,4.79-20.65,6.49h0Z"/>
            <path class="cls-22" d="M471.93,409l-6.88,2.7c.26-1.28,1.44-2.41,2.38-3.06,1.11-.76,3.09-.83,4.5.35h0Z"/>
            <path class="cls-10" d="M474.74,421.82c-1.41-.79-2.73-1.34-3.93-2.45l3.95-1.17-.02,3.62h0Z"/>
            <path id="uuid-24ca9c9b-ea10-47c1-85b1-4d434873951c" class="cls-25" d="M432.68,424.98c-.26-1.19-.26-2.08-.11-3.31l11.21-1.55,1.11,3.56-12.21,1.3Z"/>
          </g>
          <path id="uuid-7db6a6ef-5bea-4bef-83f7-fdc992c4e07c" class="cls-25" d="M427.69,435.27c-.42,0-15.33.03-15.33.03-1.55,0-2.83-1.19-2.84-2.74l-.08-11.41c-.01-1.49.97-2.85,2.54-2.85l14.89-.06c1.49,0,2.46.94,2.46,2.44v12.44c-.06,1.17-1.21,2.15-1.63,2.15Z"/>
          <rect id="uuid-6874caf0-ce5f-44cf-b913-15ceb423cc06" class="cls-25" x="371.38" y="422.52" width="35.06" height="5.78"/>
          <g id="uuid-eafb0dad-6fbd-4879-90ae-3df96136d856">
            <path class="cls-25" d="M368.58,431.2c-2.95.55-5.58.39-8.44.23l.23-12.25c2.64-.52,5.27-.48,7.99.11l.22,11.91h0Z"/>
            <rect class="cls-25" x="327.9" y="421.8" width="9.57" height="7.4" transform="translate(-93.67 757.08) rotate(-89.85)"/>
            <rect class="cls-25" x="318.19" y="420.15" width="6.33" height="10.66" transform="translate(-104.3 746.59) rotate(-89.97)"/>
            <rect class="cls-25" x="349.35" y="421.05" width="7.49" height="8.67"/>
            <path class="cls-25" d="M347.23,429.87c-2.83,1.08-2.51,2.7-3.32,3.52-.18.18-1.04.11-1.04-.18v-15.35c1.81-.6,1.08,2.24,4.36,3.46,0,0,0,8.55,0,8.55Z"/>
            <path class="cls-25" d="M340.42,433.25c0,.3-1.36.51-1.61.25l-.3-13.01c-.02-.88-.63-1.56-.29-2.3.28-.63,2.17-.67,2.18-.09l.03,15.15Z"/>
            <path class="cls-25" d="M313.5,428.2c-1.12.24-1.74-.23-2.14-.77-.69-.93-.57-3.28-.18-3.77.25-.32.89-.69,2.3-.46l.02,5Z"/>
          </g>
        </g>
        <g id="uuid-6fe956d5-e241-436f-84af-7865180f0bbf">
          <g id="uuid-338dffbe-c639-4d5d-b86e-949b9f242d55">
            <circle class="cls-1" cx="1080.46" cy="261.6" r="6.83"/>
            <circle class="cls-16" cx="1079.87" cy="261.6" r="3.45"/>
            <line class="cls-2" x1="1082.35" y1="263.46" x2="921.19" y2="295.51"/>
            <line class="cls-2" x1="1081.33" y1="258.82" x2="919.57" y2="285.17"/>
            <path class="cls-25" d="M881.34,301.74c-1-1.88-1.77-5.08-.39-5.5l3.39-1.02c-.05,2.28.37,4.32,1.59,6.36l-3.32.7c-.47.1-.98,0-1.27-.54h0Z"/>
            <path class="cls-25" d="M887.36,301.37c-1.42-2.29-1.95-4.97-1.43-7.63.1-.52.34-1.01.87-1.09-.82,3.32-.16,6.75,1.84,9.61-.54.02-.99-.42-1.27-.89h0Z"/>
            <path class="cls-35" d="M890.93,301.89c-2.79-.23-3.64-5.07-3.27-7.95.09-.7.45-1.29.97-1.63l7.61-1.55,6.19-1.42c-.3,3.33.34,6.53,1.84,9.48l-13.34,3.06h0Z"/>
            <path class="cls-25" d="M908.23,299.8c-1.12.24-2.14-.85-2.64-1.68-2.53-4.2-2.25-10.71-.35-11.08l13.36-2.61c-1.59,4.19-.45,8.96,2.2,12.71l-12.58,2.65h0Z"/>
            <rect class="cls-25" x="933.36" y="280.7" width="83.31" height="2.9" transform="translate(-34.94 180.89) rotate(-10.41)"/>
            <rect class="cls-25" x="932.73" y="277.13" width="83.49" height="2.57" transform="translate(-34.3 180.96) rotate(-10.43)"/>
            <path class="cls-25" d="M1029.08,273.58c-.41-1.01-.46-2.03-.52-3.09l32.76-6.32,19.19-3.59c.72-.14,1.2-.41,1.66.12.3.35.33,1.7-.35,1.84l-33.25,7.03-19.5,4.02Z"/>
            <path class="cls-25" d="M1021.44,277.29c-.55.47-.88,1-1.52.96-.56-.03-1.21-.45-1.43-1.13-.99-3.08-1.61-6.25-1.73-9.5-.03-.75.37-1.39.9-1.62.73-.32,1.36.05,1.98.53.6.46,1.47-.02,2.23-.13-.06,3.54.59,6.81,1.78,10.11l-2.22.78h0Z"/>
            <path class="cls-25" d="M932.14,287.98l-12.75,2.41c-.18-1.19-.26-2.36-.18-3.73l12.21-2.26.72,3.58h0Z"/>
            <path class="cls-25" d="M1028.09,275.72c.34.91-.03,1.62-.82,1.92-.61.23-1.64.08-1.98-.8-1.25-3.23-3.06-11.06-.99-12.29.56-.33,1.33-.15,1.82.23.67.52.41,1.18.34,1.98-.28,3.06.54,6.05,1.62,8.96h0Z"/>
            <path class="cls-25" d="M932.85,291.96l-12.15,2.59c-.49-1.03-.8-1.95-1.05-3.03l12.5-2.45c.37.87.48,1.58.7,2.9h0Z"/>
            <path class="cls-25" d="M1028.48,269.44c-.42.08-.52-1.28-.21-1.33l22.02-3.2s29.64-5.11,30.76-4.93c-.81.37-30.56,5.27-30.56,5.27l-22.01,4.19Z"/>
          </g>
          <g id="uuid-088cefe7-36aa-4a22-bd44-a13477a86e00">
            <path class="cls-14" d="M594.96,401.47l-6.31,11.9c-.4.75-.93,1.25-1.54,1.38-1.02.21-1.55-.4-2.32-1.05-7-5.93-14.58-10.82-22.47-15.42-3.67-2.14-5.27-6.03-5.5-10.11-.41-7.15,4.02-13.71,11.19-14.87,3.84-.62,7.78.69,10.91,2.81,2.49,1.68,4.97,2.16,7.99,2.16,4.76.01,9.27,2.32,11.1,6.71,2.39,5.75.54,11.47-3.03,16.49h0Z"/>
            <path class="cls-21" d="M592.25,397.04c-3.99,1.83.47,6.49-3.49,10.93-.58.65-2.21,2.61-2.94,1.28l-6.93-12.6c-1.13-2.06-3.36-2.13-5.42-.87-2.44,1.49-10.34-1.71-10.39-7.98-.02-3.12,1.6-6.46,4.91-7.59,2.77-.95,5.96.31,7.86,2.45,2.06,2.33,4.49,2.86,7.55,2,5.46-1.55,10.72,1.22,11.67,6.88.38,2.29-.58,4.47-2.81,5.49h0Z"/>
            <path class="cls-25" d="M575.75,386.85c9.4,2.27,14.45-1.63,16.35,4.57l-25.17-1.33c-1.13-.06-1.44-3.51-.46-3.86,2.83-.09,6.47-.06,9.28.61Z"/>
            <path class="cls-28" d="M587.35,398.91l.15,6.55-6.8-11.69,9.86.52c-1.68,1.09-3.27,2.33-3.21,4.62h0Z"/>
          </g>
          <path id="uuid-68d26186-6a17-4f93-a4bd-242fcaa943db" class="cls-25" d="M553.45,389.71l-17.58-.76c-.22-1.56-.18-3.07.04-4.85l17.45,1.08c.21,1.4.29,2.54.08,4.53h0Z"/>
          <g id="uuid-cfa13e46-5885-45e9-bae6-6444d2170c5d">
            <path class="cls-25" d="M520.56,391.07c-4.56.59-7.97,3.54-11.73,5.8l-3.4-5.11,5.05-5c1.08-1.07.35-2.28-.63-3.08l-10.1-8.25,5.2-6.09c5.07,3.64,9.76,7.57,15.66,9.54l12.91,2.26-.24,10.08-12.71-.15h0Z"/>
            <rect class="cls-25" x="502.08" y="393.27" width="3.65" height="6.72" transform="translate(-136.37 360.71) rotate(-35)"/>
          </g>
          <g id="uuid-12e2bf5e-8f1b-4c76-833e-2e1992d11280">
            <path class="cls-14" d="M458.97,374.41c-.66.76-1.34,1.26-1.87,1.36-.86.16-1.79-.18-2.47-.9l-11.88-12.57-8.59-6.95c-6.05-4.89-6.66-13.53-2.32-19.72,2.28-3.24,5.24-5.68,9.25-6.28,4.7-.7,9.27,1.14,12.72,4.36,2.7,2.51,5.67,3.76,9.36,4.14,6.81.69,11.96,5.83,11.79,12.82-.09,3.61-1.44,7.03-3.82,9.77l-12.18,13.99h0Z"/>
            <path class="cls-21" d="M462.42,356.27l-10.11-3.35,2.22,4.58,3.75,11.69c.32.98-.51,1.9-1.16,2.04-.72.15-1.88-.32-2.02-1.3-.71-5.11-2.16-9.88-4.47-14.51-2.01-4.02-5.69.76-11.47-4.55-2.93-2.69-4.38-6.31-2.73-10.24,1.45-3.45,5.4-5.4,9.04-4.06,5.95,2.2,5.09,9.15,11.47,7.6,3.22-.78,7.39-.34,9.8,2.09,3.26,3.29,3.01,8.64.57,12.28l-3.68.29c-3.02,4.46,1.92,9-2.41,8.93-1.83-3.44-2.26-7.99,1.21-11.5h0Z"/>
            <rect class="cls-25" x="450.94" y="333.36" width="3.08" height="29.85" transform="translate(-20.77 667.78) rotate(-71.61)"/>
            <path class="cls-8" d="M447.81,342.08c-2.32-.72-4.44-1.12-6.87-2.5,2.71-1.15,5.15.22,6.87,2.5Z"/>
            <path class="cls-11" d="M445.83,350.48c-1.62.46-3.08.06-4.04-1.28,1.68-.1,2.63.49,4.04,1.28Z"/>
          </g>
          <g id="uuid-ebe27b18-93ce-4064-82e2-b4fc05f04f7d">
            <rect class="cls-25" x="407.38" y="319.18" width="3.62" height="35.21" transform="translate(-12.53 657.76) rotate(-76.73)"/>
            <path class="cls-25" d="M498.65,372.11c-7.35-4.92-14.37-9.46-22.37-13.07,0-1.12.43-2.09,1.13-3.02,8.48,3.63,15.97,8.35,23.44,13.69-.37,1.01-.95,1.89-2.19,2.39h0Z"/>
          </g>
          <g id="uuid-eb36eb09-fa77-4ad5-a8e1-580b737a63c7">
            <polygon class="cls-25" points="388.44 337.09 380.73 335.7 382.82 325.21 390.41 327.18 388.44 337.09"/>
            <polygon class="cls-25" points="378.89 333.59 370.97 332.08 372.66 324.37 380.1 325.97 378.89 333.59"/>
            <path class="cls-25" d="M349.58,326.02l-10.13-2.06c-.15-1.8.21-3.39.62-5.34l10.42,1.9-.92,5.49Z"/>
            <rect class="cls-25" x="351.54" y="321.21" width="7.98" height="6.82" transform="translate(-32.59 609.46) rotate(-78.67)"/>
            <path class="cls-25" d="M368.33,321.27c-.34,1.05,3.37,2.32-.08,9.79-.66,1.43-2.21,2.67-4.14,3.22l2.63-14.33c.21-.48,1.94.21,1.58,1.32h0Z"/>
            <path class="cls-25" d="M361.67,332.75c-.13.65-.81.79-1.07.74-.52-.1-.94-.61-.78-1.34l2.88-13.18c.12-.53.95-.48,1.24-.12.21.25.46.58.33,1.21l-2.59,12.69Z"/>
            <path class="cls-25" d="M337.16,318.55c.72.46-.07,3.52-.3,3.8-.3.37-1.17.22-1.51,0-.81-.53-.5-2.72.04-3.53.31-.46,1.77-.27,1.77-.27Z"/>
          </g>
          <path class="cls-25" d="M602.02,385.68c71.36-10.17,119.74-60.06,277.04-88.23.38,1.75.53,2.36.71,3.42-158.81,29.82-222.47,84.5-277.14,88.85-.18-1.21-.61-4.05-.61-4.05Z"/>
        </g>
      </g>
    </g>
    <g id="arterial_cannula" data-name="arterial cannula">
      <g>
        <ellipse class="cls-6" cx="1098.74" cy="197.79" rx="10.37" ry="9.19" transform="translate(630 1211.02) rotate(-75.38)"/>
        <path class="cls-31" d="M1091.42,204.97c-1.95-2.48-2.73-6.03-1.81-9.57.71-2.74,2.33-5.07,4.56-6.56,2.23-1.5,4.81-1.97,7.26-1.33,2.44.64,4.46,2.31,5.68,4.71,1.21,2.39,1.49,5.21.77,7.95s-2.33,5.07-4.56,6.56c-2.23,1.5-4.81,1.97-7.26,1.33-1.89-.49-3.48-1.6-4.64-3.09ZM1105.68,190.9c-1.13-1.44-2.64-2.45-4.38-2.9-2.3-.6-4.74-.15-6.85,1.26-2.12,1.42-3.67,3.65-4.35,6.27-1.41,5.4,1.33,10.8,6.1,12.05,2.3.6,4.74.15,6.85-1.26,2.12-1.42,3.67-3.65,4.35-6.27h0c.68-2.62.42-5.32-.73-7.6-.28-.56-.61-1.07-.98-1.55Z"/>
      </g>
      <g>
        <polygon class="cls-20" points="756.92 135.09 756.3 135.16 756.92 135.09 756.92 135.09"/>
        <path class="cls-31" d="M756.92,135.09l-.61.08.62-.07h0ZM756.92,135.09l-.61.08.62-.07h0ZM756.92,135.09l-.61.08.62-.07h0ZM756.92,135.09l-.61.08.62-.07h0Z"/>
      </g>
      <g>
        <path class="cls-5" d="M754.14,137.06c-.73-.05-16.41-1.26-18.38-1.4-1.8-.14-2.45.31-3.35.93-.15.1-.31.22-.49.33-1.08.7-2.88.16-2.91.15l-12.84-3.43c-.26-.29-1.82-2.14-2.35-6.39l-.07.08c-.05.05-.09.1-.14.15-.02-.1-.03-.2-.05-.32-.03-.3-.06-.6-.09-.92-.01-.08-.02-.17-.02-.25,0-.09-.02-.17-.01-.26l-.03-.67c0-.24,0-.46-.02-.7-.01-1.43.08-3.05.34-4.88.16-1.22.4-2.32.71-3.32.02-.08.05-.16.08-.24.02-.08.05-.16.08-.24.18-.52.37-1,.57-1.46.03-.09.08-.18.12-.26l.09.11.08.12c1.98-4.44,5.1-6.19,5.57-6.43l11.86,1.28c1.7.13,2.69,1.11,3.65,2.06l.18.18c1.09,1.08,3.37,1.4,3.46,1.41l5.9.94c4.4.64,11.19,1.98,12.09,3.12.01.02.02.04.03.05.39.6.54,1.1.46,1.42-.03.11-.09.18-.13.22-.16-.03-.31-.05-.44-.07-.06,0-.11-.01-.17-.02-.02,0-.05-.01-.07,0,.02,0,.04,0,.06,0,.01-.03.01-.06.01-.1,0-.24-.28-.42-.44-.56-.41-.35-.95-.63-1.51-.51-.37.08-.69.32-.96.59-1.16,1.11-1.75,2.7-2.18,4.25-.71,2.49-1.13,5.04-1.27,7.62-.02.54-.04,1.08.04,1.62.13.84.52,1.63.91,2.39.2.37.39.75.71,1,.32.27.79.4,1.16.22.06-.04.12-.07.18-.11.09.05.17.11.26.15.09.05.18.1.27.15.52.29.96.53,1.07.58l.07.04.17-.02c-.6,1.13-2.04,1.37-2.23,1.41Z"/>
        <path class="cls-31" d="M713.66,123.54c0-.26.01-.52.03-.77.05-1.04.14-2.13.29-3.26.08-.57.17-1.14.29-1.68.06-.29.13-.57.2-.84.07-.27.14-.53.23-.79l-.26-.04-.24-.04c-.33,1.04-.57,2.16-.71,3.32-.2,1.48-.31,2.9-.34,4.23,0,.27,0,.53,0,.79,0,.42.01.83.04,1.23l.25.03.24.04c-.04-.71-.05-1.45-.03-2.22ZM757.9,118.33s-.04,0-.06,0c.02,0,.05,0,.07,0h0ZM713.61,127.48c.05-.05.09-.1.14-.15l.07-.08v-.12c-.03-.18-.05-.37-.07-.57-.01-.09-.02-.19-.03-.3-.01-.09-.02-.19-.03-.3,0-.07,0-.14-.01-.21-.04-.71-.05-1.45-.03-2.22,0-.26.01-.52.03-.77.05-1.04.14-2.13.29-3.26.08-.57.17-1.14.29-1.68.06-.29.13-.57.2-.84.07-.27.14-.53.23-.79l.06-.2c.03-.1.06-.19.1-.28.07-.23.16-.47.25-.69.08-.23.18-.47.28-.71l.06-.14-.08-.12-.09-.11c-.06-.07-.12-.14-.19-.19-.04.08-.08.16-.11.25-.02.03-.04.07-.05.1-.02.04-.04.09-.06.14-.1.24-.19.47-.28.7-.09.24-.18.46-.25.69-.03.06-.05.13-.07.2,0,.01,0,.02-.01.03h0c-.02.09-.04.17-.06.25-.33,1.04-.57,2.16-.71,3.32-.2,1.48-.31,2.9-.34,4.23,0,.27,0,.53,0,.79,0,.42.01.83.04,1.23,0,.09,0,.17.01.26,0,.01,0,.04,0,.05,0,.07.01.14.02.2.02.3.05.58.08.86h0s.01.09.01.12c0,.06.01.13.03.18,0,.11.02.21.04.31.08-.06.15-.13.23-.21ZM757.9,118.33s-.04,0-.06,0c.02,0,.05,0,.07,0h0ZM713.66,123.54c0-.26.01-.52.03-.77.05-1.04.14-2.13.29-3.26.08-.57.17-1.14.29-1.68.06-.29.13-.57.2-.84.07-.27.14-.53.23-.79l-.26-.04-.24-.04c-.33,1.04-.57,2.16-.71,3.32-.2,1.48-.31,2.9-.34,4.23,0,.27,0,.53,0,.79,0,.42.01.83.04,1.23l.25.03.24.04c-.04-.71-.05-1.45-.03-2.22Z"/>
      </g>
      <path class="cls-31" d="M711.77,128.41s-.06,0-.09,0h.1s-.01,0-.01,0Z"/>
      <g>
        <path class="cls-20" d="M713.46,125.98l-1.44-.2c-.35-1.3-.61-3.05-.44-5.02.02-.23.05-.47.09-.69.29-1.61,1-3.14,1.7-4.32l1.16.18c-.35,1.06-.62,2.24-.8,3.56-.34,2.55-.4,4.7-.28,6.51Z"/>
        <path class="cls-31" d="M711.82,126.01l-.04-.16c-.31-1.15-.64-2.98-.44-5.11.02-.24.05-.48.1-.72.25-1.38.83-2.86,1.73-4.41l.09-.15,1.62.24-.09.28c-.36,1.1-.62,2.28-.79,3.51-.31,2.33-.41,4.51-.28,6.46l.02.31-1.9-.26ZM713.5,116.02c-.82,1.44-1.35,2.82-1.58,4.1-.04.22-.07.45-.09.67-.18,1.97.1,3.66.39,4.78l.97.13c-.1-1.91,0-4.01.3-6.25.15-1.16.39-2.27.72-3.32l-.7-.11Z"/>
      </g>
      <g>
        <path class="cls-31" d="M713.61,127.48c.05-.05.09-.1.14-.15l.07-.08v-.12c-.03-.18-.05-.37-.07-.57-.01-.09-.02-.19-.03-.3,0-.1,0-.2-.02-.3l-.02-.2-.24-.04-.25-.03-.97-.13c-.29-1.12-.57-2.81-.39-4.78.02-.23.05-.45.1-.67.23-1.28.76-2.66,1.58-4.1l.71.11.24.04.26.04.06-.2c.03-.1.06-.19.1-.28.07-.23.16-.47.25-.69.08-.23.18-.47.28-.71l.06-.14-.08-.12-.09-.11c-.06-.07-.12-.14-.19-.19-.34-.37-.75-.6-1.17-.67l-.13-.02c-.19-.03-.38-.08-.61-.05,0,0-.01,0-.02,0l-23.82-3.19h-.11s-.09.07-.09.07c-.12.11-3.02,2.75-3.46,7.36-.43,4.6,1.36,7.68,1.45,7.8l.06.11,23.79,3.15.08.02.12.02h.11s.06.03.06.03c.1.02.2.02.3.03,0,0,0,0,.01,0,0,0,0,0,.01,0,.03-.01.05,0,.09,0,.54-.02,1.09-.27,1.61-.73.08-.06.15-.13.23-.21ZM687.5,124.71c-.31-.57-1.7-3.43-1.32-7.41.39-3.98,2.75-6.49,3.22-6.96l23.18,3.11c-.19.23-.48.58-.81,1.07l-.18.27c-.1.17-.21.33-.32.5l-.06.11c-.84,1.44-1.4,2.92-1.63,4.41-.04.24-.07.48-.1.71-.19,2.14.14,3.95.43,5.09.03.12.07.23.09.35.03.09.06.19.09.28.07.21.14.42.2.62.1.26.2.52.28.72.03.08.06.14.1.2l-23.19-3.08ZM711.45,127.9s-.09-.02-.18-.04v-.02c-.03-.05-.06-.11-.09-.18-.02-.05-.04-.1-.07-.15-.05-.11-.11-.25-.17-.39-.05-.15-.11-.31-.18-.48-.04-.11-.09-.24-.12-.36-.09-.25-.17-.51-.24-.79-.29-1.1-.61-2.84-.41-4.91.01-.23.05-.46.09-.68.22-1.43.76-2.86,1.57-4.23l.06-.11c.11-.17.21-.33.31-.48l.17-.26c.36-.5.68-.85.9-1.09.07-.08.13-.16.18-.21h0c.14-.01.27.01.42.04l.15.02c.38.07.73.3,1.05.67-.1.24-.19.47-.28.7-.09.24-.18.46-.25.69l-1.13-.17-.08.14c-.91,1.55-1.48,3.03-1.73,4.41-.04.24-.08.48-.09.72-.19,2.13.13,3.95.44,5.11l.05.16,1.4.2c.02.3.05.58.08.86h0c-.45.47-1.11.96-1.84.83Z"/>
        <path class="cls-32" d="M711.45,127.9s-.09-.02-.18-.04v-.02c-.03-.05-.06-.11-.09-.18-.02-.05-.04-.1-.07-.15-.05-.11-.11-.25-.17-.39-.05-.15-.11-.31-.18-.48-.04-.11-.09-.24-.12-.36-.09-.25-.17-.51-.24-.79-.29-1.1-.61-2.84-.41-4.91.01-.23.05-.46.09-.68.22-1.43.76-2.86,1.57-4.23l.06-.11c.11-.17.21-.33.31-.48l.17-.26c.36-.5.68-.85.9-1.09.07-.08.13-.16.18-.21h0c.14-.01.27.01.42.04l.15.02c.38.07.73.3,1.05.67-.1.24-.19.47-.28.7-.09.24-.18.46-.25.69l-1.13-.17-.08.14c-.91,1.55-1.48,3.03-1.73,4.41-.04.24-.08.48-.09.72-.19,2.13.13,3.95.44,5.11l.05.16,1.4.2c.02.3.05.58.08.86h0c-.45.47-1.11.96-1.84.83Z"/>
        <path class="cls-23" d="M710.69,127.79l-23.19-3.08c-.31-.57-1.7-3.43-1.32-7.41.39-3.98,2.75-6.49,3.22-6.96l23.18,3.11c-.19.23-.48.58-.81,1.07l-.18.27c-.1.17-.21.33-.32.5l-.06.11c-.84,1.44-1.4,2.92-1.63,4.41-.04.24-.07.48-.1.71-.19,2.14.14,3.95.43,5.09.03.12.07.23.09.35.03.09.06.19.09.28.07.21.14.42.2.62.1.26.2.52.28.72.03.08.06.14.1.2Z"/>
      </g>
      <g>
        <path class="cls-31" d="M756.3,135.16c-.34-.19-.93-.5-1.47-.83-.54-.31-1.04-.62-1.21-.79-.33-.47-.09-5.37.29-7.3.35-1.85,2.04-6.75,2.6-7.32.04-.03.13-.1.39-.12.06,0,.14-.02.23-.02.16,0,.36,0,.61.03.22.02.48.07.78.12l.08.02c.09.02.19.04.29.06.33.07.77.15,1.2.24-.02.02-.03.05-.05.09-.15.2-.28.42-.41.65-.13.23-.27.48-.4.74-.09.16-.17.33-.25.5-.09.17-.17.35-.26.53-.01.03-.03.07-.04.11-.13.29-.26.58-.36.88-.37.95-.69,1.99-.94,3.06-.1.38-.19.77-.26,1.16-.11.6-.22,1.2-.29,1.79h0c-.06.61-.12,1.19-.15,1.77-.03.3-.04.6-.04.89-.01.45,0,.9.02,1.33.01.24.03.49.05.73.05.56.12,1.09.21,1.6h0s-.62.08-.62.08ZM764.3,137.49l-.14-.02-.08.1c-1.24,1.5-2.55,2.21-3.69,1.98-1.29-.26-2.34-1.71-2.87-4.03-.02-.09-.04-.18-.06-.27-.19-.89-.3-1.87-.31-2.92,0-.01-.01-.03,0-.04-.05-1.63.11-3.41.46-5.22.6-3.07,1.71-5.86,3.11-7.84,1.37-1.98,2.86-2.92,4.17-2.67.6.12,1.15.49,1.62,1.09.07.09.15.19.22.3l.06.09,152.33,22.65,2.38.36c-.13.13-.3.3-.49.5-.08.1-.18.21-.29.33-.1.12-.2.25-.31.38-.11.12-.22.27-.33.42-.12.14-.23.31-.34.47-.11.16-.22.33-.34.52-.11.18-.23.37-.35.56,0,0-.02.01-.03.03-.1.19-.21.38-.31.58-.11.21-.23.45-.33.69-.1.21-.19.43-.29.66-.09.24-.19.49-.27.74-.09.26-.17.51-.24.78-.05.18-.1.37-.15.57-.03.12-.05.26-.08.39-.06.25-.1.51-.14.77-.03.28-.07.56-.09.86-.06.89-.07,1.76-.04,2.57,0,.02,0,.05,0,.07.01.18.02.35.03.52v.03c.02.32.05.65.09.96.03.3.07.59.11.88.11.76.26,1.46.4,2.09.15.64.31,1.21.47,1.68.08.27.17.5.24.71.08.25.17.45.23.62l-154.37-22.97ZM1101.95,192.71l-.07-.04c-.74-.38-1.59-.79-2.51-1.23-7.11-3.42-18.91-8.74-25.12-11.48-9.35-4.12-33.78-11.9-51.06-16.75-12.55-3.52-40.48-8.24-55.5-10.77-4.93-.84-8.51-1.44-9.7-1.7-4.93-1.04-24.58-7.1-29.09-8.67-4.41-1.55-6.53-1.46-6.86-1.43,0-.01-.03,0-.03,0l-2.6-.39-152.34-22.66c-.58-.84-1.29-1.35-2.09-1.51-1.5-.29-3.12.67-4.59,2.72h-.05c-.44-.09-.89-.18-1.24-.25-.02,0-.03,0-.04-.01.02-.04.05-.1.07-.17.15-.47-.03-1.1-.51-1.84-1.11-1.72-11.32-3.24-12.48-3.41l-5.89-.93s-2.21-.32-3.18-1.28l-.19-.17c-.96-.97-2.07-2.06-3.95-2.21l-11.99-1.29-.07.03c-.14.07-3.56,1.7-5.77,6.5.08.06.14.12.19.19l.09.11.08.12c1.98-4.44,5.1-6.2,5.57-6.43l11.86,1.28c1.7.12,2.69,1.1,3.65,2.05l.17.18c1.09,1.08,3.38,1.39,3.47,1.41l5.89.94c4.41.64,11.2,1.98,12.09,3.12,0,.02.02.04.03.05.39.6.55,1.1.46,1.43-.03.11-.09.18-.14.22-.16-.03-.3-.05-.44-.08-.05,0-.11-.01-.16-.02-.02,0-.05,0-.07,0-.08-.01-.16-.02-.23-.02-.42-.04-.72-.02-.95.02-.05,0-.09.02-.13.04-.19.06-.3.14-.38.22-.72.73-2.41,5.88-2.73,7.56-.3,1.5-.75,7-.18,7.72l.02.03s.07.06.11.09c.04.03.09.08.14.11.26.19.64.43,1.03.65.09.05.17.11.26.15.1.06.18.1.27.15.52.29.96.53,1.07.59l.07.03h.16c-.6,1.12-2.04,1.36-2.23,1.39-.72-.05-16.4-1.25-18.37-1.4-1.8-.14-2.46.31-3.36.93-.14.1-.31.22-.49.33-1.08.7-2.87.16-2.9.15l-12.85-3.43c-.26-.29-1.82-2.14-2.35-6.39l-.07.08s-.09.1-.14.15c-.08.07-.15.14-.23.2.5,3.5,1.66,5.34,2.2,6.03.17.21.28.32.3.34l13.01,3.5c.07.04,2.02.61,3.3-.2.19-.12.35-.24.51-.35.85-.58,1.41-.97,3.03-.84,2.01.15,18.4,1.4,18.4,1.4h.05c.09-.01,2.14-.26,2.76-1.97h.08c.31,1.36.77,2.44,1.38,3.22.53.67,1.17,1.1,1.9,1.24,1.32.26,2.73-.45,4.07-2.04l154.54,22.99.17.02s.15,0,.4,0c3.52.09,29.22.73,36.11.55,6.8-.19,41.02,6.94,59.4,10.77l4.51.94c16.96,3.52,42.35,13.45,53.2,17.7,7.6,2.97,15.69,7.4,21.14,10.6,1.07.64,2.02,1.21,2.79,1.67l.09.04c2.34.32,4.79-1.23,5.98-3.78,1.13-2.44.83-5.17-.75-6.81ZM1102.25,199.31c-1.09,2.34-3.31,3.76-5.41,3.5-.77-.46-1.69-1.02-2.74-1.65-5.47-3.21-13.59-7.66-21.22-10.64-10.86-4.25-36.28-14.19-53.28-17.73l-4.5-.92c-18.41-3.85-52.67-10.98-59.53-10.8-7.07.2-34.01-.49-36.32-.55-.01-.02-.03-.05-.04-.08-.13-.3-.37-.92-.64-1.8-.08-.27-.16-.57-.25-.88-.02-.08-.03-.15-.05-.24-.02-.08-.05-.18-.07-.27-.03-.13-.06-.26-.09-.4-.04-.14-.06-.29-.09-.43-.05-.26-.1-.54-.15-.82-.03-.24-.07-.47-.1-.71-.17-1.36-.25-2.88-.13-4.53.01-.18.03-.36.05-.53.03-.21.05-.41.09-.61.02-.15.04-.28.07-.42.13-.68.31-1.31.51-1.89.1-.3.21-.58.32-.85.07-.14.13-.28.2-.41.05-.14.11-.27.19-.39.06-.15.14-.29.21-.42.13-.23.25-.45.37-.65.07-.1.13-.2.19-.3.06-.1.13-.19.19-.29,0-.01,0-.02.03-.03.06-.1.14-.2.21-.29.04-.07.08-.15.14-.21.06-.08.12-.17.19-.24.3-.4.58-.73.83-.99.07-.08.14-.14.2-.21l.2-.2s.07-.07.11-.1c.08-.09.15-.15.19-.19h.01c.43-.03,2.52-.02,6.6,1.4,4.52,1.57,24.2,7.65,29.15,8.69,1.21.26,4.77.87,9.72,1.7,15,2.53,42.92,7.25,55.45,10.77,17.25,4.84,41.66,12.6,51,16.72,6.2,2.74,17.99,8.04,25.1,11.47.9.44,1.72.84,2.46,1.21,1.41,1.47,1.66,3.98.63,6.21Z"/>
        <path class="cls-1" d="M1102.25,199.31c-1.09,2.34-3.31,3.76-5.41,3.5-.77-.46-1.69-1.02-2.74-1.65-5.47-3.21-13.59-7.66-21.22-10.64-10.86-4.25-36.28-14.19-53.28-17.73l-4.5-.92c-18.41-3.85-52.67-10.98-59.53-10.8-7.07.2-34.01-.49-36.32-.55-.01-.02-.03-.05-.04-.08-.13-.3-.37-.92-.64-1.8-.08-.27-.16-.57-.25-.88-.02-.08-.03-.15-.05-.24-.02-.08-.05-.18-.07-.27-.03-.13-.06-.26-.09-.4-.04-.14-.06-.29-.09-.43-.05-.26-.1-.54-.15-.82-.03-.24-.07-.47-.1-.71-.17-1.36-.25-2.88-.13-4.53.01-.18.03-.36.05-.53.03-.21.05-.41.09-.61.02-.15.04-.28.07-.42.13-.68.31-1.31.51-1.89.1-.3.21-.58.32-.85.07-.14.13-.28.2-.41.05-.14.11-.27.19-.39.06-.15.14-.29.21-.42.13-.23.25-.45.37-.65.07-.1.13-.2.19-.3.06-.1.13-.19.19-.29,0-.01,0-.02.03-.03.06-.1.14-.2.21-.29.04-.07.08-.15.14-.21.06-.08.12-.17.19-.24.3-.4.58-.73.83-.99.07-.08.14-.14.2-.21l.2-.2s.07-.07.11-.1c.08-.09.15-.15.19-.19h.01c.43-.03,2.52-.02,6.6,1.4,4.52,1.57,24.2,7.65,29.15,8.69,1.21.26,4.77.87,9.72,1.7,15,2.53,42.92,7.25,55.45,10.77,17.25,4.84,41.66,12.6,51,16.72,6.2,2.74,17.99,8.04,25.1,11.47.9.44,1.72.84,2.46,1.21,1.41,1.47,1.66,3.98.63,6.21Z"/>
        <path class="cls-18" d="M763.77,134.65c-1.24,1.5-2.55,2.21-3.69,1.98-1.29-.26-2.34-1.71-2.87-4.03-.02-.09-.04-.18-.06-.27,0-.01-.01-.03,0-.04-.05-1.63.11-3.41.46-5.22.6-3.07,1.71-5.86,3.11-7.84,1.37-1.98,2.86-2.92,4.17-2.67.6.12,1.15.49,1.62,1.09.07.09.15.19.22.3l.06.09,152.33,22.65,2.38.36c-.13.13-.3.3-.49.5-.08.1-.18.21-.29.33-.1.12-.2.25-.31.38-.11.12-.22.27-.33.42-.12.14-.23.31-.34.47-.11.16-.22.33-.34.52-.11.18-.23.37-.35.56,0,0-.02.01-.03.03-.1.19-.21.38-.31.58-.11.21-.23.45-.33.69-.1.21-.19.43-.29.66-.09.24-.19.49-.27.74-.09.26-.17.51-.24.78-.05.18-.1.37-.15.57-.03.12-.05.26-.08.39-.06.25-.1.51-.14.77-.03.28-.07.56-.09.86-.06.89-.07,1.76-.04,2.57,0,.02,0,.05,0,.07.01.18.02.35.03.52v.03c.02.32.05.65.09.96.03.31.06.6.11.88.11.76.26,1.46.4,2.09l-153.74-22.88-.14-.02-.08.1Z"/>
        <polygon class="cls-31" points="756.92 135.09 756.3 135.16 756.92 135.09 756.92 135.09"/>
        <path class="cls-6" d="M764.08,137.57c-1.24,1.5-2.55,2.21-3.69,1.98-1.29-.26-2.34-1.71-2.87-4.03-.02-.09-.04-.18-.06-.27-.19-.89-.3-1.87-.31-2.92.02.09.04.18.06.27.53,2.31,1.58,3.77,2.87,4.03,1.14.22,2.46-.48,3.69-1.98l.08-.1.14.02,153.74,22.88c.15.64.31,1.21.47,1.68.08.27.17.5.24.71.08.25.17.45.23.62l-154.37-22.97-.14-.02-.08.1Z"/>
        <path class="cls-18" d="M756.92,135.09l-.61.08c-.34-.19-.93-.5-1.47-.83-.54-.31-1.04-.62-1.21-.79-.33-.47-.09-5.37.29-7.3.35-1.85,2.04-6.75,2.6-7.32.04-.03.13-.1.39-.12.07-.01.14-.01.23-.02.16,0,.36,0,.61.03.22.02.48.07.78.12l.08.02c.09.02.19.04.29.06.33.07.77.15,1.2.24-.02.02-.03.05-.05.09-.15.2-.28.42-.41.65-.13.23-.27.48-.4.74-.09.16-.17.33-.25.5-.09.17-.17.35-.26.53-.01.03-.03.07-.04.11-.13.29-.26.58-.36.88-.37.95-.69,1.99-.94,3.06-.1.38-.19.77-.26,1.16-.11.6-.22,1.2-.29,1.79h0c-.06.61-.12,1.19-.15,1.77-.03.3-.04.6-.04.89-.01.45,0,.9.02,1.33.01.24.03.49.05.73.05.56.12,1.09.21,1.6Z"/>
      </g>
      <path class="cls-24" d="M733.96,117.03c-1.29,4.11-2.11,8.53-1.09,12.72.1.39.21.79.22,1.19.04,1.27-.92,2.36-1.94,3.12-.26-.34-.4-.74-.54-1.15-2.13-6.37-1.56-13.61,1.55-19.57.32-.62.68-1.23,1.12-1.78.2-.24.49-.5.79-.41.09.03.17.08.24.14.71.55,1.57,1.49,1.15,2.39-.53,1.13-1.13,2.12-1.51,3.34Z"/>
      <g>
        <path class="cls-24" d="M754.54,134.75c-.06.04-.12.08-.18.11-.37.18-.83.04-1.16-.22-.32-.26-.51-.64-.71-1-.39-.76-.77-1.55-.91-2.39-.08-.54-.06-1.08-.04-1.62.15-2.58.57-5.14,1.27-7.62.44-1.55,1.02-3.13,2.18-4.25.27-.27.59-.51.96-.59.56-.12,1.09.16,1.51.51.16.14.43.32.44.56,0,.04,0,.06-.01.1-.03,0-.04,0-.06,0-.08-.02-.15-.02-.22-.03-.42-.04-.72-.02-.95.02-.05.02-.1.02-.13.04-.19.06-.29.14-.38.22-.72.73-2.41,5.88-2.73,7.56-.29,1.5-.75,7-.18,7.72l.02.03s.06.06.11.09c.04.03.08.07.14.11.26.19.64.43,1.03.65Z"/>
        <path class="cls-34" d="M757.91,118.34s-.05-.01-.07,0c.02,0,.04,0,.06,0h0Z"/>
      </g>
      <path class="cls-29" d="M726.28,110.37c.59.11,1.19.08,1.78.09.61.01,1.22.08,1.82.21.22.05.45.11.59.28.2.24.16.59.08.89-.45,1.61-1.82,2.93-1.92,4.61,0,.07,0,.15-.05.21-.07.1-.22.11-.34.1-3.41-.16-6.77-.92-10.1-1.71-.19-.04-.4-.11-.48-.29-.06-.14.52-.88.62-1.02.22-.34.46-.68.71-1.01.5-.66,1.05-1.29,1.64-1.88.48-.48,1.11-1.24,1.75-1.49.53-.22,1.25.03,1.76.22.71.27,1.38.65,2.13.79Z"/>
      <path class="cls-12" d="M716.33,124.42c.72-.14,1.47.03,2.19.15,2.52.43,5.11.35,7.64.69.41.06.86.15,1.1.48.18.25.2.58.23.88.06.54.17,1.07.28,1.59.3,1.45.61,2.91,1.16,4.28.1.24.21.49.22.75s-.09.55-.32.68c-.13.07-.29.09-.45.09-1.19.06-2.4-.06-3.5-.49-.57-.22-1.12-.52-1.69-.73-1.37-.5-2.88-.49-4.31-.79-.3-.06-.61-.14-.87-.31-.31-.19-.53-.49-.73-.8-.68-1.04-1.12-2.23-1.55-3.4-.31-.84-.62-1.7-.67-2.59-.01-.25.01-.55.21-.71.2-.16.49-.12.74-.07.5.1,1,.2,1.5.3"/>
    </g>
  </g>
</svg>